<svg width="948" height="364" viewBox="0 0 948 364" fill="none" xmlns="http://www.w3.org/2000/svg">
<path d="M-4.32134e-07 410V399.5L49 379.5L193.5 -2.6226e-05H201.5L338 392L384 399.5V410H237V399.5L278 393L235.5 274.5H102.5L62 379.5L107 399.5V410H-4.32134e-07ZM106.5 264H232L172 88L106.5 264ZM552.875 415C533.208 415 516.208 410 501.875 400C487.875 389.667 476.708 375.667 468.375 358V410H383.375V400L418.375 395V25L383.375 20V9.99999H468.375V203.5C476.708 185.833 487.875 172 501.875 162C516.208 151.667 533.208 146.5 552.875 146.5C576.542 146.5 597.375 152 615.375 163C633.375 174 647.375 189.667 657.375 210C667.375 230 672.375 253.5 672.375 280.5C672.375 307.5 667.375 331.167 657.375 351.5C647.375 371.5 633.375 387.167 615.375 398.5C597.375 409.5 576.542 415 552.875 415ZM547.875 402.5C594.208 402.5 617.375 370.167 617.375 305.5V255.5C617.375 191.167 594.208 159 547.875 159C533.208 159 519.875 163.333 507.875 172C495.875 180.333 486.375 191.667 479.375 206C472.375 220 468.708 235.333 468.375 252V305.5C468.375 322.5 471.708 338.5 478.375 353.5C485.375 368.5 494.875 380.5 506.875 389.5C519.208 398.167 532.875 402.5 547.875 402.5ZM844.688 415C820.688 415 798.854 409.5 779.188 398.5C759.521 387.167 743.854 371.333 732.188 351C720.854 330.333 715.188 306.833 715.188 280.5C715.188 252.833 721.188 228.833 733.188 208.5C745.521 188.167 761.521 172.833 781.188 162.5C800.854 151.833 822.021 146.5 844.688 146.5C863.688 146.5 881.021 149.833 896.688 156.5C912.354 162.833 924.688 171.833 933.688 183.5C943.021 195.167 947.688 208.333 947.688 223C947.688 234 944.854 242.5 939.188 248.5C933.521 254.167 926.021 257 916.688 257C907.688 257 900.188 254 894.188 248C888.188 242 885.188 234.5 885.188 225.5C890.188 222.167 893.688 218.5 895.688 214.5C897.688 210.5 898.688 205.5 898.688 199.5C898.688 187.167 893.688 177.167 883.688 169.5C874.021 161.5 861.021 157.5 844.688 157.5C820.688 157.5 802.188 166.167 789.188 183.5C776.521 200.5 770.188 224.5 770.188 255.5V305.5C770.188 335.167 776.354 359 788.688 377C801.354 395 820.021 404 844.688 404C867.354 404 887.021 397.667 903.688 385C920.688 372 931.188 355 935.188 334H946.688C942.021 358.667 930.354 378.333 911.688 393C893.354 407.667 871.021 415 844.688 415Z" fill="#FAFAFA" fill-opacity="0.07"/>
</svg>
