<svg width="246" height="172" viewBox="0 0 246 172" fill="none" xmlns="http://www.w3.org/2000/svg">
<rect x="179.095" y="39.8026" width="92.3381" height="92.3381" transform="rotate(45 179.095 39.8026)" stroke="#BCBCBC" stroke-dasharray="4 4"/>
<g filter="url(#filter0_ddd)">
<rect x="20" y="10" width="176" height="104" rx="4" fill="white"/>
<path d="M37.12 36H37.864L38.158 35.064H39.862L40.159 36H40.903L39.541 31.68H38.482L37.12 36ZM38.371 34.389L39.004 32.379L39.646 34.389H38.371ZM43.0682 36.09C43.4122 36.09 43.7142 36.02 43.9742 35.88C44.2362 35.74 44.4402 35.543 44.5862 35.289C44.7342 35.035 44.8082 34.737 44.8082 34.395V31.68H44.0762V34.377C44.0762 34.591 44.0292 34.775 43.9352 34.929C43.8432 35.083 43.7202 35.202 43.5662 35.286C43.4142 35.368 43.2482 35.409 43.0682 35.409C42.8942 35.409 42.7302 35.368 42.5762 35.286C42.4222 35.204 42.2972 35.086 42.2012 34.932C42.1072 34.778 42.0602 34.593 42.0602 34.377V31.68L41.3282 31.686V34.395C41.3282 34.737 41.4012 35.035 41.5472 35.289C41.6952 35.543 41.9002 35.74 42.1622 35.88C42.4242 36.02 42.7262 36.09 43.0682 36.09ZM46.6846 36H47.4076V32.358H48.8056V31.68H45.2866V32.358H46.6846V36ZM49.2852 36H50.0082V34.176H52.0542V36H52.7742V31.68H52.0542V33.498H50.0082V31.68H49.2852V36ZM55.4423 36.09C55.8743 36.09 56.2443 35.996 56.5523 35.808C56.8623 35.618 57.0993 35.354 57.2633 35.016C57.4293 34.678 57.5123 34.286 57.5123 33.84C57.5123 33.392 57.4293 33 57.2633 32.664C57.0993 32.326 56.8623 32.063 56.5523 31.875C56.2443 31.685 55.8743 31.59 55.4423 31.59C55.0123 31.59 54.6423 31.685 54.3323 31.875C54.0243 32.063 53.7873 32.326 53.6213 32.664C53.4573 33 53.3753 33.392 53.3753 33.84C53.3753 34.286 53.4573 34.678 53.6213 35.016C53.7873 35.354 54.0243 35.618 54.3323 35.808C54.6423 35.996 55.0123 36.09 55.4423 36.09ZM55.4423 35.409C55.0083 35.403 54.6823 35.258 54.4643 34.974C54.2463 34.69 54.1383 34.312 54.1403 33.84C54.1423 33.524 54.1913 33.248 54.2873 33.012C54.3833 32.776 54.5273 32.593 54.7193 32.463C54.9113 32.331 55.1523 32.267 55.4423 32.271C55.8783 32.277 56.2043 32.422 56.4203 32.706C56.6383 32.99 56.7473 33.368 56.7473 33.84C56.7473 34.154 56.6983 34.43 56.6003 34.668C56.5043 34.904 56.3593 35.087 56.1653 35.217C55.9733 35.347 55.7323 35.411 55.4423 35.409ZM58.1095 36H58.8325V34.491H59.8585L60.5905 36H61.4095L60.6115 34.362C60.8575 34.252 61.0405 34.085 61.1605 33.861C61.2805 33.637 61.3405 33.379 61.3405 33.087C61.3405 32.729 61.2505 32.424 61.0705 32.172C60.8925 31.918 60.6155 31.762 60.2395 31.704C60.1835 31.694 60.1225 31.688 60.0565 31.686C59.9905 31.682 59.9365 31.68 59.8945 31.68H58.1095V36ZM58.8325 33.816V32.358H59.8645C59.9045 32.358 59.9495 32.36 59.9995 32.364C60.0495 32.368 60.0955 32.375 60.1375 32.385C60.2575 32.415 60.3515 32.469 60.4195 32.547C60.4895 32.623 60.5385 32.709 60.5665 32.805C60.5965 32.901 60.6115 32.995 60.6115 33.087C60.6115 33.179 60.5965 33.273 60.5665 33.369C60.5385 33.465 60.4895 33.551 60.4195 33.627C60.3515 33.703 60.2575 33.756 60.1375 33.786C60.0955 33.798 60.0495 33.806 59.9995 33.81C59.9495 33.814 59.9045 33.816 59.8645 33.816H58.8325ZM62.1304 36H62.8534V31.68H62.1304V36ZM63.632 36H66.962V35.319H64.895L67.013 31.782V31.68H63.782V32.358H65.762L63.632 35.901V36ZM67.7305 36H70.5205V35.322H68.4535V34.101H70.1605V33.423H68.4535V32.358H70.5205V31.68H67.7305V36ZM71.2403 36H72.6173C72.6513 36 72.7223 35.999 72.8303 35.997C72.9403 35.995 73.0443 35.988 73.1423 35.976C73.4863 35.932 73.7763 35.811 74.0123 35.613C74.2483 35.413 74.4273 35.159 74.5493 34.851C74.6713 34.543 74.7323 34.206 74.7323 33.84C74.7323 33.474 74.6713 33.137 74.5493 32.829C74.4273 32.521 74.2483 32.267 74.0123 32.067C73.7763 31.867 73.4863 31.746 73.1423 31.704C73.0423 31.692 72.9383 31.685 72.8303 31.683C72.7243 31.681 72.6533 31.68 72.6173 31.68H71.2403V36ZM71.9753 35.319V32.361H72.6173C72.6773 32.361 72.7533 32.363 72.8453 32.367C72.9373 32.369 73.0203 32.378 73.0943 32.394C73.2943 32.432 73.4583 32.521 73.5863 32.661C73.7143 32.801 73.8093 32.974 73.8713 33.18C73.9353 33.384 73.9673 33.604 73.9673 33.84C73.9673 34.066 73.9373 34.282 73.8773 34.488C73.8173 34.694 73.7223 34.869 73.5923 35.013C73.4643 35.155 73.2983 35.246 73.0943 35.286C73.0203 35.3 72.9373 35.309 72.8453 35.313C72.7533 35.317 72.6773 35.319 72.6173 35.319H71.9753ZM78.3827 36.09C78.7267 36.09 79.0287 36.02 79.2887 35.88C79.5507 35.74 79.7547 35.543 79.9007 35.289C80.0487 35.035 80.1227 34.737 80.1227 34.395V31.68H79.3907V34.377C79.3907 34.591 79.3437 34.775 79.2497 34.929C79.1577 35.083 79.0347 35.202 78.8807 35.286C78.7287 35.368 78.5627 35.409 78.3827 35.409C78.2087 35.409 78.0447 35.368 77.8907 35.286C77.7367 35.204 77.6117 35.086 77.5157 34.932C77.4217 34.778 77.3747 34.593 77.3747 34.377V31.68L76.6427 31.686V34.395C76.6427 34.737 76.7157 35.035 76.8617 35.289C77.0097 35.543 77.2147 35.74 77.4767 35.88C77.7387 36.02 78.0407 36.09 78.3827 36.09ZM80.961 36H81.684V34.491H82.71L83.442 36H84.261L83.463 34.362C83.709 34.252 83.892 34.085 84.012 33.861C84.132 33.637 84.192 33.379 84.192 33.087C84.192 32.729 84.102 32.424 83.922 32.172C83.744 31.918 83.467 31.762 83.091 31.704C83.035 31.694 82.974 31.688 82.908 31.686C82.842 31.682 82.788 31.68 82.746 31.68H80.961V36ZM81.684 33.816V32.358H82.716C82.756 32.358 82.801 32.36 82.851 32.364C82.901 32.368 82.947 32.375 82.989 32.385C83.109 32.415 83.203 32.469 83.271 32.547C83.341 32.623 83.39 32.709 83.418 32.805C83.448 32.901 83.463 32.995 83.463 33.087C83.463 33.179 83.448 33.273 83.418 33.369C83.39 33.465 83.341 33.551 83.271 33.627C83.203 33.703 83.109 33.756 82.989 33.786C82.947 33.798 82.901 33.806 82.851 33.81C82.801 33.814 82.756 33.816 82.716 33.816H81.684ZM84.982 36H87.613V35.322H85.705V31.68H84.982V36ZM87.4905 33.216C87.7365 33.256 87.9215 33.209 88.0455 33.075C88.1695 32.941 88.2315 32.743 88.2315 32.481V31.68H87.4905V32.451H87.8745C87.8905 32.587 87.8715 32.699 87.8175 32.787C87.7655 32.875 87.6705 32.914 87.5325 32.904L87.4905 33.216ZM89.8761 36.09C90.2941 36.09 90.6211 35.997 90.8571 35.811C91.0951 35.625 91.2141 35.369 91.2141 35.043C91.2141 34.791 91.1341 34.593 90.9741 34.449C90.8161 34.305 90.5431 34.183 90.1551 34.083C89.9031 34.019 89.7131 33.965 89.5851 33.921C89.4591 33.877 89.3751 33.833 89.3331 33.789C89.2911 33.745 89.2701 33.692 89.2701 33.63C89.2701 33.522 89.3221 33.438 89.4261 33.378C89.5301 33.316 89.6671 33.289 89.8371 33.297C90.0131 33.307 90.1541 33.352 90.2601 33.432C90.3681 33.512 90.4321 33.621 90.4521 33.759L91.1901 33.627C91.1501 33.335 91.0071 33.103 90.7611 32.931C90.5151 32.757 90.2031 32.67 89.8251 32.67C89.4391 32.67 89.1301 32.76 88.8981 32.94C88.6661 33.12 88.5501 33.362 88.5501 33.666C88.5501 33.908 88.6311 34.099 88.7931 34.239C88.9571 34.379 89.2421 34.502 89.6481 34.608C89.8921 34.672 90.0721 34.726 90.1881 34.77C90.3061 34.812 90.3831 34.855 90.4191 34.899C90.4551 34.943 90.4731 35.002 90.4731 35.076C90.4731 35.196 90.4251 35.291 90.3291 35.361C90.2331 35.429 90.0991 35.463 89.9271 35.463C89.7291 35.463 89.5641 35.417 89.4321 35.325C89.3021 35.233 89.2191 35.107 89.1831 34.947L88.4451 35.061C88.4991 35.387 88.6511 35.64 88.9011 35.82C89.1511 36 89.4761 36.09 89.8761 36.09Z" fill="black"/>
<path d="M49.556 52H50.148V49.696C50.148 49.208 50.2573 48.8253 50.476 48.548C50.6947 48.2707 51.012 48.132 51.428 48.132C51.7293 48.132 51.972 48.2053 52.156 48.352C52.34 48.496 52.4733 48.6933 52.556 48.944C52.6387 49.1947 52.68 49.4787 52.68 49.796V52H53.272V49.624C53.272 49.3813 53.2413 49.1387 53.18 48.896C53.1213 48.6533 53.0253 48.432 52.892 48.232C52.7587 48.032 52.5813 47.872 52.36 47.752C52.1387 47.632 51.8653 47.572 51.54 47.572C51.2307 47.572 50.9507 47.632 50.7 47.752C50.452 47.8693 50.248 48.0453 50.088 48.28V46.24H49.556V52ZM56.662 52V51.484C56.3527 51.5347 56.0927 51.5427 55.882 51.508C55.674 51.4733 55.522 51.3667 55.426 51.188C55.3753 51.0947 55.3473 50.988 55.342 50.868C55.3393 50.7453 55.338 50.5933 55.338 50.412V48.184H56.662V47.68H55.338V46.48H54.754V47.68H53.83V48.184H54.754V50.436C54.754 50.6467 54.7567 50.8347 54.762 51C54.77 51.1653 54.8127 51.3267 54.89 51.484C54.986 51.676 55.126 51.8173 55.31 51.908C55.4967 51.9987 55.7073 52.0493 55.942 52.06C56.1793 52.0707 56.4193 52.0507 56.662 52ZM59.386 52V51.484C59.0767 51.5347 58.8167 51.5427 58.606 51.508C58.398 51.4733 58.246 51.3667 58.15 51.188C58.0993 51.0947 58.0713 50.988 58.066 50.868C58.0633 50.7453 58.062 50.5933 58.062 50.412V48.184H59.386V47.68H58.062V46.48H57.478V47.68H56.554V48.184H57.478V50.436C57.478 50.6467 57.4807 50.8347 57.486 51C57.494 51.1653 57.5367 51.3267 57.614 51.484C57.71 51.676 57.85 51.8173 58.034 51.908C58.2207 51.9987 58.4313 52.0493 58.666 52.06C58.9033 52.0707 59.1433 52.0507 59.386 52ZM60.2357 53.92H60.8277V51.484C60.9824 51.6813 61.173 51.8373 61.3997 51.952C61.6264 52.064 61.8864 52.12 62.1797 52.12C62.585 52.12 62.9304 52.02 63.2157 51.82C63.501 51.6173 63.7184 51.344 63.8677 51C64.0197 50.656 64.0957 50.268 64.0957 49.836C64.0957 49.4067 64.0197 49.02 63.8677 48.676C63.7184 48.332 63.5024 48.06 63.2197 47.86C62.937 47.66 62.5984 47.56 62.2037 47.56C61.8837 47.56 61.6024 47.624 61.3597 47.752C61.1197 47.8773 60.921 48.052 60.7637 48.276V47.68H60.2357V53.92ZM62.1197 51.572C61.813 51.572 61.5597 51.4973 61.3597 51.348C61.1597 51.196 61.0104 50.9893 60.9117 50.728C60.813 50.4667 60.7637 50.1693 60.7637 49.836C60.7637 49.3267 60.8744 48.912 61.0957 48.592C61.3197 48.2693 61.657 48.108 62.1077 48.108C62.417 48.108 62.6717 48.184 62.8717 48.336C63.0744 48.488 63.225 48.6947 63.3237 48.956C63.4224 49.2173 63.4717 49.5107 63.4717 49.836C63.4717 50.164 63.421 50.4587 63.3197 50.72C63.221 50.9813 63.0717 51.1893 62.8717 51.344C62.6717 51.496 62.421 51.572 62.1197 51.572ZM66.547 52.116C67.0777 52.116 67.4937 52 67.795 51.768C68.099 51.5333 68.251 51.212 68.251 50.804C68.251 50.58 68.203 50.392 68.107 50.24C68.0137 50.088 67.8523 49.956 67.623 49.844C67.3963 49.732 67.0843 49.6253 66.687 49.524C66.3483 49.4387 66.087 49.36 65.903 49.288C65.7217 49.216 65.5963 49.14 65.527 49.06C65.4577 48.9773 65.423 48.8787 65.423 48.764C65.423 48.5587 65.519 48.3947 65.711 48.272C65.903 48.1493 66.1523 48.0907 66.459 48.096C66.7843 48.1013 67.0523 48.1787 67.263 48.328C67.4737 48.4747 67.6003 48.6747 67.643 48.928L68.243 48.82C68.2137 48.5693 68.1203 48.3493 67.963 48.16C67.8057 47.9707 67.5977 47.824 67.339 47.72C67.083 47.6133 66.7923 47.56 66.467 47.56C66.1417 47.56 65.855 47.612 65.607 47.716C65.3617 47.8173 65.1697 47.9613 65.031 48.148C64.895 48.332 64.827 48.5467 64.827 48.792C64.827 48.992 64.8723 49.1627 64.963 49.304C65.0563 49.4427 65.215 49.5667 65.439 49.676C65.663 49.7827 65.9697 49.8893 66.359 49.996C66.7243 50.0947 66.9977 50.18 67.179 50.252C67.363 50.324 67.4857 50.4027 67.547 50.488C67.6083 50.5707 67.639 50.6787 67.639 50.812C67.639 51.0467 67.5443 51.2333 67.355 51.372C67.1657 51.5107 66.907 51.58 66.579 51.58C66.243 51.58 65.9603 51.508 65.731 51.364C65.5017 51.2173 65.3563 51.0213 65.295 50.776L64.695 50.876C64.7697 51.2653 64.9697 51.5693 65.295 51.788C65.623 52.0067 66.0403 52.116 66.547 52.116ZM69.4581 51.36H70.1421V50.676H69.4581V51.36ZM69.4621 49.004H70.1461V48.32H69.4621V49.004ZM72.3441 46.24H72.9481L71.4121 52H70.8081L72.3441 46.24ZM74.3285 46.24H74.9325L73.3965 52H72.7925L74.3285 46.24ZM76.5901 53.92H77.1781L79.4981 47.68H78.8981L77.5901 51.232L76.1701 47.68H75.5461L77.3021 51.988L76.5901 53.92ZM81.8406 52.12C82.2672 52.12 82.6326 52.024 82.9366 51.832C83.2432 51.64 83.4779 51.3733 83.6406 51.032C83.8059 50.688 83.8886 50.2893 83.8886 49.836C83.8886 49.3907 83.8072 48.9973 83.6446 48.656C83.4846 48.312 83.2512 48.044 82.9446 47.852C82.6406 47.6573 82.2726 47.56 81.8406 47.56C81.4192 47.56 81.0552 47.656 80.7486 47.848C80.4446 48.0373 80.2099 48.3027 80.0446 48.644C79.8792 48.9853 79.7966 49.3827 79.7966 49.836C79.7966 50.2813 79.8766 50.676 80.0366 51.02C80.1992 51.364 80.4326 51.6333 80.7366 51.828C81.0432 52.0227 81.4112 52.12 81.8406 52.12ZM81.8406 51.556C81.3739 51.556 81.0206 51.4 80.7806 51.088C80.5406 50.7733 80.4206 50.356 80.4206 49.836C80.4206 49.332 80.5366 48.9213 80.7686 48.604C81.0006 48.284 81.3579 48.124 81.8406 48.124C82.3179 48.124 82.6739 48.28 82.9086 48.592C83.1459 48.9013 83.2646 49.316 83.2646 49.836C83.2646 50.3453 83.1472 50.76 82.9126 51.08C82.6779 51.3973 82.3206 51.556 81.8406 51.556ZM86.4229 52.108C86.7323 52.108 87.0109 52.0493 87.2589 51.932C87.5096 51.812 87.7149 51.6347 87.8749 51.4V52H88.4029V47.68H87.8149V49.984C87.8149 50.472 87.7056 50.8547 87.4869 51.132C87.2683 51.4093 86.9509 51.548 86.5349 51.548C86.2336 51.548 85.9909 51.476 85.8069 51.332C85.6229 51.1853 85.4896 50.9867 85.4069 50.736C85.3243 50.4853 85.2829 50.2013 85.2829 49.884V47.68H84.6909V50.056C84.6909 50.2987 84.7203 50.5413 84.7789 50.784C84.8403 51.0267 84.9376 51.248 85.0709 51.448C85.2043 51.648 85.3816 51.808 85.6029 51.928C85.8269 52.048 86.1003 52.108 86.4229 52.108ZM89.5209 52H90.1089V49.844C90.1089 49.5853 90.1383 49.328 90.1969 49.072C90.2583 48.8133 90.3969 48.5987 90.6129 48.428C90.7703 48.3 90.9409 48.2267 91.1249 48.208C91.3116 48.1867 91.4849 48.1947 91.6449 48.232V47.68C91.4556 47.632 91.2409 47.6307 91.0009 47.676C90.7609 47.7187 90.5556 47.8147 90.3849 47.964C90.2569 48.06 90.1449 48.1933 90.0489 48.364V47.68H89.5209V52ZM93.3238 52H93.8358L94.9118 48.56L95.9918 52H96.5038L97.8238 47.68H97.2398L96.2078 51.036L95.1798 47.68H94.6438L93.6158 51.036L92.5918 47.68L92.0038 47.676L93.3238 52ZM100.216 52.12C100.635 52.12 101.009 52.0173 101.34 51.812C101.673 51.6067 101.925 51.3147 102.096 50.936L101.548 50.724C101.273 51.2787 100.821 51.556 100.192 51.556C99.7601 51.556 99.4215 51.4213 99.1761 51.152C98.9335 50.8827 98.8001 50.5 98.7761 50.004H102.18C102.201 49.2413 102.035 48.644 101.68 48.212C101.328 47.7773 100.832 47.56 100.192 47.56C99.7761 47.56 99.4148 47.6533 99.1081 47.84C98.8041 48.0267 98.5681 48.292 98.4001 48.636C98.2321 48.98 98.1481 49.388 98.1481 49.86C98.1481 50.316 98.2321 50.7133 98.4001 51.052C98.5708 51.3907 98.8108 51.6533 99.1201 51.84C99.4321 52.0267 99.7975 52.12 100.216 52.12ZM100.208 48.1C101.021 48.1 101.473 48.5707 101.564 49.512H98.7881C98.8335 49.056 98.9775 48.7067 99.2201 48.464C99.4628 48.2213 99.7921 48.1 100.208 48.1ZM103.064 52H103.592V51.396C103.746 51.62 103.942 51.7973 104.18 51.928C104.417 52.056 104.693 52.12 105.008 52.12C105.413 52.12 105.758 52.02 106.044 51.82C106.329 51.6173 106.546 51.344 106.696 51C106.848 50.656 106.924 50.268 106.924 49.836C106.924 49.4067 106.848 49.02 106.696 48.676C106.546 48.332 106.33 48.06 106.048 47.86C105.765 47.66 105.426 47.56 105.032 47.56C104.733 47.56 104.468 47.616 104.236 47.728C104.006 47.8373 103.813 47.9907 103.656 48.188V46.24H103.064V52ZM104.948 51.572C104.641 51.572 104.388 51.4973 104.188 51.348C103.988 51.196 103.838 50.9893 103.74 50.728C103.641 50.4667 103.592 50.1693 103.592 49.836C103.592 49.3267 103.702 48.912 103.924 48.592C104.148 48.2693 104.485 48.108 104.936 48.108C105.245 48.108 105.5 48.184 105.7 48.336C105.902 48.488 106.053 48.6947 106.152 48.956C106.25 49.2173 106.3 49.5107 106.3 49.836C106.3 50.164 106.249 50.4587 106.148 50.72C106.049 50.9813 105.9 51.1893 105.7 51.344C105.5 51.496 105.249 51.572 104.948 51.572ZM109.375 52.116C109.906 52.116 110.322 52 110.623 51.768C110.927 51.5333 111.079 51.212 111.079 50.804C111.079 50.58 111.031 50.392 110.935 50.24C110.842 50.088 110.68 49.956 110.451 49.844C110.224 49.732 109.912 49.6253 109.515 49.524C109.176 49.4387 108.915 49.36 108.731 49.288C108.55 49.216 108.424 49.14 108.355 49.06C108.286 48.9773 108.251 48.8787 108.251 48.764C108.251 48.5587 108.347 48.3947 108.539 48.272C108.731 48.1493 108.98 48.0907 109.287 48.096C109.612 48.1013 109.88 48.1787 110.091 48.328C110.302 48.4747 110.428 48.6747 110.471 48.928L111.071 48.82C111.042 48.5693 110.948 48.3493 110.791 48.16C110.634 47.9707 110.426 47.824 110.167 47.72C109.911 47.6133 109.62 47.56 109.295 47.56C108.97 47.56 108.683 47.612 108.435 47.716C108.19 47.8173 107.998 47.9613 107.859 48.148C107.723 48.332 107.655 48.5467 107.655 48.792C107.655 48.992 107.7 49.1627 107.791 49.304C107.884 49.4427 108.043 49.5667 108.267 49.676C108.491 49.7827 108.798 49.8893 109.187 49.996C109.552 50.0947 109.826 50.18 110.007 50.252C110.191 50.324 110.314 50.4027 110.375 50.488C110.436 50.5707 110.467 50.6787 110.467 50.812C110.467 51.0467 110.372 51.2333 110.183 51.372C109.994 51.5107 109.735 51.58 109.407 51.58C109.071 51.58 108.788 51.508 108.559 51.364C108.33 51.2173 108.184 51.0213 108.123 50.776L107.523 50.876C107.598 51.2653 107.798 51.5693 108.123 51.788C108.451 52.0067 108.868 52.116 109.375 52.116ZM112.046 46.86H112.634V46.2H112.046V46.86ZM112.046 52H112.634V47.68H112.046V52ZM116.185 52V51.484C115.876 51.5347 115.616 51.5427 115.405 51.508C115.197 51.4733 115.045 51.3667 114.949 51.188C114.899 51.0947 114.871 50.988 114.865 50.868C114.863 50.7453 114.861 50.5933 114.861 50.412V48.184H116.185V47.68H114.861V46.48H114.277V47.68H113.353V48.184H114.277V50.436C114.277 50.6467 114.28 50.8347 114.285 51C114.293 51.1653 114.336 51.3267 114.413 51.484C114.509 51.676 114.649 51.8173 114.833 51.908C115.02 51.9987 115.231 52.0493 115.465 52.06C115.703 52.0707 115.943 52.0507 116.185 52ZM118.708 52.12C119.127 52.12 119.502 52.0173 119.832 51.812C120.166 51.6067 120.418 51.3147 120.588 50.936L120.04 50.724C119.766 51.2787 119.314 51.556 118.684 51.556C118.252 51.556 117.914 51.4213 117.668 51.152C117.426 50.8827 117.292 50.5 117.268 50.004H120.672C120.694 49.2413 120.527 48.644 120.172 48.212C119.82 47.7773 119.324 47.56 118.684 47.56C118.268 47.56 117.907 47.6533 117.6 47.84C117.296 48.0267 117.06 48.292 116.892 48.636C116.724 48.98 116.64 49.388 116.64 49.86C116.64 50.316 116.724 50.7133 116.892 51.052C117.063 51.3907 117.303 51.6533 117.612 51.84C117.924 52.0267 118.29 52.12 118.708 52.12ZM118.7 48.1C119.514 48.1 119.966 48.5707 120.056 49.512H117.28C117.326 49.056 117.47 48.7067 117.712 48.464C117.955 48.2213 118.284 48.1 118.7 48.1ZM121.516 52H122.2V51.316H121.516V52ZM125.227 52.12C125.656 52.12 126.024 52.02 126.331 51.82C126.64 51.6173 126.876 51.324 127.039 50.94L126.447 50.764C126.228 51.292 125.822 51.556 125.227 51.556C124.763 51.556 124.414 51.4 124.179 51.088C123.944 50.7733 123.824 50.3573 123.819 49.84C123.824 49.336 123.94 48.924 124.167 48.604C124.396 48.284 124.75 48.124 125.227 48.124C125.51 48.124 125.76 48.196 125.979 48.34C126.2 48.4813 126.362 48.6813 126.463 48.94L127.039 48.756C126.919 48.3853 126.696 48.0933 126.371 47.88C126.048 47.6667 125.668 47.56 125.231 47.56C124.802 47.56 124.436 47.656 124.135 47.848C123.834 48.0373 123.603 48.304 123.443 48.648C123.283 48.9893 123.2 49.3867 123.195 49.84C123.2 50.2827 123.28 50.676 123.435 51.02C123.592 51.364 123.822 51.6333 124.123 51.828C124.424 52.0227 124.792 52.12 125.227 52.12ZM129.552 52.12C129.978 52.12 130.344 52.024 130.648 51.832C130.954 51.64 131.189 51.3733 131.352 51.032C131.517 50.688 131.6 50.2893 131.6 49.836C131.6 49.3907 131.518 48.9973 131.356 48.656C131.196 48.312 130.962 48.044 130.656 47.852C130.352 47.6573 129.984 47.56 129.552 47.56C129.13 47.56 128.766 47.656 128.46 47.848C128.156 48.0373 127.921 48.3027 127.756 48.644C127.59 48.9853 127.508 49.3827 127.508 49.836C127.508 50.2813 127.588 50.676 127.748 51.02C127.91 51.364 128.144 51.6333 128.448 51.828C128.754 52.0227 129.122 52.12 129.552 52.12ZM129.552 51.556C129.085 51.556 128.732 51.4 128.492 51.088C128.252 50.7733 128.132 50.356 128.132 49.836C128.132 49.332 128.248 48.9213 128.48 48.604C128.712 48.284 129.069 48.124 129.552 48.124C130.029 48.124 130.385 48.28 130.62 48.592C130.857 48.9013 130.976 49.316 130.976 49.836C130.976 50.3453 130.858 50.76 130.624 51.08C130.389 51.3973 130.032 51.556 129.552 51.556ZM132.478 52H133.07V49.212C133.07 48.8733 133.162 48.6027 133.346 48.4C133.53 48.1947 133.771 48.092 134.07 48.092C134.369 48.092 134.609 48.192 134.79 48.392C134.974 48.5893 135.066 48.86 135.066 49.204L135.062 52H135.642L135.646 49.212C135.646 48.9427 135.695 48.7267 135.794 48.564C135.895 48.3987 136.023 48.2787 136.178 48.204C136.333 48.1293 136.491 48.092 136.654 48.092C136.939 48.092 137.174 48.188 137.358 48.38C137.545 48.5693 137.638 48.8307 137.638 49.164L137.634 52H138.222L138.226 49.052C138.226 48.596 138.095 48.2347 137.834 47.968C137.575 47.6987 137.227 47.564 136.79 47.564C136.502 47.564 136.243 47.6293 136.014 47.76C135.785 47.888 135.607 48.0653 135.482 48.292C135.365 48.0547 135.195 47.8747 134.974 47.752C134.755 47.6267 134.505 47.564 134.222 47.564C133.966 47.564 133.733 47.616 133.522 47.72C133.311 47.8213 133.139 47.96 133.006 48.136V47.68H132.478V52Z" fill="black"/>
<path d="M49.556 72H50.148V69.696C50.148 69.208 50.2573 68.8253 50.476 68.548C50.6947 68.2707 51.012 68.132 51.428 68.132C51.7293 68.132 51.972 68.2053 52.156 68.352C52.34 68.496 52.4733 68.6933 52.556 68.944C52.6387 69.1947 52.68 69.4787 52.68 69.796V72H53.272V69.624C53.272 69.3813 53.2413 69.1387 53.18 68.896C53.1213 68.6533 53.0253 68.432 52.892 68.232C52.7587 68.032 52.5813 67.872 52.36 67.752C52.1387 67.632 51.8653 67.572 51.54 67.572C51.2307 67.572 50.9507 67.632 50.7 67.752C50.452 67.8693 50.248 68.0453 50.088 68.28V66.24H49.556V72ZM56.662 72V71.484C56.3527 71.5347 56.0927 71.5427 55.882 71.508C55.674 71.4733 55.522 71.3667 55.426 71.188C55.3753 71.0947 55.3473 70.988 55.342 70.868C55.3393 70.7453 55.338 70.5933 55.338 70.412V68.184H56.662V67.68H55.338V66.48H54.754V67.68H53.83V68.184H54.754V70.436C54.754 70.6467 54.7567 70.8347 54.762 71C54.77 71.1653 54.8127 71.3267 54.89 71.484C54.986 71.676 55.126 71.8173 55.31 71.908C55.4967 71.9987 55.7073 72.0493 55.942 72.06C56.1793 72.0707 56.4193 72.0507 56.662 72ZM59.386 72V71.484C59.0767 71.5347 58.8167 71.5427 58.606 71.508C58.398 71.4733 58.246 71.3667 58.15 71.188C58.0993 71.0947 58.0713 70.988 58.066 70.868C58.0633 70.7453 58.062 70.5933 58.062 70.412V68.184H59.386V67.68H58.062V66.48H57.478V67.68H56.554V68.184H57.478V70.436C57.478 70.6467 57.4807 70.8347 57.486 71C57.494 71.1653 57.5367 71.3267 57.614 71.484C57.71 71.676 57.85 71.8173 58.034 71.908C58.2207 71.9987 58.4313 72.0493 58.666 72.06C58.9033 72.0707 59.1433 72.0507 59.386 72ZM60.2357 73.92H60.8277V71.484C60.9824 71.6813 61.173 71.8373 61.3997 71.952C61.6264 72.064 61.8864 72.12 62.1797 72.12C62.585 72.12 62.9304 72.02 63.2157 71.82C63.501 71.6173 63.7184 71.344 63.8677 71C64.0197 70.656 64.0957 70.268 64.0957 69.836C64.0957 69.4067 64.0197 69.02 63.8677 68.676C63.7184 68.332 63.5024 68.06 63.2197 67.86C62.937 67.66 62.5984 67.56 62.2037 67.56C61.8837 67.56 61.6024 67.624 61.3597 67.752C61.1197 67.8773 60.921 68.052 60.7637 68.276V67.68H60.2357V73.92ZM62.1197 71.572C61.813 71.572 61.5597 71.4973 61.3597 71.348C61.1597 71.196 61.0104 70.9893 60.9117 70.728C60.813 70.4667 60.7637 70.1693 60.7637 69.836C60.7637 69.3267 60.8744 68.912 61.0957 68.592C61.3197 68.2693 61.657 68.108 62.1077 68.108C62.417 68.108 62.6717 68.184 62.8717 68.336C63.0744 68.488 63.225 68.6947 63.3237 68.956C63.4224 69.2173 63.4717 69.5107 63.4717 69.836C63.4717 70.164 63.421 70.4587 63.3197 70.72C63.221 70.9813 63.0717 71.1893 62.8717 71.344C62.6717 71.496 62.421 71.572 62.1197 71.572ZM66.547 72.116C67.0777 72.116 67.4937 72 67.795 71.768C68.099 71.5333 68.251 71.212 68.251 70.804C68.251 70.58 68.203 70.392 68.107 70.24C68.0137 70.088 67.8523 69.956 67.623 69.844C67.3963 69.732 67.0843 69.6253 66.687 69.524C66.3483 69.4387 66.087 69.36 65.903 69.288C65.7217 69.216 65.5963 69.14 65.527 69.06C65.4577 68.9773 65.423 68.8787 65.423 68.764C65.423 68.5587 65.519 68.3947 65.711 68.272C65.903 68.1493 66.1523 68.0907 66.459 68.096C66.7843 68.1013 67.0523 68.1787 67.263 68.328C67.4737 68.4747 67.6003 68.6747 67.643 68.928L68.243 68.82C68.2137 68.5693 68.1203 68.3493 67.963 68.16C67.8057 67.9707 67.5977 67.824 67.339 67.72C67.083 67.6133 66.7923 67.56 66.467 67.56C66.1417 67.56 65.855 67.612 65.607 67.716C65.3617 67.8173 65.1697 67.9613 65.031 68.148C64.895 68.332 64.827 68.5467 64.827 68.792C64.827 68.992 64.8723 69.1627 64.963 69.304C65.0563 69.4427 65.215 69.5667 65.439 69.676C65.663 69.7827 65.9697 69.8893 66.359 69.996C66.7243 70.0947 66.9977 70.18 67.179 70.252C67.363 70.324 67.4857 70.4027 67.547 70.488C67.6083 70.5707 67.639 70.6787 67.639 70.812C67.639 71.0467 67.5443 71.2333 67.355 71.372C67.1657 71.5107 66.907 71.58 66.579 71.58C66.243 71.58 65.9603 71.508 65.731 71.364C65.5017 71.2173 65.3563 71.0213 65.295 70.776L64.695 70.876C64.7697 71.2653 64.9697 71.5693 65.295 71.788C65.623 72.0067 66.0403 72.116 66.547 72.116ZM69.4581 71.36H70.1421V70.676H69.4581V71.36ZM69.4621 69.004H70.1461V68.32H69.4621V69.004ZM72.3441 66.24H72.9481L71.4121 72H70.8081L72.3441 66.24ZM74.3285 66.24H74.9325L73.3965 72H72.7925L74.3285 66.24ZM76.5901 73.92H77.1781L79.4981 67.68H78.8981L77.5901 71.232L76.1701 67.68H75.5461L77.3021 71.988L76.5901 73.92ZM81.8406 72.12C82.2672 72.12 82.6326 72.024 82.9366 71.832C83.2432 71.64 83.4779 71.3733 83.6406 71.032C83.8059 70.688 83.8886 70.2893 83.8886 69.836C83.8886 69.3907 83.8072 68.9973 83.6446 68.656C83.4846 68.312 83.2512 68.044 82.9446 67.852C82.6406 67.6573 82.2726 67.56 81.8406 67.56C81.4192 67.56 81.0552 67.656 80.7486 67.848C80.4446 68.0373 80.2099 68.3027 80.0446 68.644C79.8792 68.9853 79.7966 69.3827 79.7966 69.836C79.7966 70.2813 79.8766 70.676 80.0366 71.02C80.1992 71.364 80.4326 71.6333 80.7366 71.828C81.0432 72.0227 81.4112 72.12 81.8406 72.12ZM81.8406 71.556C81.3739 71.556 81.0206 71.4 80.7806 71.088C80.5406 70.7733 80.4206 70.356 80.4206 69.836C80.4206 69.332 80.5366 68.9213 80.7686 68.604C81.0006 68.284 81.3579 68.124 81.8406 68.124C82.3179 68.124 82.6739 68.28 82.9086 68.592C83.1459 68.9013 83.2646 69.316 83.2646 69.836C83.2646 70.3453 83.1472 70.76 82.9126 71.08C82.6779 71.3973 82.3206 71.556 81.8406 71.556ZM86.4229 72.108C86.7323 72.108 87.0109 72.0493 87.2589 71.932C87.5096 71.812 87.7149 71.6347 87.8749 71.4V72H88.4029V67.68H87.8149V69.984C87.8149 70.472 87.7056 70.8547 87.4869 71.132C87.2683 71.4093 86.9509 71.548 86.5349 71.548C86.2336 71.548 85.9909 71.476 85.8069 71.332C85.6229 71.1853 85.4896 70.9867 85.4069 70.736C85.3243 70.4853 85.2829 70.2013 85.2829 69.884V67.68H84.6909V70.056C84.6909 70.2987 84.7203 70.5413 84.7789 70.784C84.8403 71.0267 84.9376 71.248 85.0709 71.448C85.2043 71.648 85.3816 71.808 85.6029 71.928C85.8269 72.048 86.1003 72.108 86.4229 72.108ZM89.5209 72H90.1089V69.844C90.1089 69.5853 90.1383 69.328 90.1969 69.072C90.2583 68.8133 90.3969 68.5987 90.6129 68.428C90.7703 68.3 90.9409 68.2267 91.1249 68.208C91.3116 68.1867 91.4849 68.1947 91.6449 68.232V67.68C91.4556 67.632 91.2409 67.6307 91.0009 67.676C90.7609 67.7187 90.5556 67.8147 90.3849 67.964C90.2569 68.06 90.1449 68.1933 90.0489 68.364V67.68H89.5209V72ZM93.8595 72.116C94.3902 72.116 94.8062 72 95.1075 71.768C95.4115 71.5333 95.5635 71.212 95.5635 70.804C95.5635 70.58 95.5155 70.392 95.4195 70.24C95.3262 70.088 95.1648 69.956 94.9355 69.844C94.7088 69.732 94.3968 69.6253 93.9995 69.524C93.6608 69.4387 93.3995 69.36 93.2155 69.288C93.0342 69.216 92.9088 69.14 92.8395 69.06C92.7702 68.9773 92.7355 68.8787 92.7355 68.764C92.7355 68.5587 92.8315 68.3947 93.0235 68.272C93.2155 68.1493 93.4648 68.0907 93.7715 68.096C94.0968 68.1013 94.3648 68.1787 94.5755 68.328C94.7862 68.4747 94.9128 68.6747 94.9555 68.928L95.5555 68.82C95.5262 68.5693 95.4328 68.3493 95.2755 68.16C95.1182 67.9707 94.9102 67.824 94.6515 67.72C94.3955 67.6133 94.1048 67.56 93.7795 67.56C93.4542 67.56 93.1675 67.612 92.9195 67.716C92.6742 67.8173 92.4822 67.9613 92.3435 68.148C92.2075 68.332 92.1395 68.5467 92.1395 68.792C92.1395 68.992 92.1848 69.1627 92.2755 69.304C92.3688 69.4427 92.5275 69.5667 92.7515 69.676C92.9755 69.7827 93.2822 69.8893 93.6715 69.996C94.0368 70.0947 94.3102 70.18 94.4915 70.252C94.6755 70.324 94.7982 70.4027 94.8595 70.488C94.9208 70.5707 94.9515 70.6787 94.9515 70.812C94.9515 71.0467 94.8568 71.2333 94.6675 71.372C94.4782 71.5107 94.2195 71.58 93.8915 71.58C93.5555 71.58 93.2728 71.508 93.0435 71.364C92.8142 71.2173 92.6688 71.0213 92.6075 70.776L92.0075 70.876C92.0822 71.2653 92.2822 71.5693 92.6075 71.788C92.9355 72.0067 93.3528 72.116 93.8595 72.116ZM98.2786 72.12C98.6973 72.12 99.072 72.0173 99.4026 71.812C99.736 71.6067 99.988 71.3147 100.159 70.936L99.6106 70.724C99.336 71.2787 98.884 71.556 98.2546 71.556C97.8226 71.556 97.484 71.4213 97.2386 71.152C96.996 70.8827 96.8626 70.5 96.8386 70.004H100.243C100.264 69.2413 100.097 68.644 99.7426 68.212C99.3906 67.7773 98.8946 67.56 98.2546 67.56C97.8386 67.56 97.4773 67.6533 97.1706 67.84C96.8666 68.0267 96.6306 68.292 96.4626 68.636C96.2946 68.98 96.2106 69.388 96.2106 69.86C96.2106 70.316 96.2946 70.7133 96.4626 71.052C96.6333 71.3907 96.8733 71.6533 97.1826 71.84C97.4946 72.0267 97.86 72.12 98.2786 72.12ZM98.2706 68.1C99.084 68.1 99.536 68.5707 99.6266 69.512H96.8506C96.896 69.056 97.04 68.7067 97.2826 68.464C97.5253 68.2213 97.8546 68.1 98.2706 68.1ZM102.922 72.12C103.352 72.12 103.72 72.02 104.026 71.82C104.336 71.6173 104.572 71.324 104.734 70.94L104.142 70.764C103.924 71.292 103.517 71.556 102.922 71.556C102.458 71.556 102.109 71.4 101.874 71.088C101.64 70.7733 101.52 70.3573 101.514 69.84C101.52 69.336 101.636 68.924 101.862 68.604C102.092 68.284 102.445 68.124 102.922 68.124C103.205 68.124 103.456 68.196 103.674 68.34C103.896 68.4813 104.057 68.6813 104.158 68.94L104.734 68.756C104.614 68.3853 104.392 68.0933 104.066 67.88C103.744 67.6667 103.364 67.56 102.926 67.56C102.497 67.56 102.132 67.656 101.83 67.848C101.529 68.0373 101.298 68.304 101.138 68.648C100.978 68.9893 100.896 69.3867 100.89 69.84C100.896 70.2827 100.976 70.676 101.13 71.02C101.288 71.364 101.517 71.6333 101.818 71.828C102.12 72.0227 102.488 72.12 102.922 72.12ZM107.247 72.12C107.673 72.12 108.039 72.024 108.343 71.832C108.649 71.64 108.884 71.3733 109.047 71.032C109.212 70.688 109.295 70.2893 109.295 69.836C109.295 69.3907 109.213 68.9973 109.051 68.656C108.891 68.312 108.657 68.044 108.351 67.852C108.047 67.6573 107.679 67.56 107.247 67.56C106.825 67.56 106.461 67.656 106.155 67.848C105.851 68.0373 105.616 68.3027 105.451 68.644C105.285 68.9853 105.203 69.3827 105.203 69.836C105.203 70.2813 105.283 70.676 105.443 71.02C105.605 71.364 105.839 71.6333 106.143 71.828C106.449 72.0227 106.817 72.12 107.247 72.12ZM107.247 71.556C106.78 71.556 106.427 71.4 106.187 71.088C105.947 70.7733 105.827 70.356 105.827 69.836C105.827 69.332 105.943 68.9213 106.175 68.604C106.407 68.284 106.764 68.124 107.247 68.124C107.724 68.124 108.08 68.28 108.315 68.592C108.552 68.9013 108.671 69.316 108.671 69.836C108.671 70.3453 108.553 70.76 108.319 71.08C108.084 71.3973 107.727 71.556 107.247 71.556ZM110.173 72H110.765V69.696C110.765 69.208 110.875 68.8253 111.093 68.548C111.312 68.2707 111.629 68.132 112.045 68.132C112.347 68.132 112.589 68.2053 112.773 68.352C112.957 68.496 113.091 68.6933 113.173 68.944C113.256 69.1947 113.297 69.4787 113.297 69.796V72H113.889V69.624C113.889 69.3813 113.859 69.1387 113.797 68.896C113.739 68.6533 113.643 68.432 113.509 68.232C113.376 68.032 113.199 67.872 112.977 67.752C112.756 67.632 112.483 67.572 112.157 67.572C111.848 67.572 111.568 67.632 111.317 67.752C111.069 67.8693 110.865 68.0453 110.705 68.28V67.68H110.173V72ZM116.572 72.12C116.887 72.12 117.163 72.056 117.4 71.928C117.637 71.7973 117.833 71.62 117.988 71.396V72H118.516V66.24H117.924V68.188C117.767 67.9907 117.572 67.8373 117.34 67.728C117.111 67.616 116.847 67.56 116.548 67.56C116.153 67.56 115.815 67.66 115.532 67.86C115.249 68.06 115.032 68.332 114.88 68.676C114.731 69.02 114.656 69.4067 114.656 69.836C114.656 70.268 114.731 70.656 114.88 71C115.032 71.344 115.251 71.6173 115.536 71.82C115.824 72.02 116.169 72.12 116.572 72.12ZM116.632 71.572C116.333 71.572 116.083 71.496 115.88 71.344C115.68 71.1893 115.529 70.9813 115.428 70.72C115.329 70.4587 115.28 70.164 115.28 69.836C115.28 69.5107 115.329 69.2173 115.428 68.956C115.527 68.6947 115.676 68.488 115.876 68.336C116.079 68.184 116.335 68.108 116.644 68.108C117.095 68.108 117.431 68.2693 117.652 68.592C117.876 68.912 117.988 69.3267 117.988 69.836C117.988 70.1693 117.939 70.4667 117.84 70.728C117.741 70.9893 117.592 71.196 117.392 71.348C117.192 71.4973 116.939 71.572 116.632 71.572ZM120.558 72H121.07L122.146 68.56L123.226 72H123.738L125.058 67.68H124.474L123.442 71.036L122.414 67.68H121.878L120.85 71.036L119.826 67.68L119.238 67.676L120.558 72ZM127.451 72.12C127.869 72.12 128.244 72.0173 128.575 71.812C128.908 71.6067 129.16 71.3147 129.331 70.936L128.783 70.724C128.508 71.2787 128.056 71.556 127.427 71.556C126.995 71.556 126.656 71.4213 126.411 71.152C126.168 70.8827 126.035 70.5 126.011 70.004H129.415C129.436 69.2413 129.269 68.644 128.915 68.212C128.563 67.7773 128.067 67.56 127.427 67.56C127.011 67.56 126.649 67.6533 126.343 67.84C126.039 68.0267 125.803 68.292 125.635 68.636C125.467 68.98 125.383 69.388 125.383 69.86C125.383 70.316 125.467 70.7133 125.635 71.052C125.805 71.3907 126.045 71.6533 126.355 71.84C126.667 72.0267 127.032 72.12 127.451 72.12ZM127.443 68.1C128.256 68.1 128.708 68.5707 128.799 69.512H126.023C126.068 69.056 126.212 68.7067 126.455 68.464C126.697 68.2213 127.027 68.1 127.443 68.1ZM130.298 72H130.826V71.396C130.981 71.62 131.177 71.7973 131.414 71.928C131.652 72.056 131.928 72.12 132.242 72.12C132.648 72.12 132.993 72.02 133.278 71.82C133.564 71.6173 133.781 71.344 133.93 71C134.082 70.656 134.158 70.268 134.158 69.836C134.158 69.4067 134.082 69.02 133.93 68.676C133.781 68.332 133.565 68.06 133.282 67.86C133 67.66 132.661 67.56 132.266 67.56C131.968 67.56 131.702 67.616 131.47 67.728C131.241 67.8373 131.048 67.9907 130.89 68.188V66.24H130.298V72ZM132.182 71.572C131.876 71.572 131.622 71.4973 131.422 71.348C131.222 71.196 131.073 70.9893 130.974 70.728C130.876 70.4667 130.826 70.1693 130.826 69.836C130.826 69.3267 130.937 68.912 131.158 68.592C131.382 68.2693 131.72 68.108 132.17 68.108C132.48 68.108 132.734 68.184 132.934 68.336C133.137 68.488 133.288 68.6947 133.386 68.956C133.485 69.2173 133.534 69.5107 133.534 69.836C133.534 70.164 133.484 70.4587 133.382 70.72C133.284 70.9813 133.134 71.1893 132.934 71.344C132.734 71.496 132.484 71.572 132.182 71.572ZM136.61 72.116C137.14 72.116 137.556 72 137.858 71.768C138.162 71.5333 138.314 71.212 138.314 70.804C138.314 70.58 138.266 70.392 138.17 70.24C138.076 70.088 137.915 69.956 137.686 69.844C137.459 69.732 137.147 69.6253 136.75 69.524C136.411 69.4387 136.15 69.36 135.966 69.288C135.784 69.216 135.659 69.14 135.59 69.06C135.52 68.9773 135.486 68.8787 135.486 68.764C135.486 68.5587 135.582 68.3947 135.774 68.272C135.966 68.1493 136.215 68.0907 136.522 68.096C136.847 68.1013 137.115 68.1787 137.326 68.328C137.536 68.4747 137.663 68.6747 137.706 68.928L138.306 68.82C138.276 68.5693 138.183 68.3493 138.026 68.16C137.868 67.9707 137.66 67.824 137.402 67.72C137.146 67.6133 136.855 67.56 136.53 67.56C136.204 67.56 135.918 67.612 135.67 67.716C135.424 67.8173 135.232 67.9613 135.094 68.148C134.958 68.332 134.89 68.5467 134.89 68.792C134.89 68.992 134.935 69.1627 135.025 69.304C135.119 69.4427 135.278 69.5667 135.502 69.676C135.726 69.7827 136.032 69.8893 136.422 69.996C136.787 70.0947 137.06 70.18 137.242 70.252C137.426 70.324 137.548 70.4027 137.61 70.488C137.671 70.5707 137.702 70.6787 137.702 70.812C137.702 71.0467 137.607 71.2333 137.418 71.372C137.228 71.5107 136.97 71.58 136.641 71.58C136.306 71.58 136.023 71.508 135.794 71.364C135.564 71.2173 135.419 71.0213 135.358 70.776L134.758 70.876C134.832 71.2653 135.032 71.5693 135.358 71.788C135.686 72.0067 136.103 72.116 136.61 72.116ZM139.281 66.86H139.869V66.2H139.281V66.86ZM139.281 72H139.869V67.68H139.281V72ZM143.42 72V71.484C143.11 71.5347 142.85 71.5427 142.64 71.508C142.432 71.4733 142.28 71.3667 142.184 71.188C142.133 71.0947 142.105 70.988 142.1 70.868C142.097 70.7453 142.096 70.5933 142.096 70.412V68.184H143.42V67.68H142.096V66.48H141.512V67.68H140.588V68.184H141.512V70.436C141.512 70.6467 141.514 70.8347 141.52 71C141.528 71.1653 141.57 71.3267 141.648 71.484C141.744 71.676 141.884 71.8173 142.068 71.908C142.254 71.9987 142.465 72.0493 142.7 72.06C142.937 72.0707 143.177 72.0507 143.42 72ZM145.943 72.12C146.361 72.12 146.736 72.0173 147.067 71.812C147.4 71.6067 147.652 71.3147 147.823 70.936L147.275 70.724C147 71.2787 146.548 71.556 145.919 71.556C145.487 71.556 145.148 71.4213 144.903 71.152C144.66 70.8827 144.527 70.5 144.503 70.004H147.907C147.928 69.2413 147.761 68.644 147.407 68.212C147.055 67.7773 146.559 67.56 145.919 67.56C145.503 67.56 145.141 67.6533 144.835 67.84C144.531 68.0267 144.295 68.292 144.127 68.636C143.959 68.98 143.875 69.388 143.875 69.86C143.875 70.316 143.959 70.7133 144.127 71.052C144.297 71.3907 144.537 71.6533 144.847 71.84C145.159 72.0267 145.524 72.12 145.943 72.12ZM145.935 68.1C146.748 68.1 147.2 68.5707 147.291 69.512H144.515C144.56 69.056 144.704 68.7067 144.947 68.464C145.189 68.2213 145.519 68.1 145.935 68.1ZM148.75 72H149.434V71.316H148.75V72ZM152.461 72.12C152.891 72.12 153.259 72.02 153.565 71.82C153.875 71.6173 154.111 71.324 154.273 70.94L153.681 70.764C153.463 71.292 153.056 71.556 152.461 71.556C151.997 71.556 151.648 71.4 151.413 71.088C151.179 70.7733 151.059 70.3573 151.053 69.84C151.059 69.336 151.175 68.924 151.401 68.604C151.631 68.284 151.984 68.124 152.461 68.124C152.744 68.124 152.995 68.196 153.213 68.34C153.435 68.4813 153.596 68.6813 153.697 68.94L154.273 68.756C154.153 68.3853 153.931 68.0933 153.605 67.88C153.283 67.6667 152.903 67.56 152.465 67.56C152.036 67.56 151.671 67.656 151.369 67.848C151.068 68.0373 150.837 68.304 150.677 68.648C150.517 68.9893 150.435 69.3867 150.429 69.84C150.435 70.2827 150.515 70.676 150.669 71.02C150.827 71.364 151.056 71.6333 151.357 71.828C151.659 72.0227 152.027 72.12 152.461 72.12ZM156.786 72.12C157.213 72.12 157.578 72.024 157.882 71.832C158.189 71.64 158.423 71.3733 158.586 71.032C158.751 70.688 158.834 70.2893 158.834 69.836C158.834 69.3907 158.753 68.9973 158.59 68.656C158.43 68.312 158.197 68.044 157.89 67.852C157.586 67.6573 157.218 67.56 156.786 67.56C156.365 67.56 156.001 67.656 155.694 67.848C155.39 68.0373 155.155 68.3027 154.99 68.644C154.825 68.9853 154.742 69.3827 154.742 69.836C154.742 70.2813 154.822 70.676 154.982 71.02C155.145 71.364 155.378 71.6333 155.682 71.828C155.989 72.0227 156.357 72.12 156.786 72.12ZM156.786 71.556C156.319 71.556 155.966 71.4 155.726 71.088C155.486 70.7733 155.366 70.356 155.366 69.836C155.366 69.332 155.482 68.9213 155.714 68.604C155.946 68.284 156.303 68.124 156.786 68.124C157.263 68.124 157.619 68.28 157.854 68.592C158.091 68.9013 158.21 69.316 158.21 69.836C158.21 70.3453 158.093 70.76 157.858 71.08C157.623 71.3973 157.266 71.556 156.786 71.556ZM159.712 72H160.304V69.212C160.304 68.8733 160.396 68.6027 160.58 68.4C160.764 68.1947 161.006 68.092 161.304 68.092C161.603 68.092 161.843 68.192 162.024 68.392C162.208 68.5893 162.3 68.86 162.3 69.204L162.296 72H162.876L162.88 69.212C162.88 68.9427 162.93 68.7267 163.028 68.564C163.13 68.3987 163.258 68.2787 163.412 68.204C163.567 68.1293 163.726 68.092 163.888 68.092C164.174 68.092 164.408 68.188 164.592 68.38C164.779 68.5693 164.872 68.8307 164.872 69.164L164.868 72H165.456L165.46 69.052C165.46 68.596 165.33 68.2347 165.068 67.968C164.81 67.6987 164.462 67.564 164.024 67.564C163.736 67.564 163.478 67.6293 163.248 67.76C163.019 67.888 162.842 68.0653 162.716 68.292C162.599 68.0547 162.43 67.8747 162.208 67.752C161.99 67.6267 161.739 67.564 161.456 67.564C161.2 67.564 160.967 67.616 160.756 67.72C160.546 67.8213 160.374 67.96 160.24 68.136V67.68H159.712V72Z" fill="black"/>
<path d="M49.556 92H50.148V89.696C50.148 89.208 50.2573 88.8253 50.476 88.548C50.6947 88.2707 51.012 88.132 51.428 88.132C51.7293 88.132 51.972 88.2053 52.156 88.352C52.34 88.496 52.4733 88.6933 52.556 88.944C52.6387 89.1947 52.68 89.4787 52.68 89.796V92H53.272V89.624C53.272 89.3813 53.2413 89.1387 53.18 88.896C53.1213 88.6533 53.0253 88.432 52.892 88.232C52.7587 88.032 52.5813 87.872 52.36 87.752C52.1387 87.632 51.8653 87.572 51.54 87.572C51.2307 87.572 50.9507 87.632 50.7 87.752C50.452 87.8693 50.248 88.0453 50.088 88.28V86.24H49.556V92ZM56.662 92V91.484C56.3527 91.5347 56.0927 91.5427 55.882 91.508C55.674 91.4733 55.522 91.3667 55.426 91.188C55.3753 91.0947 55.3473 90.988 55.342 90.868C55.3393 90.7453 55.338 90.5933 55.338 90.412V88.184H56.662V87.68H55.338V86.48H54.754V87.68H53.83V88.184H54.754V90.436C54.754 90.6467 54.7567 90.8347 54.762 91C54.77 91.1653 54.8127 91.3267 54.89 91.484C54.986 91.676 55.126 91.8173 55.31 91.908C55.4967 91.9987 55.7073 92.0493 55.942 92.06C56.1793 92.0707 56.4193 92.0507 56.662 92ZM59.386 92V91.484C59.0767 91.5347 58.8167 91.5427 58.606 91.508C58.398 91.4733 58.246 91.3667 58.15 91.188C58.0993 91.0947 58.0713 90.988 58.066 90.868C58.0633 90.7453 58.062 90.5933 58.062 90.412V88.184H59.386V87.68H58.062V86.48H57.478V87.68H56.554V88.184H57.478V90.436C57.478 90.6467 57.4807 90.8347 57.486 91C57.494 91.1653 57.5367 91.3267 57.614 91.484C57.71 91.676 57.85 91.8173 58.034 91.908C58.2207 91.9987 58.4313 92.0493 58.666 92.06C58.9033 92.0707 59.1433 92.0507 59.386 92ZM60.2357 93.92H60.8277V91.484C60.9824 91.6813 61.173 91.8373 61.3997 91.952C61.6264 92.064 61.8864 92.12 62.1797 92.12C62.585 92.12 62.9304 92.02 63.2157 91.82C63.501 91.6173 63.7184 91.344 63.8677 91C64.0197 90.656 64.0957 90.268 64.0957 89.836C64.0957 89.4067 64.0197 89.02 63.8677 88.676C63.7184 88.332 63.5024 88.06 63.2197 87.86C62.937 87.66 62.5984 87.56 62.2037 87.56C61.8837 87.56 61.6024 87.624 61.3597 87.752C61.1197 87.8773 60.921 88.052 60.7637 88.276V87.68H60.2357V93.92ZM62.1197 91.572C61.813 91.572 61.5597 91.4973 61.3597 91.348C61.1597 91.196 61.0104 90.9893 60.9117 90.728C60.813 90.4667 60.7637 90.1693 60.7637 89.836C60.7637 89.3267 60.8744 88.912 61.0957 88.592C61.3197 88.2693 61.657 88.108 62.1077 88.108C62.417 88.108 62.6717 88.184 62.8717 88.336C63.0744 88.488 63.225 88.6947 63.3237 88.956C63.4224 89.2173 63.4717 89.5107 63.4717 89.836C63.4717 90.164 63.421 90.4587 63.3197 90.72C63.221 90.9813 63.0717 91.1893 62.8717 91.344C62.6717 91.496 62.421 91.572 62.1197 91.572ZM66.547 92.116C67.0777 92.116 67.4937 92 67.795 91.768C68.099 91.5333 68.251 91.212 68.251 90.804C68.251 90.58 68.203 90.392 68.107 90.24C68.0137 90.088 67.8523 89.956 67.623 89.844C67.3963 89.732 67.0843 89.6253 66.687 89.524C66.3483 89.4387 66.087 89.36 65.903 89.288C65.7217 89.216 65.5963 89.14 65.527 89.06C65.4577 88.9773 65.423 88.8787 65.423 88.764C65.423 88.5587 65.519 88.3947 65.711 88.272C65.903 88.1493 66.1523 88.0907 66.459 88.096C66.7843 88.1013 67.0523 88.1787 67.263 88.328C67.4737 88.4747 67.6003 88.6747 67.643 88.928L68.243 88.82C68.2137 88.5693 68.1203 88.3493 67.963 88.16C67.8057 87.9707 67.5977 87.824 67.339 87.72C67.083 87.6133 66.7923 87.56 66.467 87.56C66.1417 87.56 65.855 87.612 65.607 87.716C65.3617 87.8173 65.1697 87.9613 65.031 88.148C64.895 88.332 64.827 88.5467 64.827 88.792C64.827 88.992 64.8723 89.1627 64.963 89.304C65.0563 89.4427 65.215 89.5667 65.439 89.676C65.663 89.7827 65.9697 89.8893 66.359 89.996C66.7243 90.0947 66.9977 90.18 67.179 90.252C67.363 90.324 67.4857 90.4027 67.547 90.488C67.6083 90.5707 67.639 90.6787 67.639 90.812C67.639 91.0467 67.5443 91.2333 67.355 91.372C67.1657 91.5107 66.907 91.58 66.579 91.58C66.243 91.58 65.9603 91.508 65.731 91.364C65.5017 91.2173 65.3563 91.0213 65.295 90.776L64.695 90.876C64.7697 91.2653 64.9697 91.5693 65.295 91.788C65.623 92.0067 66.0403 92.116 66.547 92.116ZM69.4581 91.36H70.1421V90.676H69.4581V91.36ZM69.4621 89.004H70.1461V88.32H69.4621V89.004ZM72.3441 86.24H72.9481L71.4121 92H70.8081L72.3441 86.24ZM74.3285 86.24H74.9325L73.3965 92H72.7925L74.3285 86.24ZM77.3439 92.116C77.8745 92.116 78.2905 92 78.5919 91.768C78.8959 91.5333 79.0479 91.212 79.0479 90.804C79.0479 90.58 78.9999 90.392 78.9039 90.24C78.8105 90.088 78.6492 89.956 78.4199 89.844C78.1932 89.732 77.8812 89.6253 77.4839 89.524C77.1452 89.4387 76.8839 89.36 76.6999 89.288C76.5185 89.216 76.3932 89.14 76.3239 89.06C76.2545 88.9773 76.2199 88.8787 76.2199 88.764C76.2199 88.5587 76.3159 88.3947 76.5079 88.272C76.6999 88.1493 76.9492 88.0907 77.2559 88.096C77.5812 88.1013 77.8492 88.1787 78.0599 88.328C78.2705 88.4747 78.3972 88.6747 78.4399 88.928L79.0399 88.82C79.0105 88.5693 78.9172 88.3493 78.7599 88.16C78.6025 87.9707 78.3945 87.824 78.1359 87.72C77.8799 87.6133 77.5892 87.56 77.2639 87.56C76.9385 87.56 76.6519 87.612 76.4039 87.716C76.1585 87.8173 75.9665 87.9613 75.8279 88.148C75.6919 88.332 75.6239 88.5467 75.6239 88.792C75.6239 88.992 75.6692 89.1627 75.7599 89.304C75.8532 89.4427 76.0119 89.5667 76.2359 89.676C76.4599 89.7827 76.7665 89.8893 77.1559 89.996C77.5212 90.0947 77.7945 90.18 77.9759 90.252C78.1599 90.324 78.2825 90.4027 78.3439 90.488C78.4052 90.5707 78.4359 90.6787 78.4359 90.812C78.4359 91.0467 78.3412 91.2333 78.1519 91.372C77.9625 91.5107 77.7039 91.58 77.3759 91.58C77.0399 91.58 76.7572 91.508 76.5279 91.364C76.2985 91.2173 76.1532 91.0213 76.0919 90.776L75.4919 90.876C75.5665 91.2653 75.7665 91.5693 76.0919 91.788C76.4199 92.0067 76.8372 92.116 77.3439 92.116ZM81.739 92.12C82.1657 92.12 82.531 92.024 82.835 91.832C83.1417 91.64 83.3763 91.3733 83.539 91.032C83.7043 90.688 83.787 90.2893 83.787 89.836C83.787 89.3907 83.7057 88.9973 83.543 88.656C83.383 88.312 83.1497 88.044 82.843 87.852C82.539 87.6573 82.171 87.56 81.739 87.56C81.3177 87.56 80.9537 87.656 80.647 87.848C80.343 88.0373 80.1083 88.3027 79.943 88.644C79.7777 88.9853 79.695 89.3827 79.695 89.836C79.695 90.2813 79.775 90.676 79.935 91.02C80.0977 91.364 80.331 91.6333 80.635 91.828C80.9417 92.0227 81.3097 92.12 81.739 92.12ZM81.739 91.556C81.2723 91.556 80.919 91.4 80.679 91.088C80.439 90.7733 80.319 90.356 80.319 89.836C80.319 89.332 80.435 88.9213 80.667 88.604C80.899 88.284 81.2563 88.124 81.739 88.124C82.2163 88.124 82.5723 88.28 82.807 88.592C83.0443 88.9013 83.163 89.316 83.163 89.836C83.163 90.3453 83.0457 90.76 82.811 91.08C82.5763 91.3973 82.219 91.556 81.739 91.556ZM84.6654 92H85.2574V89.212C85.2574 88.8733 85.3494 88.6027 85.5334 88.4C85.7174 88.1947 85.9587 88.092 86.2574 88.092C86.556 88.092 86.796 88.192 86.9774 88.392C87.1614 88.5893 87.2534 88.86 87.2534 89.204L87.2494 92H87.8294L87.8334 89.212C87.8334 88.9427 87.8827 88.7267 87.9814 88.564C88.0827 88.3987 88.2107 88.2787 88.3654 88.204C88.52 88.1293 88.6787 88.092 88.8414 88.092C89.1267 88.092 89.3614 88.188 89.5454 88.38C89.732 88.5693 89.8254 88.8307 89.8254 89.164L89.8214 92H90.4094L90.4134 89.052C90.4134 88.596 90.2827 88.2347 90.0214 87.968C89.7627 87.6987 89.4147 87.564 88.9774 87.564C88.6894 87.564 88.4307 87.6293 88.2014 87.76C87.972 87.888 87.7947 88.0653 87.6694 88.292C87.552 88.0547 87.3827 87.8747 87.1614 87.752C86.9427 87.6267 86.692 87.564 86.4094 87.564C86.1534 87.564 85.92 87.616 85.7094 87.72C85.4987 87.8213 85.3267 87.96 85.1934 88.136V87.68H84.6654V92ZM92.6866 92.12C93.4413 92.12 93.9893 91.8413 94.3306 91.284V92H94.8546V89.316C94.8546 89.156 94.8466 88.9987 94.8306 88.844C94.8146 88.6893 94.78 88.5493 94.7266 88.424C94.612 88.144 94.416 87.9307 94.1386 87.784C93.864 87.6347 93.5293 87.56 93.1346 87.56C92.66 87.56 92.2733 87.6667 91.9746 87.88C91.676 88.0933 91.476 88.3933 91.3746 88.78L91.9466 88.948C92.0293 88.66 92.172 88.4493 92.3746 88.316C92.58 88.1827 92.8306 88.116 93.1266 88.116C93.5373 88.116 93.8306 88.212 94.0066 88.404C94.1826 88.5933 94.2733 88.8827 94.2786 89.272C94.0866 89.2987 93.8746 89.3267 93.6426 89.356C93.4133 89.3853 93.1826 89.4187 92.9506 89.456C92.7186 89.4933 92.5053 89.536 92.3106 89.584C91.988 89.6693 91.724 89.812 91.5186 90.012C91.3133 90.2093 91.2106 90.4853 91.2106 90.84C91.2106 91.0693 91.2653 91.2813 91.3746 91.476C91.484 91.6707 91.648 91.8267 91.8666 91.944C92.088 92.0613 92.3613 92.12 92.6866 92.12ZM92.7546 91.612C92.5226 91.612 92.336 91.5747 92.1946 91.5C92.056 91.4227 91.9546 91.3253 91.8906 91.208C91.8293 91.088 91.7986 90.9653 91.7986 90.84C91.7986 90.6053 91.8773 90.4293 92.0346 90.312C92.192 90.1947 92.3626 90.1093 92.5466 90.056C92.784 89.992 93.06 89.94 93.3746 89.9C93.6893 89.86 93.988 89.8227 94.2706 89.788C94.2706 89.8867 94.2666 90 94.2586 90.128C94.2533 90.2533 94.2386 90.3693 94.2146 90.476C94.1586 90.8013 94.004 91.072 93.7506 91.288C93.5 91.504 93.168 91.612 92.7546 91.612ZM95.8919 92H96.4839V89.696C96.4839 89.208 96.5933 88.8253 96.8119 88.548C97.0306 88.2707 97.3479 88.132 97.7639 88.132C98.0653 88.132 98.3079 88.2053 98.4919 88.352C98.6759 88.496 98.8093 88.6933 98.8919 88.944C98.9746 89.1947 99.0159 89.4787 99.0159 89.796V92H99.6079V89.624C99.6079 89.3813 99.5773 89.1387 99.5159 88.896C99.4573 88.6533 99.3613 88.432 99.2279 88.232C99.0946 88.032 98.9173 87.872 98.6959 87.752C98.4746 87.632 98.2013 87.572 97.8759 87.572C97.5666 87.572 97.2866 87.632 97.0359 87.752C96.7879 87.8693 96.5839 88.0453 96.4239 88.28V87.68H95.8919V92ZM101.106 93.92H101.694L104.014 87.68H103.414L102.106 91.232L100.686 87.68H100.062L101.818 91.988L101.106 93.92ZM106.32 92.116C106.851 92.116 107.267 92 107.568 91.768C107.872 91.5333 108.024 91.212 108.024 90.804C108.024 90.58 107.976 90.392 107.88 90.24C107.787 90.088 107.626 89.956 107.396 89.844C107.17 89.732 106.858 89.6253 106.46 89.524C106.122 89.4387 105.86 89.36 105.676 89.288C105.495 89.216 105.37 89.14 105.3 89.06C105.231 88.9773 105.196 88.8787 105.196 88.764C105.196 88.5587 105.292 88.3947 105.484 88.272C105.676 88.1493 105.926 88.0907 106.232 88.096C106.558 88.1013 106.826 88.1787 107.036 88.328C107.247 88.4747 107.374 88.6747 107.416 88.928L108.016 88.82C107.987 88.5693 107.894 88.3493 107.736 88.16C107.579 87.9707 107.371 87.824 107.112 87.72C106.856 87.6133 106.566 87.56 106.24 87.56C105.915 87.56 105.628 87.612 105.38 87.716C105.135 87.8173 104.943 87.9613 104.804 88.148C104.668 88.332 104.6 88.5467 104.6 88.792C104.6 88.992 104.646 89.1627 104.736 89.304C104.83 89.4427 104.988 89.5667 105.212 89.676C105.436 89.7827 105.743 89.8893 106.132 89.996C106.498 90.0947 106.771 90.18 106.952 90.252C107.136 90.324 107.259 90.4027 107.32 90.488C107.382 90.5707 107.412 90.6787 107.412 90.812C107.412 91.0467 107.318 91.2333 107.128 91.372C106.939 91.5107 106.68 91.58 106.352 91.58C106.016 91.58 105.734 91.508 105.504 91.364C105.275 91.2173 105.13 91.0213 105.068 90.776L104.468 90.876C104.543 91.2653 104.743 91.5693 105.068 91.788C105.396 92.0067 105.814 92.116 106.32 92.116ZM108.992 86.86H109.58V86.2H108.992V86.86ZM108.992 92H109.58V87.68H108.992V92ZM113.131 92V91.484C112.821 91.5347 112.561 91.5427 112.351 91.508C112.143 91.4733 111.991 91.3667 111.895 91.188C111.844 91.0947 111.816 90.988 111.811 90.868C111.808 90.7453 111.807 90.5933 111.807 90.412V88.184H113.131V87.68H111.807V86.48H111.223V87.68H110.299V88.184H111.223V90.436C111.223 90.6467 111.225 90.8347 111.231 91C111.239 91.1653 111.281 91.3267 111.359 91.484C111.455 91.676 111.595 91.8173 111.779 91.908C111.965 91.9987 112.176 92.0493 112.411 92.06C112.648 92.0707 112.888 92.0507 113.131 92ZM115.654 92.12C116.072 92.12 116.447 92.0173 116.778 91.812C117.111 91.6067 117.363 91.3147 117.534 90.936L116.986 90.724C116.711 91.2787 116.259 91.556 115.63 91.556C115.198 91.556 114.859 91.4213 114.614 91.152C114.371 90.8827 114.238 90.5 114.214 90.004H117.618C117.639 89.2413 117.472 88.644 117.118 88.212C116.766 87.7773 116.27 87.56 115.63 87.56C115.214 87.56 114.852 87.6533 114.546 87.84C114.242 88.0267 114.006 88.292 113.838 88.636C113.67 88.98 113.586 89.388 113.586 89.86C113.586 90.316 113.67 90.7133 113.838 91.052C114.008 91.3907 114.248 91.6533 114.558 91.84C114.87 92.0267 115.235 92.12 115.654 92.12ZM115.646 88.1C116.459 88.1 116.911 88.5707 117.002 89.512H114.226C114.271 89.056 114.415 88.7067 114.658 88.464C114.9 88.2213 115.23 88.1 115.646 88.1ZM120.117 92.116C120.648 92.116 121.064 92 121.365 91.768C121.669 91.5333 121.821 91.212 121.821 90.804C121.821 90.58 121.773 90.392 121.677 90.24C121.584 90.088 121.423 89.956 121.193 89.844C120.967 89.732 120.655 89.6253 120.257 89.524C119.919 89.4387 119.657 89.36 119.473 89.288C119.292 89.216 119.167 89.14 119.097 89.06C119.028 88.9773 118.993 88.8787 118.993 88.764C118.993 88.5587 119.089 88.3947 119.281 88.272C119.473 88.1493 119.723 88.0907 120.029 88.096C120.355 88.1013 120.623 88.1787 120.833 88.328C121.044 88.4747 121.171 88.6747 121.213 88.928L121.813 88.82C121.784 88.5693 121.691 88.3493 121.533 88.16C121.376 87.9707 121.168 87.824 120.909 87.72C120.653 87.6133 120.363 87.56 120.037 87.56C119.712 87.56 119.425 87.612 119.177 87.716C118.932 87.8173 118.74 87.9613 118.601 88.148C118.465 88.332 118.397 88.5467 118.397 88.792C118.397 88.992 118.443 89.1627 118.533 89.304C118.627 89.4427 118.785 89.5667 119.009 89.676C119.233 89.7827 119.54 89.8893 119.929 89.996C120.295 90.0947 120.568 90.18 120.749 90.252C120.933 90.324 121.056 90.4027 121.117 90.488C121.179 90.5707 121.209 90.6787 121.209 90.812C121.209 91.0467 121.115 91.2333 120.925 91.372C120.736 91.5107 120.477 91.58 120.149 91.58C119.813 91.58 119.531 91.508 119.301 91.364C119.072 91.2173 118.927 91.0213 118.865 90.776L118.265 90.876C118.34 91.2653 118.54 91.5693 118.865 91.788C119.193 92.0067 119.611 92.116 120.117 92.116ZM122.82 92H123.504V91.316H122.82V92ZM126.532 92.12C126.961 92.12 127.329 92.02 127.636 91.82C127.945 91.6173 128.181 91.324 128.344 90.94L127.752 90.764C127.533 91.292 127.126 91.556 126.532 91.556C126.068 91.556 125.718 91.4 125.484 91.088C125.249 90.7733 125.129 90.3573 125.124 89.84C125.129 89.336 125.245 88.924 125.472 88.604C125.701 88.284 126.054 88.124 126.532 88.124C126.814 88.124 127.065 88.196 127.284 88.34C127.505 88.4813 127.666 88.6813 127.768 88.94L128.344 88.756C128.224 88.3853 128.001 88.0933 127.676 87.88C127.353 87.6667 126.973 87.56 126.536 87.56C126.106 87.56 125.741 87.656 125.44 87.848C125.138 88.0373 124.908 88.304 124.748 88.648C124.588 88.9893 124.505 89.3867 124.5 89.84C124.505 90.2827 124.585 90.676 124.74 91.02C124.897 91.364 125.126 91.6333 125.428 91.828C125.729 92.0227 126.097 92.12 126.532 92.12ZM130.856 92.12C131.283 92.12 131.648 92.024 131.952 91.832C132.259 91.64 132.494 91.3733 132.656 91.032C132.822 90.688 132.904 90.2893 132.904 89.836C132.904 89.3907 132.823 88.9973 132.66 88.656C132.5 88.312 132.267 88.044 131.96 87.852C131.656 87.6573 131.288 87.56 130.856 87.56C130.435 87.56 130.071 87.656 129.764 87.848C129.46 88.0373 129.226 88.3027 129.06 88.644C128.895 88.9853 128.812 89.3827 128.812 89.836C128.812 90.2813 128.892 90.676 129.052 91.02C129.215 91.364 129.448 91.6333 129.752 91.828C130.059 92.0227 130.427 92.12 130.856 92.12ZM130.856 91.556C130.39 91.556 130.036 91.4 129.796 91.088C129.556 90.7733 129.436 90.356 129.436 89.836C129.436 89.332 129.552 88.9213 129.784 88.604C130.016 88.284 130.374 88.124 130.856 88.124C131.334 88.124 131.69 88.28 131.924 88.592C132.162 88.9013 132.28 89.316 132.28 89.836C132.28 90.3453 132.163 90.76 131.928 91.08C131.694 91.3973 131.336 91.556 130.856 91.556ZM133.783 92H134.375V89.212C134.375 88.8733 134.467 88.6027 134.651 88.4C134.835 88.1947 135.076 88.092 135.375 88.092C135.673 88.092 135.913 88.192 136.095 88.392C136.279 88.5893 136.371 88.86 136.371 89.204L136.367 92H136.947L136.951 89.212C136.951 88.9427 137 88.7267 137.099 88.564C137.2 88.3987 137.328 88.2787 137.483 88.204C137.637 88.1293 137.796 88.092 137.959 88.092C138.244 88.092 138.479 88.188 138.663 88.38C138.849 88.5693 138.943 88.8307 138.943 89.164L138.939 92H139.527L139.531 89.052C139.531 88.596 139.4 88.2347 139.139 87.968C138.88 87.6987 138.532 87.564 138.095 87.564C137.807 87.564 137.548 87.6293 137.319 87.76C137.089 87.888 136.912 88.0653 136.787 88.292C136.669 88.0547 136.5 87.8747 136.279 87.752C136.06 87.6267 135.809 87.564 135.527 87.564C135.271 87.564 135.037 87.616 134.827 87.72C134.616 87.8213 134.444 87.96 134.311 88.136V87.68H133.783V92Z" fill="black"/>
<rect x="20.1" y="10.1" width="175.8" height="103.8" rx="3.9" stroke="#F0F0F0" stroke-width="0.2"/>
</g>
<defs>
<filter id="filter0_ddd" x="0" y="0" width="216" height="144" filterUnits="userSpaceOnUse" color-interpolation-filters="sRGB">
<feFlood flood-opacity="0" result="BackgroundImageFix"/>
<feColorMatrix in="SourceAlpha" type="matrix" values="0 0 0 0 0 0 0 0 0 0 0 0 0 0 0 0 0 0 127 0"/>
<feOffset/>
<feGaussianBlur stdDeviation="0.5"/>
<feColorMatrix type="matrix" values="0 0 0 0 0 0 0 0 0 0 0 0 0 0 0 0 0 0 0.04 0"/>
<feBlend mode="normal" in2="BackgroundImageFix" result="effect1_dropShadow"/>
<feColorMatrix in="SourceAlpha" type="matrix" values="0 0 0 0 0 0 0 0 0 0 0 0 0 0 0 0 0 0 127 0"/>
<feOffset dy="2"/>
<feGaussianBlur stdDeviation="3"/>
<feColorMatrix type="matrix" values="0 0 0 0 0 0 0 0 0 0 0 0 0 0 0 0 0 0 0.04 0"/>
<feBlend mode="normal" in2="effect1_dropShadow" result="effect2_dropShadow"/>
<feColorMatrix in="SourceAlpha" type="matrix" values="0 0 0 0 0 0 0 0 0 0 0 0 0 0 0 0 0 0 127 0"/>
<feOffset dy="10"/>
<feGaussianBlur stdDeviation="10"/>
<feColorMatrix type="matrix" values="0 0 0 0 0 0 0 0 0 0 0 0 0 0 0 0 0 0 0.04 0"/>
<feBlend mode="normal" in2="effect2_dropShadow" result="effect3_dropShadow"/>
<feBlend mode="normal" in="SourceGraphic" in2="effect3_dropShadow" result="shape"/>
</filter>
</defs>
</svg>
