<svg width="216" height="225" viewBox="0 0 216 225" fill="none" xmlns="http://www.w3.org/2000/svg">
<rect x="90.5" y="99.5" width="125" height="125" stroke="#BCBCBC" stroke-dasharray="4 4"/>
<g filter="url(#filter0_ddd)">
<rect x="20" y="10" width="176" height="177" rx="4" fill="white"/>
<g clip-path="url(#clip0)">
<rect x="34" y="41" width="148" height="21" rx="4" fill="#464646" fill-opacity="0.06"/>
<path d="M42.556 55H43.148V52.696C43.148 52.208 43.2573 51.8253 43.476 51.548C43.6947 51.2707 44.012 51.132 44.428 51.132C44.7293 51.132 44.972 51.2053 45.156 51.352C45.34 51.496 45.4733 51.6933 45.556 51.944C45.6387 52.1947 45.68 52.4787 45.68 52.796V55H46.272V52.624C46.272 52.3813 46.2413 52.1387 46.18 51.896C46.1213 51.6533 46.0253 51.432 45.892 51.232C45.7587 51.032 45.5813 50.872 45.36 50.752C45.1387 50.632 44.8653 50.572 44.54 50.572C44.2307 50.572 43.9507 50.632 43.7 50.752C43.452 50.8693 43.248 51.0453 43.088 51.28V49.24H42.556V55ZM49.662 55V54.484C49.3527 54.5347 49.0927 54.5427 48.882 54.508C48.674 54.4733 48.522 54.3667 48.426 54.188C48.3753 54.0947 48.3473 53.988 48.342 53.868C48.3393 53.7453 48.338 53.5933 48.338 53.412V51.184H49.662V50.68H48.338V49.48H47.754V50.68H46.83V51.184H47.754V53.436C47.754 53.6467 47.7567 53.8347 47.762 54C47.77 54.1653 47.8127 54.3267 47.89 54.484C47.986 54.676 48.126 54.8173 48.31 54.908C48.4967 54.9987 48.7073 55.0493 48.942 55.06C49.1793 55.0707 49.4193 55.0507 49.662 55ZM52.386 55V54.484C52.0767 54.5347 51.8167 54.5427 51.606 54.508C51.398 54.4733 51.246 54.3667 51.15 54.188C51.0993 54.0947 51.0713 53.988 51.066 53.868C51.0633 53.7453 51.062 53.5933 51.062 53.412V51.184H52.386V50.68H51.062V49.48H50.478V50.68H49.554V51.184H50.478V53.436C50.478 53.6467 50.4807 53.8347 50.486 54C50.494 54.1653 50.5367 54.3267 50.614 54.484C50.71 54.676 50.85 54.8173 51.034 54.908C51.2207 54.9987 51.4313 55.0493 51.666 55.06C51.9033 55.0707 52.1433 55.0507 52.386 55ZM53.2357 56.92H53.8277V54.484C53.9824 54.6813 54.173 54.8373 54.3997 54.952C54.6264 55.064 54.8864 55.12 55.1797 55.12C55.585 55.12 55.9304 55.02 56.2157 54.82C56.501 54.6173 56.7184 54.344 56.8677 54C57.0197 53.656 57.0957 53.268 57.0957 52.836C57.0957 52.4067 57.0197 52.02 56.8677 51.676C56.7184 51.332 56.5024 51.06 56.2197 50.86C55.937 50.66 55.5984 50.56 55.2037 50.56C54.8837 50.56 54.6024 50.624 54.3597 50.752C54.1197 50.8773 53.921 51.052 53.7637 51.276V50.68H53.2357V56.92ZM55.1197 54.572C54.813 54.572 54.5597 54.4973 54.3597 54.348C54.1597 54.196 54.0104 53.9893 53.9117 53.728C53.813 53.4667 53.7637 53.1693 53.7637 52.836C53.7637 52.3267 53.8744 51.912 54.0957 51.592C54.3197 51.2693 54.657 51.108 55.1077 51.108C55.417 51.108 55.6717 51.184 55.8717 51.336C56.0744 51.488 56.225 51.6947 56.3237 51.956C56.4224 52.2173 56.4717 52.5107 56.4717 52.836C56.4717 53.164 56.421 53.4587 56.3197 53.72C56.221 53.9813 56.0717 54.1893 55.8717 54.344C55.6717 54.496 55.421 54.572 55.1197 54.572ZM59.547 55.116C60.0777 55.116 60.4937 55 60.795 54.768C61.099 54.5333 61.251 54.212 61.251 53.804C61.251 53.58 61.203 53.392 61.107 53.24C61.0137 53.088 60.8523 52.956 60.623 52.844C60.3963 52.732 60.0843 52.6253 59.687 52.524C59.3483 52.4387 59.087 52.36 58.903 52.288C58.7217 52.216 58.5963 52.14 58.527 52.06C58.4577 51.9773 58.423 51.8787 58.423 51.764C58.423 51.5587 58.519 51.3947 58.711 51.272C58.903 51.1493 59.1523 51.0907 59.459 51.096C59.7843 51.1013 60.0523 51.1787 60.263 51.328C60.4737 51.4747 60.6003 51.6747 60.643 51.928L61.243 51.82C61.2137 51.5693 61.1203 51.3493 60.963 51.16C60.8057 50.9707 60.5977 50.824 60.339 50.72C60.083 50.6133 59.7923 50.56 59.467 50.56C59.1417 50.56 58.855 50.612 58.607 50.716C58.3617 50.8173 58.1697 50.9613 58.031 51.148C57.895 51.332 57.827 51.5467 57.827 51.792C57.827 51.992 57.8723 52.1627 57.963 52.304C58.0563 52.4427 58.215 52.5667 58.439 52.676C58.663 52.7827 58.9697 52.8893 59.359 52.996C59.7243 53.0947 59.9977 53.18 60.179 53.252C60.363 53.324 60.4857 53.4027 60.547 53.488C60.6083 53.5707 60.639 53.6787 60.639 53.812C60.639 54.0467 60.5443 54.2333 60.355 54.372C60.1657 54.5107 59.907 54.58 59.579 54.58C59.243 54.58 58.9603 54.508 58.731 54.364C58.5017 54.2173 58.3563 54.0213 58.295 53.776L57.695 53.876C57.7697 54.2653 57.9697 54.5693 58.295 54.788C58.623 55.0067 59.0403 55.116 59.547 55.116ZM62.4581 54.36H63.1421V53.676H62.4581V54.36ZM62.4621 52.004H63.1461V51.32H62.4621V52.004ZM65.3441 49.24H65.9481L64.4121 55H63.8081L65.3441 49.24ZM67.3285 49.24H67.9325L66.3965 55H65.7925L67.3285 49.24ZM69.9679 55.12C70.7225 55.12 71.2705 54.8413 71.6119 54.284V55H72.1359V52.316C72.1359 52.156 72.1279 51.9987 72.1119 51.844C72.0959 51.6893 72.0612 51.5493 72.0079 51.424C71.8932 51.144 71.6972 50.9307 71.4199 50.784C71.1452 50.6347 70.8105 50.56 70.4159 50.56C69.9412 50.56 69.5545 50.6667 69.2559 50.88C68.9572 51.0933 68.7572 51.3933 68.6559 51.78L69.2279 51.948C69.3105 51.66 69.4532 51.4493 69.6559 51.316C69.8612 51.1827 70.1119 51.116 70.4079 51.116C70.8185 51.116 71.1119 51.212 71.2879 51.404C71.4639 51.5933 71.5545 51.8827 71.5599 52.272C71.3679 52.2987 71.1559 52.3267 70.9239 52.356C70.6945 52.3853 70.4639 52.4187 70.2319 52.456C69.9999 52.4933 69.7865 52.536 69.5919 52.584C69.2692 52.6693 69.0052 52.812 68.7999 53.012C68.5945 53.2093 68.4919 53.4853 68.4919 53.84C68.4919 54.0693 68.5465 54.2813 68.6559 54.476C68.7652 54.6707 68.9292 54.8267 69.1479 54.944C69.3692 55.0613 69.6425 55.12 69.9679 55.12ZM70.0359 54.612C69.8039 54.612 69.6172 54.5747 69.4759 54.5C69.3372 54.4227 69.2359 54.3253 69.1719 54.208C69.1105 54.088 69.0799 53.9653 69.0799 53.84C69.0799 53.6053 69.1585 53.4293 69.3159 53.312C69.4732 53.1947 69.6439 53.1093 69.8279 53.056C70.0652 52.992 70.3412 52.94 70.6559 52.9C70.9705 52.86 71.2692 52.8227 71.5519 52.788C71.5519 52.8867 71.5479 53 71.5399 53.128C71.5345 53.2533 71.5199 53.3693 71.4959 53.476C71.4399 53.8013 71.2852 54.072 71.0319 54.288C70.7812 54.504 70.4492 54.612 70.0359 54.612ZM73.1732 56.92H73.7652V54.484C73.9199 54.6813 74.1105 54.8373 74.3372 54.952C74.5639 55.064 74.8239 55.12 75.1172 55.12C75.5225 55.12 75.8679 55.02 76.1532 54.82C76.4385 54.6173 76.6559 54.344 76.8052 54C76.9572 53.656 77.0332 53.268 77.0332 52.836C77.0332 52.4067 76.9572 52.02 76.8052 51.676C76.6559 51.332 76.4399 51.06 76.1572 50.86C75.8745 50.66 75.5359 50.56 75.1412 50.56C74.8212 50.56 74.5399 50.624 74.2972 50.752C74.0572 50.8773 73.8585 51.052 73.7012 51.276V50.68H73.1732V56.92ZM75.0572 54.572C74.7505 54.572 74.4972 54.4973 74.2972 54.348C74.0972 54.196 73.9479 53.9893 73.8492 53.728C73.7505 53.4667 73.7012 53.1693 73.7012 52.836C73.7012 52.3267 73.8119 51.912 74.0332 51.592C74.2572 51.2693 74.5945 51.108 75.0452 51.108C75.3545 51.108 75.6092 51.184 75.8092 51.336C76.0119 51.488 76.1625 51.6947 76.2612 51.956C76.3599 52.2173 76.4092 52.5107 76.4092 52.836C76.4092 53.164 76.3585 53.4587 76.2572 53.72C76.1585 53.9813 76.0092 54.1893 75.8092 54.344C75.6092 54.496 75.3585 54.572 75.0572 54.572ZM77.9916 49.86H78.5796V49.2H77.9916V49.86ZM77.9916 55H78.5796V50.68H77.9916V55ZM79.8908 55H80.5748V54.316H79.8908V55ZM82.238 55H82.826V51.184H84.006V50.68H82.826V50.296C82.826 49.8427 83.0487 49.616 83.494 49.616H84.006V49.12H83.454C83.2887 49.12 83.122 49.1373 82.954 49.172C82.786 49.2067 82.6367 49.2947 82.506 49.436C82.3887 49.564 82.314 49.7093 82.282 49.872C82.2527 50.032 82.238 50.1947 82.238 50.36V50.68H81.49V51.184H82.238V55ZM86.2937 55.12C86.7204 55.12 87.0857 55.024 87.3897 54.832C87.6964 54.64 87.931 54.3733 88.0937 54.032C88.259 53.688 88.3417 53.2893 88.3417 52.836C88.3417 52.3907 88.2604 51.9973 88.0977 51.656C87.9377 51.312 87.7044 51.044 87.3977 50.852C87.0937 50.6573 86.7257 50.56 86.2937 50.56C85.8724 50.56 85.5084 50.656 85.2017 50.848C84.8977 51.0373 84.663 51.3027 84.4977 51.644C84.3324 51.9853 84.2497 52.3827 84.2497 52.836C84.2497 53.2813 84.3297 53.676 84.4897 54.02C84.6524 54.364 84.8857 54.6333 85.1897 54.828C85.4964 55.0227 85.8644 55.12 86.2937 55.12ZM86.2937 54.556C85.827 54.556 85.4737 54.4 85.2337 54.088C84.9937 53.7733 84.8737 53.356 84.8737 52.836C84.8737 52.332 84.9897 51.9213 85.2217 51.604C85.4537 51.284 85.811 51.124 86.2937 51.124C86.771 51.124 87.127 51.28 87.3617 51.592C87.599 51.9013 87.7177 52.316 87.7177 52.836C87.7177 53.3453 87.6004 53.76 87.3657 54.08C87.131 54.3973 86.7737 54.556 86.2937 54.556ZM89.2201 55H89.8121V52.696C89.8121 52.208 89.9214 51.8253 90.1401 51.548C90.3587 51.2707 90.6761 51.132 91.0921 51.132C91.3934 51.132 91.6361 51.2053 91.8201 51.352C92.0041 51.496 92.1374 51.6933 92.2201 51.944C92.3027 52.1947 92.3441 52.4787 92.3441 52.796V55H92.9361V52.624C92.9361 52.3813 92.9054 52.1387 92.8441 51.896C92.7854 51.6533 92.6894 51.432 92.5561 51.232C92.4227 51.032 92.2454 50.872 92.0241 50.752C91.8027 50.632 91.5294 50.572 91.2041 50.572C90.8947 50.572 90.6147 50.632 90.3641 50.752C90.1161 50.8693 89.9121 51.0453 89.7521 51.28V50.68H89.2201V55ZM96.3261 55V54.484C96.0167 54.5347 95.7567 54.5427 95.5461 54.508C95.3381 54.4733 95.1861 54.3667 95.0901 54.188C95.0394 54.0947 95.0114 53.988 95.0061 53.868C95.0034 53.7453 95.0021 53.5933 95.0021 53.412V51.184H96.3261V50.68H95.0021V49.48H94.4181V50.68H93.4941V51.184H94.4181V53.436C94.4181 53.6467 94.4207 53.8347 94.4261 54C94.4341 54.1653 94.4767 54.3267 94.5541 54.484C94.6501 54.676 94.7901 54.8173 94.9741 54.908C95.1607 54.9987 95.3714 55.0493 95.6061 55.06C95.8434 55.0707 96.0834 55.0507 96.3261 55ZM97.1732 55H97.7692V52.92L99.8892 55H100.745L98.4572 52.84L100.481 50.68H99.6972L97.7692 52.76V49.24H97.1772L97.1732 55ZM101.226 49.86H101.814V49.2H101.226V49.86ZM101.226 55H101.814V50.68H101.226V55ZM105.365 55V54.484C105.056 54.5347 104.796 54.5427 104.585 54.508C104.377 54.4733 104.225 54.3667 104.129 54.188C104.078 54.0947 104.05 53.988 104.045 53.868C104.042 53.7453 104.041 53.5933 104.041 53.412V51.184H105.365V50.68H104.041V49.48H103.457V50.68H102.533V51.184H103.457V53.436C103.457 53.6467 103.46 53.8347 103.465 54C103.473 54.1653 103.516 54.3267 103.593 54.484C103.689 54.676 103.829 54.8173 104.013 54.908C104.2 54.9987 104.41 55.0493 104.645 55.06C104.882 55.0707 105.122 55.0507 105.365 55ZM106.328 55H107.012V54.316H106.328V55ZM108.244 55H108.836V52.696C108.836 52.208 108.945 51.8253 109.164 51.548C109.382 51.2707 109.7 51.132 110.116 51.132C110.417 51.132 110.66 51.2053 110.844 51.352C111.028 51.496 111.161 51.6933 111.244 51.944C111.326 52.1947 111.368 52.4787 111.368 52.796V55H111.96V52.624C111.96 52.3813 111.929 52.1387 111.868 51.896C111.809 51.6533 111.713 51.432 111.58 51.232C111.446 51.032 111.269 50.872 111.048 50.752C110.826 50.632 110.553 50.572 110.228 50.572C109.918 50.572 109.638 50.632 109.388 50.752C109.14 50.8693 108.936 51.0453 108.776 51.28V50.68H108.244V55ZM114.794 55.12C115.213 55.12 115.588 55.0173 115.918 54.812C116.252 54.6067 116.504 54.3147 116.674 53.936L116.126 53.724C115.852 54.2787 115.4 54.556 114.77 54.556C114.338 54.556 114 54.4213 113.754 54.152C113.512 53.8827 113.378 53.5 113.354 53.004H116.758C116.78 52.2413 116.613 51.644 116.258 51.212C115.906 50.7773 115.41 50.56 114.77 50.56C114.354 50.56 113.993 50.6533 113.686 50.84C113.382 51.0267 113.146 51.292 112.978 51.636C112.81 51.98 112.726 52.388 112.726 52.86C112.726 53.316 112.81 53.7133 112.978 54.052C113.149 54.3907 113.389 54.6533 113.698 54.84C114.01 55.0267 114.376 55.12 114.794 55.12ZM114.786 51.1C115.6 51.1 116.052 51.5707 116.142 52.512H113.366C113.412 52.056 113.556 51.7067 113.798 51.464C114.041 51.2213 114.37 51.1 114.786 51.1ZM119.998 55V54.484C119.689 54.5347 119.429 54.5427 119.218 54.508C119.01 54.4733 118.858 54.3667 118.762 54.188C118.711 54.0947 118.683 53.988 118.678 53.868C118.675 53.7453 118.674 53.5933 118.674 53.412V51.184H119.998V50.68H118.674V49.48H118.09V50.68H117.166V51.184H118.09V53.436C118.09 53.6467 118.093 53.8347 118.098 54C118.106 54.1653 118.149 54.3267 118.226 54.484C118.322 54.676 118.462 54.8173 118.646 54.908C118.833 54.9987 119.043 55.0493 119.278 55.06C119.515 55.0707 119.755 55.0507 119.998 55ZM122.305 49.24H122.909L121.373 55H120.769L122.305 49.24ZM125.344 55.12C125.774 55.12 126.142 55.02 126.448 54.82C126.758 54.6173 126.994 54.324 127.156 53.94L126.564 53.764C126.346 54.292 125.939 54.556 125.344 54.556C124.88 54.556 124.531 54.4 124.296 54.088C124.062 53.7733 123.942 53.3573 123.936 52.84C123.942 52.336 124.058 51.924 124.284 51.604C124.514 51.284 124.867 51.124 125.344 51.124C125.627 51.124 125.878 51.196 126.096 51.34C126.318 51.4813 126.479 51.6813 126.58 51.94L127.156 51.756C127.036 51.3853 126.814 51.0933 126.488 50.88C126.166 50.6667 125.786 50.56 125.348 50.56C124.919 50.56 124.554 50.656 124.252 50.848C123.951 51.0373 123.72 51.304 123.56 51.648C123.4 51.9893 123.318 52.3867 123.312 52.84C123.318 53.2827 123.398 53.676 123.552 54.02C123.71 54.364 123.939 54.6333 124.24 54.828C124.542 55.0227 124.91 55.12 125.344 55.12ZM129.669 55.12C130.095 55.12 130.461 55.024 130.765 54.832C131.071 54.64 131.306 54.3733 131.469 54.032C131.634 53.688 131.717 53.2893 131.717 52.836C131.717 52.3907 131.635 51.9973 131.473 51.656C131.313 51.312 131.079 51.044 130.773 50.852C130.469 50.6573 130.101 50.56 129.669 50.56C129.247 50.56 128.883 50.656 128.577 50.848C128.273 51.0373 128.038 51.3027 127.873 51.644C127.707 51.9853 127.625 52.3827 127.625 52.836C127.625 53.2813 127.705 53.676 127.865 54.02C128.027 54.364 128.261 54.6333 128.565 54.828C128.871 55.0227 129.239 55.12 129.669 55.12ZM129.669 54.556C129.202 54.556 128.849 54.4 128.609 54.088C128.369 53.7733 128.249 53.356 128.249 52.836C128.249 52.332 128.365 51.9213 128.597 51.604C128.829 51.284 129.186 51.124 129.669 51.124C130.146 51.124 130.502 51.28 130.737 51.592C130.974 51.9013 131.093 52.316 131.093 52.836C131.093 53.3453 130.975 53.76 130.741 54.08C130.506 54.3973 130.149 54.556 129.669 54.556ZM132.679 55H133.267V49.12H132.679V55ZM134.546 55H135.134V49.12H134.546V55ZM137.789 49.24H138.393L136.857 55H136.253L137.789 49.24ZM140.805 55.116C141.335 55.116 141.751 55 142.053 54.768C142.357 54.5333 142.509 54.212 142.509 53.804C142.509 53.58 142.461 53.392 142.365 53.24C142.271 53.088 142.11 52.956 141.881 52.844C141.654 52.732 141.342 52.6253 140.945 52.524C140.606 52.4387 140.345 52.36 140.161 52.288C139.979 52.216 139.854 52.14 139.785 52.06C139.715 51.9773 139.681 51.8787 139.681 51.764C139.681 51.5587 139.777 51.3947 139.969 51.272C140.161 51.1493 140.41 51.0907 140.717 51.096C141.042 51.1013 141.31 51.1787 141.521 51.328C141.731 51.4747 141.858 51.6747 141.901 51.928L142.501 51.82C142.471 51.5693 142.378 51.3493 142.221 51.16C142.063 50.9707 141.855 50.824 141.597 50.72C141.341 50.6133 141.05 50.56 140.725 50.56C140.399 50.56 140.113 50.612 139.865 50.716C139.619 50.8173 139.427 50.9613 139.289 51.148C139.153 51.332 139.085 51.5467 139.085 51.792C139.085 51.992 139.13 52.1627 139.221 52.304C139.314 52.4427 139.473 52.5667 139.697 52.676C139.921 52.7827 140.227 52.8893 140.617 52.996C140.982 53.0947 141.255 53.18 141.437 53.252C141.621 53.324 141.743 53.4027 141.805 53.488C141.866 53.5707 141.897 53.6787 141.897 53.812C141.897 54.0467 141.802 54.2333 141.613 54.372C141.423 54.5107 141.165 54.58 140.837 54.58C140.501 54.58 140.218 54.508 139.989 54.364C139.759 54.2173 139.614 54.0213 139.553 53.776L138.953 53.876C139.027 54.2653 139.227 54.5693 139.553 54.788C139.881 55.0067 140.298 55.116 140.805 55.116ZM143.392 55H143.984V52.696C143.984 52.208 144.093 51.8253 144.312 51.548C144.531 51.2707 144.848 51.132 145.264 51.132C145.565 51.132 145.808 51.2053 145.992 51.352C146.176 51.496 146.309 51.6933 146.392 51.944C146.475 52.1947 146.516 52.4787 146.516 52.796V55H147.108V52.624C147.108 52.3813 147.077 52.1387 147.016 51.896C146.957 51.6533 146.861 51.432 146.728 51.232C146.595 51.032 146.417 50.872 146.196 50.752C145.975 50.632 145.701 50.572 145.376 50.572C145.067 50.572 144.787 50.632 144.536 50.752C144.288 50.8693 144.084 51.0453 143.924 51.28V49.24H143.392V55ZM149.974 55.12C150.393 55.12 150.767 55.0173 151.098 54.812C151.431 54.6067 151.683 54.3147 151.854 53.936L151.306 53.724C151.031 54.2787 150.579 54.556 149.95 54.556C149.518 54.556 149.179 54.4213 148.934 54.152C148.691 53.8827 148.558 53.5 148.534 53.004H151.938C151.959 52.2413 151.793 51.644 151.438 51.212C151.086 50.7773 150.59 50.56 149.95 50.56C149.534 50.56 149.173 50.6533 148.866 50.84C148.562 51.0267 148.326 51.292 148.158 51.636C147.99 51.98 147.906 52.388 147.906 52.86C147.906 53.316 147.99 53.7133 148.158 54.052C148.329 54.3907 148.569 54.6533 148.878 54.84C149.19 55.0267 149.555 55.12 149.974 55.12ZM149.966 51.1C150.779 51.1 151.231 51.5707 151.322 52.512H148.546C148.591 52.056 148.735 51.7067 148.978 51.464C149.221 51.2213 149.55 51.1 149.966 51.1ZM154.654 55.12C155.072 55.12 155.447 55.0173 155.778 54.812C156.111 54.6067 156.363 54.3147 156.534 53.936L155.986 53.724C155.711 54.2787 155.259 54.556 154.63 54.556C154.198 54.556 153.859 54.4213 153.614 54.152C153.371 53.8827 153.238 53.5 153.214 53.004H156.618C156.639 52.2413 156.472 51.644 156.118 51.212C155.766 50.7773 155.27 50.56 154.63 50.56C154.214 50.56 153.852 50.6533 153.546 50.84C153.242 51.0267 153.006 51.292 152.838 51.636C152.67 51.98 152.586 52.388 152.586 52.86C152.586 53.316 152.67 53.7133 152.838 54.052C153.008 54.3907 153.248 54.6533 153.558 54.84C153.87 55.0267 154.235 55.12 154.654 55.12ZM154.646 51.1C155.459 51.1 155.911 51.5707 156.002 52.512H153.226C153.271 52.056 153.415 51.7067 153.658 51.464C153.9 51.2213 154.23 51.1 154.646 51.1ZM159.857 55V54.484C159.548 54.5347 159.288 54.5427 159.077 54.508C158.869 54.4733 158.717 54.3667 158.621 54.188C158.571 54.0947 158.543 53.988 158.537 53.868C158.535 53.7453 158.533 53.5933 158.533 53.412V51.184H159.857V50.68H158.533V49.48H157.949V50.68H157.025V51.184H157.949V53.436C157.949 53.6467 157.952 53.8347 157.957 54C157.965 54.1653 158.008 54.3267 158.085 54.484C158.181 54.676 158.321 54.8173 158.505 54.908C158.692 54.9987 158.903 55.0493 159.137 55.06C159.375 55.0707 159.615 55.0507 159.857 55ZM161.836 53.428H162.46C162.46 53.2547 162.463 53.1107 162.468 52.996C162.474 52.8787 162.512 52.756 162.584 52.628C162.643 52.5213 162.724 52.4253 162.828 52.34C162.932 52.252 163.042 52.1653 163.156 52.08C163.271 51.9947 163.374 51.9027 163.464 51.804C163.614 51.652 163.73 51.4787 163.812 51.284C163.895 51.0867 163.936 50.8787 163.936 50.66C163.936 50.4627 163.906 50.2773 163.844 50.104C163.783 49.9307 163.69 49.7747 163.564 49.636C163.404 49.4547 163.207 49.324 162.972 49.244C162.738 49.164 162.49 49.124 162.228 49.124C162.015 49.124 161.803 49.1573 161.592 49.224C161.384 49.2907 161.202 49.3947 161.044 49.536C160.887 49.672 160.767 49.84 160.684 50.04C160.604 50.24 160.559 50.4467 160.548 50.66H161.156C161.154 50.5267 161.174 50.4 161.216 50.28C161.259 50.16 161.326 50.0573 161.416 49.972C161.51 49.876 161.627 49.8053 161.768 49.76C161.912 49.712 162.067 49.688 162.232 49.688C162.398 49.688 162.558 49.7133 162.712 49.764C162.87 49.812 163.002 49.9 163.108 50.028C163.244 50.18 163.312 50.3933 163.312 50.668C163.312 50.804 163.294 50.9347 163.256 51.06C163.222 51.1827 163.154 51.3027 163.052 51.42C162.938 51.5427 162.816 51.6493 162.688 51.74C162.56 51.828 162.438 51.9227 162.32 52.024C162.203 52.1227 162.104 52.248 162.024 52.4C161.939 52.56 161.886 52.72 161.864 52.88C161.846 53.0373 161.836 53.22 161.836 53.428ZM161.84 55H162.46V54.216H161.84V55ZM166.132 55.12C166.887 55.12 167.435 54.8413 167.776 54.284V55H168.3V52.316C168.3 52.156 168.292 51.9987 168.276 51.844C168.26 51.6893 168.225 51.5493 168.172 51.424C168.057 51.144 167.861 50.9307 167.584 50.784C167.309 50.6347 166.975 50.56 166.58 50.56C166.105 50.56 165.719 50.6667 165.42 50.88C165.121 51.0933 164.921 51.3933 164.82 51.78L165.392 51.948C165.475 51.66 165.617 51.4493 165.82 51.316C166.025 51.1827 166.276 51.116 166.572 51.116C166.983 51.116 167.276 51.212 167.452 51.404C167.628 51.5933 167.719 51.8827 167.724 52.272C167.532 52.2987 167.32 52.3267 167.088 52.356C166.859 52.3853 166.628 52.4187 166.396 52.456C166.164 52.4933 165.951 52.536 165.756 52.584C165.433 52.6693 165.169 52.812 164.964 53.012C164.759 53.2093 164.656 53.4853 164.656 53.84C164.656 54.0693 164.711 54.2813 164.82 54.476C164.929 54.6707 165.093 54.8267 165.312 54.944C165.533 55.0613 165.807 55.12 166.132 55.12ZM166.2 54.612C165.968 54.612 165.781 54.5747 165.64 54.5C165.501 54.4227 165.4 54.3253 165.336 54.208C165.275 54.088 165.244 53.9653 165.244 53.84C165.244 53.6053 165.323 53.4293 165.48 53.312C165.637 53.1947 165.808 53.1093 165.992 53.056C166.229 52.992 166.505 52.94 166.82 52.9C167.135 52.86 167.433 52.8227 167.716 52.788C167.716 52.8867 167.712 53 167.704 53.128C167.699 53.2533 167.684 53.3693 167.66 53.476C167.604 53.8013 167.449 54.072 167.196 54.288C166.945 54.504 166.613 54.612 166.2 54.612ZM171.017 55.12C171.332 55.12 171.608 55.056 171.845 54.928C172.083 54.7973 172.279 54.62 172.433 54.396V55H172.961V49.24H172.369V51.188C172.212 50.9907 172.017 50.8373 171.785 50.728C171.556 50.616 171.292 50.56 170.993 50.56C170.599 50.56 170.26 50.66 169.977 50.86C169.695 51.06 169.477 51.332 169.325 51.676C169.176 52.02 169.101 52.4067 169.101 52.836C169.101 53.268 169.176 53.656 169.325 54C169.477 54.344 169.696 54.6173 169.981 54.82C170.269 55.02 170.615 55.12 171.017 55.12ZM171.077 54.572C170.779 54.572 170.528 54.496 170.325 54.344C170.125 54.1893 169.975 53.9813 169.873 53.72C169.775 53.4587 169.725 53.164 169.725 52.836C169.725 52.5107 169.775 52.2173 169.873 51.956C169.972 51.6947 170.121 51.488 170.321 51.336C170.524 51.184 170.78 51.108 171.089 51.108C171.54 51.108 171.876 51.2693 172.097 51.592C172.321 51.912 172.433 52.3267 172.433 52.836C172.433 53.1693 172.384 53.4667 172.285 53.728C172.187 53.9893 172.037 54.196 171.837 54.348C171.637 54.4973 171.384 54.572 171.077 54.572ZM175.759 55.12C176.074 55.12 176.35 55.056 176.587 54.928C176.825 54.7973 177.021 54.62 177.175 54.396V55H177.703V49.24H177.111V51.188C176.954 50.9907 176.759 50.8373 176.527 50.728C176.298 50.616 176.034 50.56 175.735 50.56C175.341 50.56 175.002 50.66 174.719 50.86C174.437 51.06 174.219 51.332 174.067 51.676C173.918 52.02 173.843 52.4067 173.843 52.836C173.843 53.268 173.918 53.656 174.067 54C174.219 54.344 174.438 54.6173 174.723 54.82C175.011 55.02 175.357 55.12 175.759 55.12ZM175.819 54.572C175.521 54.572 175.27 54.496 175.067 54.344C174.867 54.1893 174.717 53.9813 174.615 53.72C174.517 53.4587 174.467 53.164 174.467 52.836C174.467 52.5107 174.517 52.2173 174.615 51.956C174.714 51.6947 174.863 51.488 175.063 51.336C175.266 51.184 175.522 51.108 175.831 51.108C176.282 51.108 176.618 51.2693 176.839 51.592C177.063 51.912 177.175 52.3267 177.175 52.836C177.175 53.1693 177.126 53.4667 177.027 53.728C176.929 53.9893 176.779 54.196 176.579 54.348C176.379 54.4973 176.126 54.572 175.819 54.572ZM178.826 55H179.414V52.844C179.414 52.5853 179.443 52.328 179.502 52.072C179.563 51.8133 179.702 51.5987 179.918 51.428C180.075 51.3 180.246 51.2267 180.43 51.208C180.616 51.1867 180.79 51.1947 180.95 51.232V50.68C180.76 50.632 180.546 50.6307 180.306 50.676C180.066 50.7187 179.86 50.8147 179.69 50.964C179.562 51.06 179.45 51.1933 179.354 51.364V50.68H178.826V55ZM183.458 55.12C183.877 55.12 184.252 55.0173 184.582 54.812C184.916 54.6067 185.168 54.3147 185.338 53.936L184.79 53.724C184.516 54.2787 184.064 54.556 183.434 54.556C183.002 54.556 182.664 54.4213 182.418 54.152C182.176 53.8827 182.042 53.5 182.018 53.004H185.422C185.444 52.2413 185.277 51.644 184.922 51.212C184.57 50.7773 184.074 50.56 183.434 50.56C183.018 50.56 182.657 50.6533 182.35 50.84C182.046 51.0267 181.81 51.292 181.642 51.636C181.474 51.98 181.39 52.388 181.39 52.86C181.39 53.316 181.474 53.7133 181.642 54.052C181.813 54.3907 182.053 54.6533 182.362 54.84C182.674 55.0267 183.04 55.12 183.458 55.12ZM183.45 51.1C184.264 51.1 184.716 51.5707 184.806 52.512H182.03C182.076 52.056 182.22 51.7067 182.462 51.464C182.705 51.2213 183.034 51.1 183.45 51.1Z" fill="#464646" fill-opacity="0.6"/>
<rect x="154" y="39" width="28" height="23" fill="#2453CC"/>
<path d="M161.352 54.12C161.781 54.12 162.149 54.02 162.456 53.82C162.765 53.6173 163.001 53.324 163.164 52.94L162.572 52.764C162.353 53.292 161.947 53.556 161.352 53.556C160.888 53.556 160.539 53.4 160.304 53.088C160.069 52.7733 159.949 52.3573 159.944 51.84C159.949 51.336 160.065 50.924 160.292 50.604C160.521 50.284 160.875 50.124 161.352 50.124C161.635 50.124 161.885 50.196 162.104 50.34C162.325 50.4813 162.487 50.6813 162.588 50.94L163.164 50.756C163.044 50.3853 162.821 50.0933 162.496 49.88C162.173 49.6667 161.793 49.56 161.356 49.56C160.927 49.56 160.561 49.656 160.26 49.848C159.959 50.0373 159.728 50.304 159.568 50.648C159.408 50.9893 159.325 51.3867 159.32 51.84C159.325 52.2827 159.405 52.676 159.56 53.02C159.717 53.364 159.947 53.6333 160.248 53.828C160.549 54.0227 160.917 54.12 161.352 54.12ZM165.677 54.12C166.103 54.12 166.469 54.024 166.773 53.832C167.079 53.64 167.314 53.3733 167.477 53.032C167.642 52.688 167.725 52.2893 167.725 51.836C167.725 51.3907 167.643 50.9973 167.481 50.656C167.321 50.312 167.087 50.044 166.781 49.852C166.477 49.6573 166.109 49.56 165.677 49.56C165.255 49.56 164.891 49.656 164.585 49.848C164.281 50.0373 164.046 50.3027 163.881 50.644C163.715 50.9853 163.633 51.3827 163.633 51.836C163.633 52.2813 163.713 52.676 163.873 53.02C164.035 53.364 164.269 53.6333 164.573 53.828C164.879 54.0227 165.247 54.12 165.677 54.12ZM165.677 53.556C165.21 53.556 164.857 53.4 164.617 53.088C164.377 52.7733 164.257 52.356 164.257 51.836C164.257 51.332 164.373 50.9213 164.605 50.604C164.837 50.284 165.194 50.124 165.677 50.124C166.154 50.124 166.51 50.28 166.745 50.592C166.982 50.9013 167.101 51.316 167.101 51.836C167.101 52.3453 166.983 52.76 166.749 53.08C166.514 53.3973 166.157 53.556 165.677 53.556ZM168.603 55.92H169.195V53.484C169.35 53.6813 169.54 53.8373 169.767 53.952C169.994 54.064 170.254 54.12 170.547 54.12C170.952 54.12 171.298 54.02 171.583 53.82C171.868 53.6173 172.086 53.344 172.235 53C172.387 52.656 172.463 52.268 172.463 51.836C172.463 51.4067 172.387 51.02 172.235 50.676C172.086 50.332 171.87 50.06 171.587 49.86C171.304 49.66 170.966 49.56 170.571 49.56C170.251 49.56 169.97 49.624 169.727 49.752C169.487 49.8773 169.288 50.052 169.131 50.276V49.68H168.603V55.92ZM170.487 53.572C170.18 53.572 169.927 53.4973 169.727 53.348C169.527 53.196 169.378 52.9893 169.279 52.728C169.18 52.4667 169.131 52.1693 169.131 51.836C169.131 51.3267 169.242 50.912 169.463 50.592C169.687 50.2693 170.024 50.108 170.475 50.108C170.784 50.108 171.039 50.184 171.239 50.336C171.442 50.488 171.592 50.6947 171.691 50.956C171.79 51.2173 171.839 51.5107 171.839 51.836C171.839 52.164 171.788 52.4587 171.687 52.72C171.588 52.9813 171.439 53.1893 171.239 53.344C171.039 53.496 170.788 53.572 170.487 53.572ZM173.801 55.92H174.389L176.709 49.68H176.109L174.801 53.232L173.381 49.68H172.757L174.513 53.988L173.801 55.92Z" fill="white"/>
</g>
<rect x="34" y="148" width="148" height="21" rx="4" fill="#464646" fill-opacity="0.06"/>
<path d="M161.352 161.12C161.781 161.12 162.149 161.02 162.456 160.82C162.765 160.617 163.001 160.324 163.164 159.94L162.572 159.764C162.353 160.292 161.947 160.556 161.352 160.556C160.888 160.556 160.539 160.4 160.304 160.088C160.069 159.773 159.949 159.357 159.944 158.84C159.949 158.336 160.065 157.924 160.292 157.604C160.521 157.284 160.875 157.124 161.352 157.124C161.635 157.124 161.885 157.196 162.104 157.34C162.325 157.481 162.487 157.681 162.588 157.94L163.164 157.756C163.044 157.385 162.821 157.093 162.496 156.88C162.173 156.667 161.793 156.56 161.356 156.56C160.927 156.56 160.561 156.656 160.26 156.848C159.959 157.037 159.728 157.304 159.568 157.648C159.408 157.989 159.325 158.387 159.32 158.84C159.325 159.283 159.405 159.676 159.56 160.02C159.717 160.364 159.947 160.633 160.248 160.828C160.549 161.023 160.917 161.12 161.352 161.12ZM165.677 161.12C166.103 161.12 166.469 161.024 166.773 160.832C167.079 160.64 167.314 160.373 167.477 160.032C167.642 159.688 167.725 159.289 167.725 158.836C167.725 158.391 167.643 157.997 167.481 157.656C167.321 157.312 167.087 157.044 166.781 156.852C166.477 156.657 166.109 156.56 165.677 156.56C165.255 156.56 164.891 156.656 164.585 156.848C164.281 157.037 164.046 157.303 163.881 157.644C163.715 157.985 163.633 158.383 163.633 158.836C163.633 159.281 163.713 159.676 163.873 160.02C164.035 160.364 164.269 160.633 164.573 160.828C164.879 161.023 165.247 161.12 165.677 161.12ZM165.677 160.556C165.21 160.556 164.857 160.4 164.617 160.088C164.377 159.773 164.257 159.356 164.257 158.836C164.257 158.332 164.373 157.921 164.605 157.604C164.837 157.284 165.194 157.124 165.677 157.124C166.154 157.124 166.51 157.28 166.745 157.592C166.982 157.901 167.101 158.316 167.101 158.836C167.101 159.345 166.983 159.76 166.749 160.08C166.514 160.397 166.157 160.556 165.677 160.556ZM168.603 162.92H169.195V160.484C169.35 160.681 169.54 160.837 169.767 160.952C169.994 161.064 170.254 161.12 170.547 161.12C170.952 161.12 171.298 161.02 171.583 160.82C171.868 160.617 172.086 160.344 172.235 160C172.387 159.656 172.463 159.268 172.463 158.836C172.463 158.407 172.387 158.02 172.235 157.676C172.086 157.332 171.87 157.06 171.587 156.86C171.304 156.66 170.966 156.56 170.571 156.56C170.251 156.56 169.97 156.624 169.727 156.752C169.487 156.877 169.288 157.052 169.131 157.276V156.68H168.603V162.92ZM170.487 160.572C170.18 160.572 169.927 160.497 169.727 160.348C169.527 160.196 169.378 159.989 169.279 159.728C169.18 159.467 169.131 159.169 169.131 158.836C169.131 158.327 169.242 157.912 169.463 157.592C169.687 157.269 170.024 157.108 170.475 157.108C170.784 157.108 171.039 157.184 171.239 157.336C171.442 157.488 171.592 157.695 171.691 157.956C171.79 158.217 171.839 158.511 171.839 158.836C171.839 159.164 171.788 159.459 171.687 159.72C171.588 159.981 171.439 160.189 171.239 160.344C171.039 160.496 170.788 160.572 170.487 160.572ZM173.801 162.92H174.389L176.709 156.68H176.109L174.801 160.232L173.381 156.68H172.757L174.513 160.988L173.801 162.92Z" fill="white"/>
<path d="M37.7 35H38.905V32H41.435V30.8H38.905V29.005H42.035V27.8H37.7V35ZM45.1729 35.15C45.7129 35.15 46.1846 35.03 46.5879 34.79C46.9912 34.5467 47.3046 34.2117 47.5279 33.785C47.7546 33.355 47.8679 32.86 47.8679 32.3C47.8679 31.7433 47.7562 31.2517 47.5329 30.825C47.3096 30.395 46.9962 30.0583 46.5929 29.815C46.1896 29.5717 45.7162 29.45 45.1729 29.45C44.6429 29.45 44.1762 29.57 43.7729 29.81C43.3696 30.05 43.0546 30.3833 42.8279 30.81C42.6012 31.2367 42.4879 31.7333 42.4879 32.3C42.4879 32.8567 42.5979 33.35 42.8179 33.78C43.0412 34.2067 43.3546 34.5417 43.7579 34.785C44.1612 35.0283 44.6329 35.15 45.1729 35.15ZM45.1729 34.02C44.7096 34.02 44.3579 33.865 44.1179 33.555C43.8812 33.2417 43.7629 32.8233 43.7629 32.3C43.7629 31.79 43.8762 31.3767 44.1029 31.06C44.3329 30.74 44.6896 30.58 45.1729 30.58C45.6462 30.58 46.0012 30.7367 46.2379 31.05C46.4746 31.36 46.5929 31.7767 46.5929 32.3C46.5929 32.8067 46.4746 33.22 46.2379 33.54C46.0046 33.86 45.6496 34.02 45.1729 34.02ZM48.9595 35H50.1795V32.225C50.1795 31.7883 50.2412 31.4517 50.3645 31.215C50.4912 30.975 50.6512 30.81 50.8445 30.72C51.0412 30.6267 51.2412 30.58 51.4445 30.58C51.7312 30.58 51.9595 30.6433 52.1295 30.77C52.2995 30.8933 52.4245 31.0517 52.5045 31.245C52.5879 31.435 52.6412 31.6333 52.6645 31.84C52.6912 32.0467 52.7045 32.2333 52.7045 32.4V35H53.9245V31.985C53.9245 31.8583 53.9129 31.69 53.8895 31.48C53.8695 31.27 53.8229 31.0483 53.7495 30.815C53.6762 30.5817 53.5629 30.3617 53.4095 30.155C53.2562 29.945 53.0479 29.775 52.7845 29.645C52.5245 29.5117 52.1962 29.445 51.7995 29.445C51.4095 29.445 51.0662 29.5133 50.7695 29.65C50.4762 29.7833 50.2312 29.9667 50.0345 30.2V29.6H48.9595V35ZM58.3943 35V33.99C58.0576 34.04 57.7576 34.0533 57.4943 34.03C57.231 34.0067 57.0393 33.895 56.9193 33.695C56.856 33.5917 56.821 33.4583 56.8143 33.295C56.811 33.1283 56.8093 32.9383 56.8093 32.725V30.545H58.3943V29.6H56.8093V28.1H55.6093V29.6H54.6293V30.545H55.6093V32.795C55.6093 33.105 55.6126 33.3817 55.6193 33.625C55.626 33.865 55.691 34.1017 55.8143 34.335C55.9543 34.5917 56.1593 34.78 56.4293 34.9C56.6993 35.0167 57.0043 35.0783 57.3443 35.085C57.6876 35.095 58.0376 35.0667 58.3943 35ZM59.5455 35H60.7755V32.4L62.8405 35H64.4355L62.1605 32.3L64.2555 29.6H62.7505L60.7755 32.2V27.8H59.5555L59.5455 35ZM65.0363 28.78H66.2413V27.675H65.0363V28.78ZM65.0363 35H66.2413V29.6H65.0363V35ZM70.9041 35V33.99C70.5674 34.04 70.2674 34.0533 70.0041 34.03C69.7407 34.0067 69.5491 33.895 69.4291 33.695C69.3657 33.5917 69.3307 33.4583 69.3241 33.295C69.3207 33.1283 69.3191 32.9383 69.3191 32.725V30.545H70.9041V29.6H69.3191V28.1H68.1191V29.6H67.1391V30.545H68.1191V32.795C68.1191 33.105 68.1224 33.3817 68.1291 33.625C68.1357 33.865 68.2007 34.1017 68.3241 34.335C68.4641 34.5917 68.6691 34.78 68.9391 34.9C69.2091 35.0167 69.5141 35.0783 69.8541 35.085C70.1974 35.095 70.5474 35.0667 70.9041 35ZM72.2652 35H73.5002V33.765H72.2652V35ZM75.0923 35H76.3123V32.225C76.3123 31.7883 76.374 31.4517 76.4973 31.215C76.624 30.975 76.784 30.81 76.9773 30.72C77.174 30.6267 77.374 30.58 77.5773 30.58C77.864 30.58 78.0923 30.6433 78.2623 30.77C78.4323 30.8933 78.5573 31.0517 78.6373 31.245C78.7207 31.435 78.774 31.6333 78.7973 31.84C78.824 32.0467 78.8373 32.2333 78.8373 32.4V35H80.0573V31.985C80.0573 31.8583 80.0457 31.69 80.0223 31.48C80.0023 31.27 79.9557 31.0483 79.8823 30.815C79.809 30.5817 79.6957 30.3617 79.5423 30.155C79.389 29.945 79.1807 29.775 78.9173 29.645C78.6573 29.5117 78.329 29.445 77.9323 29.445C77.5423 29.445 77.199 29.5133 76.9023 29.65C76.609 29.7833 76.364 29.9667 76.1673 30.2V29.6H75.0923V35ZM83.7292 35.15C84.2492 35.15 84.7242 35.0167 85.1542 34.75C85.5876 34.48 85.9076 34.1 86.1142 33.61L84.9242 33.25C84.6842 33.7633 84.2626 34.02 83.6592 34.02C83.2492 34.02 82.9259 33.9017 82.6892 33.665C82.4526 33.425 82.3109 33.0817 82.2642 32.635H86.1742C86.2209 31.985 86.1492 31.4217 85.9592 30.945C85.7692 30.4683 85.4776 30.1 85.0842 29.84C84.6942 29.58 84.2192 29.45 83.6592 29.45C83.1292 29.45 82.6626 29.57 82.2592 29.81C81.8559 30.0467 81.5409 30.3833 81.3142 30.82C81.0876 31.2567 80.9742 31.77 80.9742 32.36C80.9742 32.9067 81.0892 33.39 81.3192 33.81C81.5526 34.23 81.8759 34.5583 82.2892 34.795C82.7026 35.0317 83.1826 35.15 83.7292 35.15ZM83.7092 30.505C84.0826 30.505 84.3692 30.6033 84.5692 30.8C84.7726 30.9933 84.9009 31.3017 84.9542 31.725H82.2942C82.4376 30.9117 82.9092 30.505 83.7092 30.505ZM90.4548 35V33.99C90.1182 34.04 89.8182 34.0533 89.5548 34.03C89.2915 34.0067 89.0998 33.895 88.9798 33.695C88.9165 33.5917 88.8815 33.4583 88.8748 33.295C88.8715 33.1283 88.8698 32.9383 88.8698 32.725V30.545H90.4548V29.6H88.8698V28.1H87.6698V29.6H86.6898V30.545H87.6698V32.795C87.6698 33.105 87.6732 33.3817 87.6798 33.625C87.6865 33.865 87.7515 34.1017 87.8748 34.335C88.0148 34.5917 88.2198 34.78 88.4898 34.9C88.7598 35.0167 89.0648 35.0783 89.4048 35.085C89.7482 35.095 90.0982 35.0667 90.4548 35ZM96.663 35.15C97.4896 35.15 98.1796 34.9433 98.733 34.53C99.2896 34.1133 99.6796 33.5533 99.903 32.85L98.688 32.515C98.548 32.9817 98.3096 33.3483 97.973 33.615C97.6363 33.8817 97.1996 34.015 96.663 34.015C95.9396 34.015 95.3946 33.7767 95.028 33.3C94.6646 32.82 94.483 32.1867 94.483 31.4C94.4863 30.6133 94.6696 29.9817 95.033 29.505C95.3963 29.025 95.9396 28.785 96.663 28.785C97.1996 28.785 97.6363 28.9183 97.973 29.185C98.3096 29.4517 98.548 29.8183 98.688 30.285L99.903 29.95C99.6796 29.2433 99.2896 28.6833 98.733 28.27C98.1796 27.8567 97.4896 27.65 96.663 27.65C95.9463 27.65 95.3296 27.8083 94.813 28.125C94.2996 28.4383 93.9046 28.8767 93.628 29.44C93.3546 30 93.218 30.6533 93.218 31.4C93.218 32.1433 93.3546 32.7967 93.628 33.36C93.9046 33.9233 94.2996 34.3633 94.813 34.68C95.3296 34.9933 95.9463 35.15 96.663 35.15ZM103.386 35.15C103.926 35.15 104.397 35.03 104.801 34.79C105.204 34.5467 105.517 34.2117 105.741 33.785C105.967 33.355 106.081 32.86 106.081 32.3C106.081 31.7433 105.969 31.2517 105.746 30.825C105.522 30.395 105.209 30.0583 104.806 29.815C104.402 29.5717 103.929 29.45 103.386 29.45C102.856 29.45 102.389 29.57 101.986 29.81C101.582 30.05 101.267 30.3833 101.041 30.81C100.814 31.2367 100.701 31.7333 100.701 32.3C100.701 32.8567 100.811 33.35 101.031 33.78C101.254 34.2067 101.567 34.5417 101.971 34.785C102.374 35.0283 102.846 35.15 103.386 35.15ZM103.386 34.02C102.922 34.02 102.571 33.865 102.331 33.555C102.094 33.2417 101.976 32.8233 101.976 32.3C101.976 31.79 102.089 31.3767 102.316 31.06C102.546 30.74 102.902 30.58 103.386 30.58C103.859 30.58 104.214 30.7367 104.451 31.05C104.687 31.36 104.806 31.7767 104.806 32.3C104.806 32.8067 104.687 33.22 104.451 33.54C104.217 33.86 103.862 34.02 103.386 34.02ZM107.282 35H108.487V27.65H107.282V35ZM110.085 35H111.29V27.65H110.085V35ZM115.243 35.15C115.763 35.15 116.238 35.0167 116.668 34.75C117.101 34.48 117.421 34.1 117.628 33.61L116.438 33.25C116.198 33.7633 115.776 34.02 115.173 34.02C114.763 34.02 114.44 33.9017 114.203 33.665C113.966 33.425 113.825 33.0817 113.778 32.635H117.688C117.735 31.985 117.663 31.4217 117.473 30.945C117.283 30.4683 116.991 30.1 116.598 29.84C116.208 29.58 115.733 29.45 115.173 29.45C114.643 29.45 114.176 29.57 113.773 29.81C113.37 30.0467 113.055 30.3833 112.828 30.82C112.601 31.2567 112.488 31.77 112.488 32.36C112.488 32.9067 112.603 33.39 112.833 33.81C113.066 34.23 113.39 34.5583 113.803 34.795C114.216 35.0317 114.696 35.15 115.243 35.15ZM115.223 30.505C115.596 30.505 115.883 30.6033 116.083 30.8C116.286 30.9933 116.415 31.3017 116.468 31.725H113.808C113.951 30.9117 114.423 30.505 115.223 30.505ZM121.149 35.15C121.752 35.15 122.262 35.0033 122.679 34.71C123.095 34.4133 123.387 33.99 123.554 33.44L122.324 33.165C122.23 33.4417 122.09 33.6533 121.904 33.8C121.72 33.9467 121.469 34.02 121.149 34.02C120.695 34.02 120.354 33.8617 120.124 33.545C119.897 33.2283 119.782 32.8133 119.779 32.3C119.782 31.8033 119.892 31.3933 120.109 31.07C120.329 30.7433 120.675 30.58 121.149 30.58C121.425 30.58 121.672 30.6617 121.889 30.825C122.105 30.985 122.26 31.21 122.354 31.5L123.554 31.175C123.427 30.6417 123.15 30.2217 122.724 29.915C122.297 29.605 121.777 29.45 121.164 29.45C120.617 29.45 120.145 29.5733 119.749 29.82C119.352 30.0633 119.045 30.4 118.829 30.83C118.615 31.2567 118.507 31.7467 118.504 32.3C118.507 32.8433 118.612 33.33 118.819 33.76C119.029 34.19 119.33 34.53 119.724 34.78C120.117 35.0267 120.592 35.15 121.149 35.15ZM127.72 35V33.99C127.384 34.04 127.084 34.0533 126.82 34.03C126.557 34.0067 126.365 33.895 126.245 33.695C126.182 33.5917 126.147 33.4583 126.14 33.295C126.137 33.1283 126.135 32.9383 126.135 32.725V30.545H127.72V29.6H126.135V28.1H124.935V29.6H123.955V30.545H124.935V32.795C124.935 33.105 124.939 33.3817 124.945 33.625C124.952 33.865 125.017 34.1017 125.14 34.335C125.28 34.5917 125.485 34.78 125.755 34.9C126.025 35.0167 126.33 35.0783 126.67 35.085C127.014 35.095 127.364 35.0667 127.72 35ZM128.982 28.78H130.187V27.675H128.982V28.78ZM128.982 35H130.187V29.6H128.982V35ZM134.069 35.15C134.609 35.15 135.081 35.03 135.484 34.79C135.888 34.5467 136.201 34.2117 136.424 33.785C136.651 33.355 136.764 32.86 136.764 32.3C136.764 31.7433 136.653 31.2517 136.429 30.825C136.206 30.395 135.893 30.0583 135.489 29.815C135.086 29.5717 134.613 29.45 134.069 29.45C133.539 29.45 133.073 29.57 132.669 29.81C132.266 30.05 131.951 30.3833 131.724 30.81C131.498 31.2367 131.384 31.7333 131.384 32.3C131.384 32.8567 131.494 33.35 131.714 33.78C131.938 34.2067 132.251 34.5417 132.654 34.785C133.058 35.0283 133.529 35.15 134.069 35.15ZM134.069 34.02C133.606 34.02 133.254 33.865 133.014 33.555C132.778 33.2417 132.659 32.8233 132.659 32.3C132.659 31.79 132.773 31.3767 132.999 31.06C133.229 30.74 133.586 30.58 134.069 30.58C134.543 30.58 134.898 30.7367 135.134 31.05C135.371 31.36 135.489 31.7767 135.489 32.3C135.489 32.8067 135.371 33.22 135.134 33.54C134.901 33.86 134.546 34.02 134.069 34.02ZM137.856 35H139.076V32.225C139.076 31.7883 139.138 31.4517 139.261 31.215C139.388 30.975 139.548 30.81 139.741 30.72C139.938 30.6267 140.138 30.58 140.341 30.58C140.628 30.58 140.856 30.6433 141.026 30.77C141.196 30.8933 141.321 31.0517 141.401 31.245C141.484 31.435 141.538 31.6333 141.561 31.84C141.588 32.0467 141.601 32.2333 141.601 32.4V35H142.821V31.985C142.821 31.8583 142.809 31.69 142.786 31.48C142.766 31.27 142.719 31.0483 142.646 30.815C142.573 30.5817 142.459 30.3617 142.306 30.155C142.153 29.945 141.944 29.775 141.681 29.645C141.421 29.5117 141.093 29.445 140.696 29.445C140.306 29.445 139.963 29.5133 139.666 29.65C139.373 29.7833 139.128 29.9667 138.931 30.2V29.6H137.856V35Z" fill="black"/>
<path d="M37.42 81H38.143V79.2H39.661V78.48H38.143V77.403H40.021V76.68H37.42V81ZM42.3876 81.09C42.8196 81.09 43.1896 80.996 43.4976 80.808C43.8076 80.618 44.0446 80.354 44.2086 80.016C44.3746 79.678 44.4576 79.286 44.4576 78.84C44.4576 78.392 44.3746 78 44.2086 77.664C44.0446 77.326 43.8076 77.063 43.4976 76.875C43.1896 76.685 42.8196 76.59 42.3876 76.59C41.9576 76.59 41.5876 76.685 41.2776 76.875C40.9696 77.063 40.7326 77.326 40.5666 77.664C40.4026 78 40.3206 78.392 40.3206 78.84C40.3206 79.286 40.4026 79.678 40.5666 80.016C40.7326 80.354 40.9696 80.618 41.2776 80.808C41.5876 80.996 41.9576 81.09 42.3876 81.09ZM42.3876 80.409C41.9536 80.403 41.6276 80.258 41.4096 79.974C41.1916 79.69 41.0836 79.312 41.0856 78.84C41.0876 78.524 41.1366 78.248 41.2326 78.012C41.3286 77.776 41.4726 77.593 41.6646 77.463C41.8566 77.331 42.0976 77.267 42.3876 77.271C42.8236 77.277 43.1496 77.422 43.3656 77.706C43.5836 77.99 43.6926 78.368 43.6926 78.84C43.6926 79.154 43.6436 79.43 43.5456 79.668C43.4496 79.904 43.3046 80.087 43.1106 80.217C42.9186 80.347 42.6776 80.411 42.3876 80.409ZM45.0548 81H45.7868V77.955L47.7908 81H48.5228V76.68H47.7908V79.725L45.7868 76.68H45.0548V81ZM50.3994 81H51.1224V77.358H52.5204V76.68H49.0014V77.358H50.3994V81ZM54.5991 81.09C54.8951 81.09 55.1721 81.04 55.4301 80.94C55.6881 80.84 55.8961 80.69 56.0541 80.49C56.2141 80.29 56.2941 80.041 56.2941 79.743C56.2941 79.529 56.2541 79.352 56.1741 79.212C56.0961 79.07 55.9951 78.956 55.8711 78.87C55.7491 78.784 55.6221 78.717 55.4901 78.669C55.3601 78.621 55.2421 78.583 55.1361 78.555L54.3621 78.339C54.2661 78.313 54.1701 78.281 54.0741 78.243C53.9781 78.203 53.8981 78.15 53.8341 78.084C53.7701 78.016 53.7381 77.929 53.7381 77.823C53.7381 77.711 53.7751 77.613 53.8491 77.529C53.9251 77.445 54.0241 77.38 54.1461 77.334C54.2701 77.288 54.4041 77.267 54.5481 77.271C54.7701 77.277 54.9701 77.342 55.1481 77.466C55.3261 77.59 55.4381 77.766 55.4841 77.994L56.2611 77.859C56.1651 77.459 55.9681 77.15 55.6701 76.932C55.3721 76.712 55.0011 76.6 54.5571 76.596C54.2651 76.594 53.9991 76.641 53.7591 76.737C53.5211 76.831 53.3311 76.972 53.1891 77.16C53.0491 77.348 52.9791 77.581 52.9791 77.859C52.9791 78.049 53.0101 78.209 53.0721 78.339C53.1361 78.467 53.2171 78.572 53.3151 78.654C53.4151 78.736 53.5201 78.801 53.6301 78.849C53.7421 78.897 53.8461 78.935 53.9421 78.963L55.0581 79.293C55.3781 79.389 55.5381 79.555 55.5381 79.791C55.5381 79.923 55.4951 80.036 55.4091 80.13C55.3251 80.222 55.2151 80.292 55.0791 80.34C54.9431 80.388 54.7981 80.412 54.6441 80.412C54.3841 80.412 54.1541 80.342 53.9541 80.202C53.7561 80.062 53.6251 79.864 53.5611 79.608L52.8111 79.722C52.8571 80.004 52.9611 80.248 53.1231 80.454C53.2871 80.658 53.4951 80.815 53.7471 80.925C54.0011 81.035 54.2851 81.09 54.5991 81.09Z" fill="black"/>
<path d="M37.12 143H37.864L38.158 142.064H39.862L40.159 143H40.903L39.541 138.68H38.482L37.12 143ZM38.371 141.389L39.004 139.379L39.646 141.389H38.371ZM43.0682 143.09C43.4122 143.09 43.7142 143.02 43.9742 142.88C44.2362 142.74 44.4402 142.543 44.5862 142.289C44.7342 142.035 44.8082 141.737 44.8082 141.395V138.68H44.0762V141.377C44.0762 141.591 44.0292 141.775 43.9352 141.929C43.8432 142.083 43.7202 142.202 43.5662 142.286C43.4142 142.368 43.2482 142.409 43.0682 142.409C42.8942 142.409 42.7302 142.368 42.5762 142.286C42.4222 142.204 42.2972 142.086 42.2012 141.932C42.1072 141.778 42.0602 141.593 42.0602 141.377V138.68L41.3282 138.686V141.395C41.3282 141.737 41.4012 142.035 41.5472 142.289C41.6952 142.543 41.9002 142.74 42.1622 142.88C42.4242 143.02 42.7262 143.09 43.0682 143.09ZM46.6846 143H47.4076V139.358H48.8056V138.68H45.2866V139.358H46.6846V143ZM49.2852 143H50.0082V141.176H52.0542V143H52.7742V138.68H52.0542V140.498H50.0082V138.68H49.2852V143ZM55.4423 143.09C55.8743 143.09 56.2443 142.996 56.5523 142.808C56.8623 142.618 57.0993 142.354 57.2633 142.016C57.4293 141.678 57.5123 141.286 57.5123 140.84C57.5123 140.392 57.4293 140 57.2633 139.664C57.0993 139.326 56.8623 139.063 56.5523 138.875C56.2443 138.685 55.8743 138.59 55.4423 138.59C55.0123 138.59 54.6423 138.685 54.3323 138.875C54.0243 139.063 53.7873 139.326 53.6213 139.664C53.4573 140 53.3753 140.392 53.3753 140.84C53.3753 141.286 53.4573 141.678 53.6213 142.016C53.7873 142.354 54.0243 142.618 54.3323 142.808C54.6423 142.996 55.0123 143.09 55.4423 143.09ZM55.4423 142.409C55.0083 142.403 54.6823 142.258 54.4643 141.974C54.2463 141.69 54.1383 141.312 54.1403 140.84C54.1423 140.524 54.1913 140.248 54.2873 140.012C54.3833 139.776 54.5273 139.593 54.7193 139.463C54.9113 139.331 55.1523 139.267 55.4423 139.271C55.8783 139.277 56.2043 139.422 56.4203 139.706C56.6383 139.99 56.7473 140.368 56.7473 140.84C56.7473 141.154 56.6983 141.43 56.6003 141.668C56.5043 141.904 56.3593 142.087 56.1653 142.217C55.9733 142.347 55.7323 142.411 55.4423 142.409ZM58.1095 143H58.8325V141.491H59.8585L60.5905 143H61.4095L60.6115 141.362C60.8575 141.252 61.0405 141.085 61.1605 140.861C61.2805 140.637 61.3405 140.379 61.3405 140.087C61.3405 139.729 61.2505 139.424 61.0705 139.172C60.8925 138.918 60.6155 138.762 60.2395 138.704C60.1835 138.694 60.1225 138.688 60.0565 138.686C59.9905 138.682 59.9365 138.68 59.8945 138.68H58.1095V143ZM58.8325 140.816V139.358H59.8645C59.9045 139.358 59.9495 139.36 59.9995 139.364C60.0495 139.368 60.0955 139.375 60.1375 139.385C60.2575 139.415 60.3515 139.469 60.4195 139.547C60.4895 139.623 60.5385 139.709 60.5665 139.805C60.5965 139.901 60.6115 139.995 60.6115 140.087C60.6115 140.179 60.5965 140.273 60.5665 140.369C60.5385 140.465 60.4895 140.551 60.4195 140.627C60.3515 140.703 60.2575 140.756 60.1375 140.786C60.0955 140.798 60.0495 140.806 59.9995 140.81C59.9495 140.814 59.9045 140.816 59.8645 140.816H58.8325ZM62.1304 143H62.8534V138.68H62.1304V143ZM63.632 143H66.962V142.319H64.895L67.013 138.782V138.68H63.782V139.358H65.762L63.632 142.901V143ZM67.7305 143H70.5205V142.322H68.4535V141.101H70.1605V140.423H68.4535V139.358H70.5205V138.68H67.7305V143ZM71.2403 143H72.6173C72.6513 143 72.7223 142.999 72.8303 142.997C72.9403 142.995 73.0443 142.988 73.1423 142.976C73.4863 142.932 73.7763 142.811 74.0123 142.613C74.2483 142.413 74.4273 142.159 74.5493 141.851C74.6713 141.543 74.7323 141.206 74.7323 140.84C74.7323 140.474 74.6713 140.137 74.5493 139.829C74.4273 139.521 74.2483 139.267 74.0123 139.067C73.7763 138.867 73.4863 138.746 73.1423 138.704C73.0423 138.692 72.9383 138.685 72.8303 138.683C72.7243 138.681 72.6533 138.68 72.6173 138.68H71.2403V143ZM71.9753 142.319V139.361H72.6173C72.6773 139.361 72.7533 139.363 72.8453 139.367C72.9373 139.369 73.0203 139.378 73.0943 139.394C73.2943 139.432 73.4583 139.521 73.5863 139.661C73.7143 139.801 73.8093 139.974 73.8713 140.18C73.9353 140.384 73.9673 140.604 73.9673 140.84C73.9673 141.066 73.9373 141.282 73.8773 141.488C73.8173 141.694 73.7223 141.869 73.5923 142.013C73.4643 142.155 73.2983 142.246 73.0943 142.286C73.0203 142.3 72.9373 142.309 72.8453 142.313C72.7533 142.317 72.6773 142.319 72.6173 142.319H71.9753ZM78.3827 143.09C78.7267 143.09 79.0287 143.02 79.2887 142.88C79.5507 142.74 79.7547 142.543 79.9007 142.289C80.0487 142.035 80.1227 141.737 80.1227 141.395V138.68H79.3907V141.377C79.3907 141.591 79.3437 141.775 79.2497 141.929C79.1577 142.083 79.0347 142.202 78.8807 142.286C78.7287 142.368 78.5627 142.409 78.3827 142.409C78.2087 142.409 78.0447 142.368 77.8907 142.286C77.7367 142.204 77.6117 142.086 77.5157 141.932C77.4217 141.778 77.3747 141.593 77.3747 141.377V138.68L76.6427 138.686V141.395C76.6427 141.737 76.7157 142.035 76.8617 142.289C77.0097 142.543 77.2147 142.74 77.4767 142.88C77.7387 143.02 78.0407 143.09 78.3827 143.09ZM80.961 143H81.684V141.491H82.71L83.442 143H84.261L83.463 141.362C83.709 141.252 83.892 141.085 84.012 140.861C84.132 140.637 84.192 140.379 84.192 140.087C84.192 139.729 84.102 139.424 83.922 139.172C83.744 138.918 83.467 138.762 83.091 138.704C83.035 138.694 82.974 138.688 82.908 138.686C82.842 138.682 82.788 138.68 82.746 138.68H80.961V143ZM81.684 140.816V139.358H82.716C82.756 139.358 82.801 139.36 82.851 139.364C82.901 139.368 82.947 139.375 82.989 139.385C83.109 139.415 83.203 139.469 83.271 139.547C83.341 139.623 83.39 139.709 83.418 139.805C83.448 139.901 83.463 139.995 83.463 140.087C83.463 140.179 83.448 140.273 83.418 140.369C83.39 140.465 83.341 140.551 83.271 140.627C83.203 140.703 83.109 140.756 82.989 140.786C82.947 140.798 82.901 140.806 82.851 140.81C82.801 140.814 82.756 140.816 82.716 140.816H81.684ZM84.982 143H87.613V142.322H85.705V138.68H84.982V143ZM87.4905 140.216C87.7365 140.256 87.9215 140.209 88.0455 140.075C88.1695 139.941 88.2315 139.743 88.2315 139.481V138.68H87.4905V139.451H87.8745C87.8905 139.587 87.8715 139.699 87.8175 139.787C87.7655 139.875 87.6705 139.914 87.5325 139.904L87.4905 140.216ZM89.8761 143.09C90.2941 143.09 90.6211 142.997 90.8571 142.811C91.0951 142.625 91.2141 142.369 91.2141 142.043C91.2141 141.791 91.1341 141.593 90.9741 141.449C90.8161 141.305 90.5431 141.183 90.1551 141.083C89.9031 141.019 89.7131 140.965 89.5851 140.921C89.4591 140.877 89.3751 140.833 89.3331 140.789C89.2911 140.745 89.2701 140.692 89.2701 140.63C89.2701 140.522 89.3221 140.438 89.4261 140.378C89.5301 140.316 89.6671 140.289 89.8371 140.297C90.0131 140.307 90.1541 140.352 90.2601 140.432C90.3681 140.512 90.4321 140.621 90.4521 140.759L91.1901 140.627C91.1501 140.335 91.0071 140.103 90.7611 139.931C90.5151 139.757 90.2031 139.67 89.8251 139.67C89.4391 139.67 89.1301 139.76 88.8981 139.94C88.6661 140.12 88.5501 140.362 88.5501 140.666C88.5501 140.908 88.6311 141.099 88.7931 141.239C88.9571 141.379 89.2421 141.502 89.6481 141.608C89.8921 141.672 90.0721 141.726 90.1881 141.77C90.3061 141.812 90.3831 141.855 90.4191 141.899C90.4551 141.943 90.4731 142.002 90.4731 142.076C90.4731 142.196 90.4251 142.291 90.3291 142.361C90.2331 142.429 90.0991 142.463 89.9271 142.463C89.7291 142.463 89.5641 142.417 89.4321 142.325C89.3021 142.233 89.2191 142.107 89.1831 141.947L88.4451 142.061C88.4991 142.387 88.6511 142.64 88.9011 142.82C89.1511 143 89.4761 143.09 89.8761 143.09Z" fill="black"/>
<path d="M49.56 98H50.124V93.552L52.172 98H52.552L54.604 93.552V97.996H55.164V92.24H54.616L52.364 97.084L50.1 92.24H49.56V98ZM57.5226 98.12C58.2772 98.12 58.8252 97.8413 59.1666 97.284V98H59.6906V95.316C59.6906 95.156 59.6826 94.9987 59.6666 94.844C59.6506 94.6893 59.6159 94.5493 59.5626 94.424C59.4479 94.144 59.2519 93.9307 58.9746 93.784C58.6999 93.6347 58.3652 93.56 57.9706 93.56C57.4959 93.56 57.1092 93.6667 56.8106 93.88C56.5119 94.0933 56.3119 94.3933 56.2106 94.78L56.7826 94.948C56.8652 94.66 57.0079 94.4493 57.2106 94.316C57.4159 94.1827 57.6666 94.116 57.9626 94.116C58.3732 94.116 58.6666 94.212 58.8426 94.404C59.0186 94.5933 59.1092 94.8827 59.1146 95.272C58.9226 95.2987 58.7106 95.3267 58.4786 95.356C58.2492 95.3853 58.0186 95.4187 57.7866 95.456C57.5546 95.4933 57.3412 95.536 57.1466 95.584C56.8239 95.6693 56.5599 95.812 56.3546 96.012C56.1492 96.2093 56.0466 96.4853 56.0466 96.84C56.0466 97.0693 56.1012 97.2813 56.2106 97.476C56.3199 97.6707 56.4839 97.8267 56.7026 97.944C56.9239 98.0613 57.1972 98.12 57.5226 98.12ZM57.5906 97.612C57.3586 97.612 57.1719 97.5747 57.0306 97.5C56.8919 97.4227 56.7906 97.3253 56.7266 97.208C56.6652 97.088 56.6346 96.9653 56.6346 96.84C56.6346 96.6053 56.7132 96.4293 56.8706 96.312C57.0279 96.1947 57.1986 96.1093 57.3826 96.056C57.6199 95.992 57.8959 95.94 58.2106 95.9C58.5252 95.86 58.8239 95.8227 59.1066 95.788C59.1066 95.8867 59.1026 96 59.0946 96.128C59.0892 96.2533 59.0746 96.3693 59.0506 96.476C58.9946 96.8013 58.8399 97.072 58.5866 97.288C58.3359 97.504 58.0039 97.612 57.5906 97.612ZM60.7279 98H61.3199V95.696C61.3199 95.208 61.4292 94.8253 61.6479 94.548C61.8665 94.2707 62.1839 94.132 62.5999 94.132C62.9012 94.132 63.1439 94.2053 63.3279 94.352C63.5119 94.496 63.6452 94.6933 63.7279 94.944C63.8105 95.1947 63.8519 95.4787 63.8519 95.796V98H64.4439V95.624C64.4439 95.3813 64.4132 95.1387 64.3519 94.896C64.2932 94.6533 64.1972 94.432 64.0639 94.232C63.9305 94.032 63.7532 93.872 63.5319 93.752C63.3105 93.632 63.0372 93.572 62.7119 93.572C62.4025 93.572 62.1225 93.632 61.8719 93.752C61.6239 93.8693 61.4199 94.0453 61.2599 94.28V93.68H60.7279V98ZM65.4819 98H66.0699V95.844C66.0699 95.5853 66.0992 95.328 66.1579 95.072C66.2192 94.8133 66.3579 94.5987 66.5739 94.428C66.7312 94.3 66.9019 94.2267 67.0859 94.208C67.2725 94.1867 67.4459 94.1947 67.6059 94.232V93.68C67.4165 93.632 67.2019 93.6307 66.9619 93.676C66.7219 93.7187 66.5165 93.8147 66.3459 93.964C66.2179 94.06 66.1059 94.1933 66.0099 94.364V93.68H65.4819V98ZM70.0906 98.12C70.5172 98.12 70.8826 98.024 71.1866 97.832C71.4932 97.64 71.7279 97.3733 71.8906 97.032C72.0559 96.688 72.1386 96.2893 72.1386 95.836C72.1386 95.3907 72.0572 94.9973 71.8946 94.656C71.7346 94.312 71.5012 94.044 71.1946 93.852C70.8906 93.6573 70.5226 93.56 70.0906 93.56C69.6692 93.56 69.3052 93.656 68.9986 93.848C68.6946 94.0373 68.4599 94.3027 68.2946 94.644C68.1292 94.9853 68.0466 95.3827 68.0466 95.836C68.0466 96.2813 68.1266 96.676 68.2866 97.02C68.4492 97.364 68.6826 97.6333 68.9866 97.828C69.2932 98.0227 69.6612 98.12 70.0906 98.12ZM70.0906 97.556C69.6239 97.556 69.2706 97.4 69.0306 97.088C68.7906 96.7733 68.6706 96.356 68.6706 95.836C68.6706 95.332 68.7866 94.9213 69.0186 94.604C69.2506 94.284 69.6079 94.124 70.0906 94.124C70.5679 94.124 70.9239 94.28 71.1586 94.592C71.3959 94.9013 71.5146 95.316 71.5146 95.836C71.5146 96.3453 71.3972 96.76 71.1626 97.08C70.9279 97.3973 70.5706 97.556 70.0906 97.556ZM73.0169 99.92H73.6089V97.484C73.7636 97.6813 73.9543 97.8373 74.1809 97.952C74.4076 98.064 74.6676 98.12 74.9609 98.12C75.3663 98.12 75.7116 98.02 75.9969 97.82C76.2823 97.6173 76.4996 97.344 76.6489 97C76.8009 96.656 76.8769 96.268 76.8769 95.836C76.8769 95.4067 76.8009 95.02 76.6489 94.676C76.4996 94.332 76.2836 94.06 76.0009 93.86C75.7183 93.66 75.3796 93.56 74.9849 93.56C74.6649 93.56 74.3836 93.624 74.1409 93.752C73.9009 93.8773 73.7023 94.052 73.5449 94.276V93.68H73.0169V99.92ZM74.9009 97.572C74.5943 97.572 74.3409 97.4973 74.1409 97.348C73.9409 97.196 73.7916 96.9893 73.6929 96.728C73.5943 96.4667 73.5449 96.1693 73.5449 95.836C73.5449 95.3267 73.6556 94.912 73.8769 94.592C74.1009 94.2693 74.4383 94.108 74.8889 94.108C75.1983 94.108 75.4529 94.184 75.6529 94.336C75.8556 94.488 76.0063 94.6947 76.1049 94.956C76.2036 95.2173 76.2529 95.5107 76.2529 95.836C76.2529 96.164 76.2023 96.4587 76.1009 96.72C76.0023 96.9813 75.8529 97.1893 75.6529 97.344C75.4529 97.496 75.2023 97.572 74.9009 97.572ZM79.5833 98.12C80.002 98.12 80.3766 98.0173 80.7073 97.812C81.0406 97.6067 81.2926 97.3147 81.4633 96.936L80.9153 96.724C80.6406 97.2787 80.1886 97.556 79.5593 97.556C79.1273 97.556 78.7886 97.4213 78.5433 97.152C78.3006 96.8827 78.1673 96.5 78.1433 96.004H81.5473C81.5686 95.2413 81.402 94.644 81.0473 94.212C80.6953 93.7773 80.1993 93.56 79.5593 93.56C79.1433 93.56 78.782 93.6533 78.4753 93.84C78.1713 94.0267 77.9353 94.292 77.7673 94.636C77.5993 94.98 77.5153 95.388 77.5153 95.86C77.5153 96.316 77.5993 96.7133 77.7673 97.052C77.938 97.3907 78.178 97.6533 78.4873 97.84C78.7993 98.0267 79.1646 98.12 79.5833 98.12ZM79.5753 94.1C80.3886 94.1 80.8406 94.5707 80.9313 95.512H78.1553C78.2006 95.056 78.3446 94.7067 78.5873 94.464C78.83 94.2213 79.1593 94.1 79.5753 94.1Z" fill="black"/>
<path d="M49.56 118H50.148V115.4H53.332V118H53.916V112.24H53.332V114.836H50.148V112.24H49.56V118ZM56.8646 118.12C57.2832 118.12 57.6579 118.017 57.9886 117.812C58.3219 117.607 58.5739 117.315 58.7446 116.936L58.1966 116.724C57.9219 117.279 57.4699 117.556 56.8406 117.556C56.4086 117.556 56.0699 117.421 55.8246 117.152C55.5819 116.883 55.4486 116.5 55.4246 116.004H58.8286C58.8499 115.241 58.6832 114.644 58.3286 114.212C57.9766 113.777 57.4806 113.56 56.8406 113.56C56.4246 113.56 56.0632 113.653 55.7566 113.84C55.4526 114.027 55.2166 114.292 55.0486 114.636C54.8806 114.98 54.7966 115.388 54.7966 115.86C54.7966 116.316 54.8806 116.713 55.0486 117.052C55.2192 117.391 55.4592 117.653 55.7686 117.84C56.0806 118.027 56.4459 118.12 56.8646 118.12ZM56.8566 114.1C57.6699 114.1 58.1219 114.571 58.2126 115.512H55.4366C55.4819 115.056 55.6259 114.707 55.8686 114.464C56.1112 114.221 56.4406 114.1 56.8566 114.1ZM59.7963 118H60.3843V112.12H59.7963V118ZM62.7514 118H63.3594L64.9274 113.68H64.3234L63.0554 117.232L61.7794 113.68H61.1834L62.7514 118ZM67.3177 118.12C67.7364 118.12 68.111 118.017 68.4417 117.812C68.775 117.607 69.027 117.315 69.1977 116.936L68.6497 116.724C68.375 117.279 67.923 117.556 67.2937 117.556C66.8617 117.556 66.523 117.421 66.2777 117.152C66.035 116.883 65.9017 116.5 65.8777 116.004H69.2817C69.303 115.241 69.1364 114.644 68.7817 114.212C68.4297 113.777 67.9337 113.56 67.2937 113.56C66.8777 113.56 66.5164 113.653 66.2097 113.84C65.9057 114.027 65.6697 114.292 65.5017 114.636C65.3337 114.98 65.2497 115.388 65.2497 115.86C65.2497 116.316 65.3337 116.713 65.5017 117.052C65.6724 117.391 65.9124 117.653 66.2217 117.84C66.5337 118.027 66.899 118.12 67.3177 118.12ZM67.3097 114.1C68.123 114.1 68.575 114.571 68.6657 115.512H65.8897C65.935 115.056 66.079 114.707 66.3217 114.464C66.5644 114.221 66.8937 114.1 67.3097 114.1ZM72.5214 118V117.484C72.212 117.535 71.952 117.543 71.7414 117.508C71.5334 117.473 71.3814 117.367 71.2854 117.188C71.2347 117.095 71.2067 116.988 71.2014 116.868C71.1987 116.745 71.1974 116.593 71.1974 116.412V114.184H72.5214V113.68H71.1974V112.48H70.6134V113.68H69.6894V114.184H70.6134V116.436C70.6134 116.647 70.616 116.835 70.6214 117C70.6294 117.165 70.672 117.327 70.7494 117.484C70.8454 117.676 70.9854 117.817 71.1694 117.908C71.356 117.999 71.5667 118.049 71.8014 118.06C72.0387 118.071 72.2787 118.051 72.5214 118ZM73.4525 112.86H74.0405V112.2H73.4525V112.86ZM73.4525 118H74.0405V113.68H73.4525V118ZM77.0317 118.12C77.461 118.12 77.829 118.02 78.1357 117.82C78.445 117.617 78.681 117.324 78.8437 116.94L78.2517 116.764C78.033 117.292 77.6264 117.556 77.0317 117.556C76.5677 117.556 76.2184 117.4 75.9837 117.088C75.749 116.773 75.629 116.357 75.6237 115.84C75.629 115.336 75.745 114.924 75.9717 114.604C76.201 114.284 76.5544 114.124 77.0317 114.124C77.3144 114.124 77.565 114.196 77.7837 114.34C78.005 114.481 78.1664 114.681 78.2677 114.94L78.8437 114.756C78.7237 114.385 78.501 114.093 78.1757 113.88C77.853 113.667 77.473 113.56 77.0357 113.56C76.6064 113.56 76.241 113.656 75.9397 113.848C75.6384 114.037 75.4077 114.304 75.2477 114.648C75.0877 114.989 75.005 115.387 74.9997 115.84C75.005 116.283 75.085 116.676 75.2397 117.02C75.397 117.364 75.6264 117.633 75.9277 117.828C76.229 118.023 76.597 118.12 77.0317 118.12ZM80.8741 118.12C81.6288 118.12 82.1768 117.841 82.5181 117.284V118H83.0421V115.316C83.0421 115.156 83.0341 114.999 83.0181 114.844C83.0021 114.689 82.9675 114.549 82.9141 114.424C82.7995 114.144 82.6035 113.931 82.3261 113.784C82.0515 113.635 81.7168 113.56 81.3221 113.56C80.8475 113.56 80.4608 113.667 80.1621 113.88C79.8635 114.093 79.6635 114.393 79.5621 114.78L80.1341 114.948C80.2168 114.66 80.3595 114.449 80.5621 114.316C80.7675 114.183 81.0181 114.116 81.3141 114.116C81.7248 114.116 82.0181 114.212 82.1941 114.404C82.3701 114.593 82.4608 114.883 82.4661 115.272C82.2741 115.299 82.0621 115.327 81.8301 115.356C81.6008 115.385 81.3701 115.419 81.1381 115.456C80.9061 115.493 80.6928 115.536 80.4981 115.584C80.1755 115.669 79.9115 115.812 79.7061 116.012C79.5008 116.209 79.3981 116.485 79.3981 116.84C79.3981 117.069 79.4528 117.281 79.5621 117.476C79.6715 117.671 79.8355 117.827 80.0541 117.944C80.2755 118.061 80.5488 118.12 80.8741 118.12ZM80.9421 117.612C80.7101 117.612 80.5235 117.575 80.3821 117.5C80.2435 117.423 80.1421 117.325 80.0781 117.208C80.0168 117.088 79.9861 116.965 79.9861 116.84C79.9861 116.605 80.0648 116.429 80.2221 116.312C80.3795 116.195 80.5501 116.109 80.7341 116.056C80.9715 115.992 81.2475 115.94 81.5621 115.9C81.8768 115.86 82.1755 115.823 82.4581 115.788C82.4581 115.887 82.4541 116 82.4461 116.128C82.4408 116.253 82.4261 116.369 82.4021 116.476C82.3461 116.801 82.1915 117.072 81.9381 117.288C81.6875 117.504 81.3555 117.612 80.9421 117.612Z" fill="black"/>
<path d="M114.108 98.116C114.463 98.116 114.777 98.0373 115.052 97.88C115.329 97.72 115.547 97.5 115.704 97.22C115.864 96.9373 115.944 96.612 115.944 96.244C115.944 95.884 115.871 95.5667 115.724 95.292C115.577 95.0173 115.372 94.804 115.108 94.652C114.844 94.4973 114.537 94.4213 114.188 94.424L115.876 92.812V92.24H112.548V92.804H115.128L113.148 94.632L113.444 95.1C113.543 95.052 113.649 95.0133 113.764 94.984C113.879 94.9547 113.988 94.94 114.092 94.94C114.465 94.94 114.765 95.06 114.992 95.3C115.221 95.5373 115.336 95.852 115.336 96.244C115.336 96.6307 115.225 96.9427 115.004 97.18C114.785 97.4173 114.484 97.54 114.1 97.548C113.825 97.5533 113.577 97.4827 113.356 97.336C113.135 97.1893 112.976 96.9733 112.88 96.688L112.32 96.856C112.443 97.2453 112.664 97.5533 112.984 97.78C113.307 98.004 113.681 98.116 114.108 98.116ZM119.751 98H120.359L121.927 93.68H121.323L120.055 97.232L118.779 93.68H118.183L119.751 98ZM123.64 98.12C124.394 98.12 124.942 97.8413 125.284 97.284V98H125.808V95.316C125.808 95.156 125.8 94.9987 125.784 94.844C125.768 94.6893 125.733 94.5493 125.68 94.424C125.565 94.144 125.369 93.9307 125.092 93.784C124.817 93.6347 124.482 93.56 124.088 93.56C123.613 93.56 123.226 93.6667 122.928 93.88C122.629 94.0933 122.429 94.3933 122.328 94.78L122.9 94.948C122.982 94.66 123.125 94.4493 123.328 94.316C123.533 94.1827 123.784 94.116 124.08 94.116C124.49 94.116 124.784 94.212 124.96 94.404C125.136 94.5933 125.226 94.8827 125.232 95.272C125.04 95.2987 124.828 95.3267 124.596 95.356C124.366 95.3853 124.136 95.4187 123.904 95.456C123.672 95.4933 123.458 95.536 123.264 95.584C122.941 95.6693 122.677 95.812 122.472 96.012C122.266 96.2093 122.164 96.4853 122.164 96.84C122.164 97.0693 122.218 97.2813 122.328 97.476C122.437 97.6707 122.601 97.8267 122.82 97.944C123.041 98.0613 123.314 98.12 123.64 98.12ZM123.708 97.612C123.476 97.612 123.289 97.5747 123.148 97.5C123.009 97.4227 122.908 97.3253 122.844 97.208C122.782 97.088 122.752 96.9653 122.752 96.84C122.752 96.6053 122.83 96.4293 122.988 96.312C123.145 96.1947 123.316 96.1093 123.5 96.056C123.737 95.992 124.013 95.94 124.328 95.9C124.642 95.86 124.941 95.8227 125.224 95.788C125.224 95.8867 125.22 96 125.212 96.128C125.206 96.2533 125.192 96.3693 125.168 96.476C125.112 96.8013 124.957 97.072 124.704 97.288C124.453 97.504 124.121 97.612 123.708 97.612ZM126.849 98H127.437V95.844C127.437 95.5853 127.466 95.328 127.525 95.072C127.586 94.8133 127.725 94.5987 127.941 94.428C128.098 94.3 128.269 94.2267 128.453 94.208C128.64 94.1867 128.813 94.1947 128.973 94.232V93.68C128.784 93.632 128.569 93.6307 128.329 93.676C128.089 93.7187 127.884 93.8147 127.713 93.964C127.585 94.06 127.473 94.1933 127.377 94.364V93.68H126.849V98ZM129.812 92.86H130.4V92.2H129.812V92.86ZM129.812 98H130.4V93.68H129.812V98ZM132.835 98.12C133.59 98.12 134.138 97.8413 134.479 97.284V98H135.003V95.316C135.003 95.156 134.995 94.9987 134.979 94.844C134.963 94.6893 134.928 94.5493 134.875 94.424C134.76 94.144 134.564 93.9307 134.287 93.784C134.012 93.6347 133.678 93.56 133.283 93.56C132.808 93.56 132.422 93.6667 132.123 93.88C131.824 94.0933 131.624 94.3933 131.523 94.78L132.095 94.948C132.178 94.66 132.32 94.4493 132.523 94.316C132.728 94.1827 132.979 94.116 133.275 94.116C133.686 94.116 133.979 94.212 134.155 94.404C134.331 94.5933 134.422 94.8827 134.427 95.272C134.235 95.2987 134.023 95.3267 133.791 95.356C133.562 95.3853 133.331 95.4187 133.099 95.456C132.867 95.4933 132.654 95.536 132.459 95.584C132.136 95.6693 131.872 95.812 131.667 96.012C131.462 96.2093 131.359 96.4853 131.359 96.84C131.359 97.0693 131.414 97.2813 131.523 97.476C131.632 97.6707 131.796 97.8267 132.015 97.944C132.236 98.0613 132.51 98.12 132.835 98.12ZM132.903 97.612C132.671 97.612 132.484 97.5747 132.343 97.5C132.204 97.4227 132.103 97.3253 132.039 97.208C131.978 97.088 131.947 96.9653 131.947 96.84C131.947 96.6053 132.026 96.4293 132.183 96.312C132.34 96.1947 132.511 96.1093 132.695 96.056C132.932 95.992 133.208 95.94 133.523 95.9C133.838 95.86 134.136 95.8227 134.419 95.788C134.419 95.8867 134.415 96 134.407 96.128C134.402 96.2533 134.387 96.3693 134.363 96.476C134.307 96.8013 134.152 97.072 133.899 97.288C133.648 97.504 133.316 97.612 132.903 97.612ZM136.04 98H136.632V95.696C136.632 95.208 136.742 94.8253 136.96 94.548C137.179 94.2707 137.496 94.132 137.912 94.132C138.214 94.132 138.456 94.2053 138.64 94.352C138.824 94.496 138.958 94.6933 139.04 94.944C139.123 95.1947 139.164 95.4787 139.164 95.796V98H139.756V95.624C139.756 95.3813 139.726 95.1387 139.664 94.896C139.606 94.6533 139.51 94.432 139.376 94.232C139.243 94.032 139.066 93.872 138.844 93.752C138.623 93.632 138.35 93.572 138.024 93.572C137.715 93.572 137.435 93.632 137.184 93.752C136.936 93.8693 136.732 94.0453 136.572 94.28V93.68H136.04V98ZM143.146 98V97.484C142.837 97.5347 142.577 97.5427 142.366 97.508C142.158 97.4733 142.006 97.3667 141.91 97.188C141.86 97.0947 141.832 96.988 141.826 96.868C141.824 96.7453 141.822 96.5933 141.822 96.412V94.184H143.146V93.68H141.822V92.48H141.238V93.68H140.314V94.184H141.238V96.436C141.238 96.6467 141.241 96.8347 141.246 97C141.254 97.1653 141.297 97.3267 141.374 97.484C141.47 97.676 141.61 97.8173 141.794 97.908C141.981 97.9987 142.192 98.0493 142.426 98.06C142.664 98.0707 142.904 98.0507 143.146 98ZM145.61 98.116C146.14 98.116 146.556 98 146.858 97.768C147.162 97.5333 147.314 97.212 147.314 96.804C147.314 96.58 147.266 96.392 147.17 96.24C147.076 96.088 146.915 95.956 146.686 95.844C146.459 95.732 146.147 95.6253 145.75 95.524C145.411 95.4387 145.15 95.36 144.966 95.288C144.784 95.216 144.659 95.14 144.59 95.06C144.52 94.9773 144.486 94.8787 144.486 94.764C144.486 94.5587 144.582 94.3947 144.774 94.272C144.966 94.1493 145.215 94.0907 145.522 94.096C145.847 94.1013 146.115 94.1787 146.326 94.328C146.536 94.4747 146.663 94.6747 146.706 94.928L147.306 94.82C147.276 94.5693 147.183 94.3493 147.026 94.16C146.868 93.9707 146.66 93.824 146.402 93.72C146.146 93.6133 145.855 93.56 145.53 93.56C145.204 93.56 144.918 93.612 144.67 93.716C144.424 93.8173 144.232 93.9613 144.094 94.148C143.958 94.332 143.89 94.5467 143.89 94.792C143.89 94.992 143.935 95.1627 144.025 95.304C144.119 95.4427 144.278 95.5667 144.502 95.676C144.726 95.7827 145.032 95.8893 145.422 95.996C145.787 96.0947 146.06 96.18 146.242 96.252C146.426 96.324 146.548 96.4027 146.61 96.488C146.671 96.5707 146.702 96.6787 146.702 96.812C146.702 97.0467 146.607 97.2333 146.418 97.372C146.228 97.5107 145.97 97.58 145.641 97.58C145.306 97.58 145.023 97.508 144.794 97.364C144.564 97.2173 144.419 97.0213 144.358 96.776L143.758 96.876C143.832 97.2653 144.032 97.5693 144.358 97.788C144.686 98.0067 145.103 98.116 145.61 98.116ZM151.414 98.116C151.945 98.116 152.361 98 152.662 97.768C152.966 97.5333 153.118 97.212 153.118 96.804C153.118 96.58 153.07 96.392 152.974 96.24C152.881 96.088 152.72 95.956 152.49 95.844C152.264 95.732 151.952 95.6253 151.554 95.524C151.216 95.4387 150.954 95.36 150.77 95.288C150.589 95.216 150.464 95.14 150.394 95.06C150.325 94.9773 150.29 94.8787 150.29 94.764C150.29 94.5587 150.386 94.3947 150.578 94.272C150.77 94.1493 151.02 94.0907 151.326 94.096C151.652 94.1013 151.92 94.1787 152.13 94.328C152.341 94.4747 152.468 94.6747 152.51 94.928L153.11 94.82C153.081 94.5693 152.988 94.3493 152.83 94.16C152.673 93.9707 152.465 93.824 152.206 93.72C151.95 93.6133 151.66 93.56 151.334 93.56C151.009 93.56 150.722 93.612 150.474 93.716C150.229 93.8173 150.037 93.9613 149.898 94.148C149.762 94.332 149.694 94.5467 149.694 94.792C149.694 94.992 149.74 95.1627 149.83 95.304C149.924 95.4427 150.082 95.5667 150.306 95.676C150.53 95.7827 150.837 95.8893 151.226 95.996C151.592 96.0947 151.865 96.18 152.046 96.252C152.23 96.324 152.353 96.4027 152.414 96.488C152.476 96.5707 152.506 96.6787 152.506 96.812C152.506 97.0467 152.412 97.2333 152.222 97.372C152.033 97.5107 151.774 97.58 151.446 97.58C151.11 97.58 150.828 97.508 150.598 97.364C150.369 97.2173 150.224 97.0213 150.162 96.776L149.562 96.876C149.637 97.2653 149.837 97.5693 150.162 97.788C150.49 98.0067 150.908 98.116 151.414 98.116ZM155.833 98.12C156.252 98.12 156.627 98.0173 156.957 97.812C157.291 97.6067 157.543 97.3147 157.713 96.936L157.165 96.724C156.891 97.2787 156.439 97.556 155.809 97.556C155.377 97.556 155.039 97.4213 154.793 97.152C154.551 96.8827 154.417 96.5 154.393 96.004H157.797C157.819 95.2413 157.652 94.644 157.297 94.212C156.945 93.7773 156.449 93.56 155.809 93.56C155.393 93.56 155.032 93.6533 154.725 93.84C154.421 94.0267 154.185 94.292 154.017 94.636C153.849 94.98 153.765 95.388 153.765 95.86C153.765 96.316 153.849 96.7133 154.017 97.052C154.188 97.3907 154.428 97.6533 154.737 97.84C155.049 98.0267 155.415 98.12 155.833 98.12ZM155.825 94.1C156.639 94.1 157.091 94.5707 157.181 95.512H154.405C154.451 95.056 154.595 94.7067 154.837 94.464C155.08 94.2213 155.409 94.1 155.825 94.1ZM158.765 98H159.353V92.12H158.765V98ZM162.38 98.12C162.799 98.12 163.174 98.0173 163.504 97.812C163.838 97.6067 164.09 97.3147 164.26 96.936L163.712 96.724C163.438 97.2787 162.986 97.556 162.356 97.556C161.924 97.556 161.586 97.4213 161.34 97.152C161.098 96.8827 160.964 96.5 160.94 96.004H164.344C164.366 95.2413 164.199 94.644 163.844 94.212C163.492 93.7773 162.996 93.56 162.356 93.56C161.94 93.56 161.579 93.6533 161.272 93.84C160.968 94.0267 160.732 94.292 160.564 94.636C160.396 94.98 160.312 95.388 160.312 95.86C160.312 96.316 160.396 96.7133 160.564 97.052C160.735 97.3907 160.975 97.6533 161.284 97.84C161.596 98.0267 161.962 98.12 162.38 98.12ZM162.372 94.1C163.186 94.1 163.638 94.5707 163.728 95.512H160.952C160.998 95.056 161.142 94.7067 161.384 94.464C161.627 94.2213 161.956 94.1 162.372 94.1ZM167.024 98.12C167.453 98.12 167.821 98.02 168.128 97.82C168.437 97.6173 168.673 97.324 168.836 96.94L168.244 96.764C168.025 97.292 167.619 97.556 167.024 97.556C166.56 97.556 166.211 97.4 165.976 97.088C165.741 96.7733 165.621 96.3573 165.616 95.84C165.621 95.336 165.737 94.924 165.964 94.604C166.193 94.284 166.547 94.124 167.024 94.124C167.307 94.124 167.557 94.196 167.776 94.34C167.997 94.4813 168.159 94.6813 168.26 94.94L168.836 94.756C168.716 94.3853 168.493 94.0933 168.168 93.88C167.845 93.6667 167.465 93.56 167.028 93.56C166.599 93.56 166.233 93.656 165.932 93.848C165.631 94.0373 165.4 94.304 165.24 94.648C165.08 94.9893 164.997 95.3867 164.992 95.84C164.997 96.2827 165.077 96.676 165.232 97.02C165.389 97.364 165.619 97.6333 165.92 97.828C166.221 98.0227 166.589 98.12 167.024 98.12ZM172.014 98V97.484C171.704 97.5347 171.444 97.5427 171.234 97.508C171.026 97.4733 170.874 97.3667 170.778 97.188C170.727 97.0947 170.699 96.988 170.694 96.868C170.691 96.7453 170.69 96.5933 170.69 96.412V94.184H172.014V93.68H170.69V92.48H170.106V93.68H169.182V94.184H170.106V96.436C170.106 96.6467 170.108 96.8347 170.114 97C170.122 97.1653 170.164 97.3267 170.242 97.484C170.338 97.676 170.478 97.8173 170.662 97.908C170.848 97.9987 171.059 98.0493 171.294 98.06C171.531 98.0707 171.771 98.0507 172.014 98ZM174.536 98.12C174.955 98.12 175.33 98.0173 175.66 97.812C175.994 97.6067 176.246 97.3147 176.416 96.936L175.868 96.724C175.594 97.2787 175.142 97.556 174.512 97.556C174.08 97.556 173.742 97.4213 173.496 97.152C173.254 96.8827 173.12 96.5 173.096 96.004H176.5C176.522 95.2413 176.355 94.644 176 94.212C175.648 93.7773 175.152 93.56 174.512 93.56C174.096 93.56 173.735 93.6533 173.428 93.84C173.124 94.0267 172.888 94.292 172.72 94.636C172.552 94.98 172.468 95.388 172.468 95.86C172.468 96.316 172.552 96.7133 172.72 97.052C172.891 97.3907 173.131 97.6533 173.44 97.84C173.752 98.0267 174.118 98.12 174.536 98.12ZM174.528 94.1C175.342 94.1 175.794 94.5707 175.884 95.512H173.108C173.154 95.056 173.298 94.7067 173.54 94.464C173.783 94.2213 174.112 94.1 174.528 94.1ZM179.064 98.12C179.379 98.12 179.655 98.056 179.892 97.928C180.129 97.7973 180.325 97.62 180.48 97.396V98H181.008V92.24H180.416V94.188C180.259 93.9907 180.064 93.8373 179.832 93.728C179.603 93.616 179.339 93.56 179.04 93.56C178.645 93.56 178.307 93.66 178.024 93.86C177.741 94.06 177.524 94.332 177.372 94.676C177.223 95.02 177.148 95.4067 177.148 95.836C177.148 96.268 177.223 96.656 177.372 97C177.524 97.344 177.743 97.6173 178.028 97.82C178.316 98.02 178.661 98.12 179.064 98.12ZM179.124 97.572C178.825 97.572 178.575 97.496 178.372 97.344C178.172 97.1893 178.021 96.9813 177.92 96.72C177.821 96.4587 177.772 96.164 177.772 95.836C177.772 95.5107 177.821 95.2173 177.92 94.956C178.019 94.6947 178.168 94.488 178.368 94.336C178.571 94.184 178.827 94.108 179.136 94.108C179.587 94.108 179.923 94.2693 180.144 94.592C180.368 94.912 180.48 95.3267 180.48 95.836C180.48 96.1693 180.431 96.4667 180.332 96.728C180.233 96.9893 180.084 97.196 179.884 97.348C179.684 97.4973 179.431 97.572 179.124 97.572Z" fill="black"/>
<path d="M114.456 112.124C114.099 112.124 113.772 112.211 113.476 112.384C113.183 112.557 112.947 112.789 112.768 113.08C112.592 113.371 112.504 113.693 112.504 114.048C112.504 114.405 112.588 114.728 112.756 115.016C112.924 115.304 113.151 115.533 113.436 115.704C113.721 115.872 114.043 115.956 114.4 115.956C114.68 115.956 114.941 115.895 115.184 115.772C115.429 115.649 115.637 115.484 115.808 115.276V116.16C115.808 116.408 115.748 116.639 115.628 116.852C115.508 117.065 115.343 117.237 115.132 117.368C114.921 117.496 114.681 117.56 114.412 117.56C114.175 117.56 113.953 117.503 113.748 117.388C113.545 117.271 113.383 117.117 113.26 116.928L112.808 117.3C112.987 117.559 113.216 117.76 113.496 117.904C113.779 118.048 114.084 118.12 114.412 118.12C114.791 118.12 115.131 118.033 115.432 117.86C115.733 117.684 115.971 117.445 116.144 117.144C116.317 116.84 116.404 116.495 116.404 116.108V114.112C116.404 113.739 116.316 113.401 116.14 113.1C115.967 112.799 115.733 112.561 115.44 112.388C115.147 112.212 114.819 112.124 114.456 112.124ZM114.456 112.696C114.707 112.696 114.933 112.757 115.136 112.88C115.341 113.003 115.504 113.167 115.624 113.372C115.747 113.575 115.808 113.8 115.808 114.048C115.808 114.299 115.747 114.527 115.624 114.732C115.504 114.937 115.341 115.101 115.136 115.224C114.931 115.347 114.703 115.408 114.452 115.408C114.201 115.408 113.973 115.347 113.768 115.224C113.563 115.101 113.399 114.937 113.276 114.732C113.156 114.527 113.096 114.299 113.096 114.048C113.096 113.797 113.157 113.571 113.28 113.368C113.403 113.163 113.567 113 113.772 112.88C113.977 112.757 114.205 112.696 114.456 112.696ZM120.291 118H120.899L122.467 113.68H121.863L120.595 117.232L119.319 113.68H118.723L120.291 118ZM124.179 118.12C124.933 118.12 125.481 117.841 125.823 117.284V118H126.347V115.316C126.347 115.156 126.339 114.999 126.323 114.844C126.307 114.689 126.272 114.549 126.219 114.424C126.104 114.144 125.908 113.931 125.631 113.784C125.356 113.635 125.021 113.56 124.627 113.56C124.152 113.56 123.765 113.667 123.467 113.88C123.168 114.093 122.968 114.393 122.867 114.78L123.439 114.948C123.521 114.66 123.664 114.449 123.867 114.316C124.072 114.183 124.323 114.116 124.619 114.116C125.029 114.116 125.323 114.212 125.499 114.404C125.675 114.593 125.765 114.883 125.771 115.272C125.579 115.299 125.367 115.327 125.135 115.356C124.905 115.385 124.675 115.419 124.443 115.456C124.211 115.493 123.997 115.536 123.803 115.584C123.48 115.669 123.216 115.812 123.011 116.012C122.805 116.209 122.703 116.485 122.703 116.84C122.703 117.069 122.757 117.281 122.867 117.476C122.976 117.671 123.14 117.827 123.359 117.944C123.58 118.061 123.853 118.12 124.179 118.12ZM124.247 117.612C124.015 117.612 123.828 117.575 123.687 117.5C123.548 117.423 123.447 117.325 123.383 117.208C123.321 117.088 123.291 116.965 123.291 116.84C123.291 116.605 123.369 116.429 123.527 116.312C123.684 116.195 123.855 116.109 124.039 116.056C124.276 115.992 124.552 115.94 124.867 115.9C125.181 115.86 125.48 115.823 125.763 115.788C125.763 115.887 125.759 116 125.751 116.128C125.745 116.253 125.731 116.369 125.707 116.476C125.651 116.801 125.496 117.072 125.243 117.288C124.992 117.504 124.66 117.612 124.247 117.612ZM127.388 118H127.976V115.844C127.976 115.585 128.005 115.328 128.064 115.072C128.125 114.813 128.264 114.599 128.48 114.428C128.637 114.3 128.808 114.227 128.992 114.208C129.179 114.187 129.352 114.195 129.512 114.232V113.68C129.323 113.632 129.108 113.631 128.868 113.676C128.628 113.719 128.423 113.815 128.252 113.964C128.124 114.06 128.012 114.193 127.916 114.364V113.68H127.388V118ZM130.351 112.86H130.939V112.2H130.351V112.86ZM130.351 118H130.939V113.68H130.351V118ZM133.374 118.12C134.129 118.12 134.677 117.841 135.018 117.284V118H135.542V115.316C135.542 115.156 135.534 114.999 135.518 114.844C135.502 114.689 135.467 114.549 135.414 114.424C135.299 114.144 135.103 113.931 134.826 113.784C134.551 113.635 134.217 113.56 133.822 113.56C133.347 113.56 132.961 113.667 132.662 113.88C132.363 114.093 132.163 114.393 132.062 114.78L132.634 114.948C132.717 114.66 132.859 114.449 133.062 114.316C133.267 114.183 133.518 114.116 133.814 114.116C134.225 114.116 134.518 114.212 134.694 114.404C134.87 114.593 134.961 114.883 134.966 115.272C134.774 115.299 134.562 115.327 134.33 115.356C134.101 115.385 133.87 115.419 133.638 115.456C133.406 115.493 133.193 115.536 132.998 115.584C132.675 115.669 132.411 115.812 132.206 116.012C132.001 116.209 131.898 116.485 131.898 116.84C131.898 117.069 131.953 117.281 132.062 117.476C132.171 117.671 132.335 117.827 132.554 117.944C132.775 118.061 133.049 118.12 133.374 118.12ZM133.442 117.612C133.21 117.612 133.023 117.575 132.882 117.5C132.743 117.423 132.642 117.325 132.578 117.208C132.517 117.088 132.486 116.965 132.486 116.84C132.486 116.605 132.565 116.429 132.722 116.312C132.879 116.195 133.05 116.109 133.234 116.056C133.471 115.992 133.747 115.94 134.062 115.9C134.377 115.86 134.675 115.823 134.958 115.788C134.958 115.887 134.954 116 134.946 116.128C134.941 116.253 134.926 116.369 134.902 116.476C134.846 116.801 134.691 117.072 134.438 117.288C134.187 117.504 133.855 117.612 133.442 117.612ZM136.579 118H137.171V115.696C137.171 115.208 137.281 114.825 137.499 114.548C137.718 114.271 138.035 114.132 138.451 114.132C138.753 114.132 138.995 114.205 139.179 114.352C139.363 114.496 139.497 114.693 139.579 114.944C139.662 115.195 139.703 115.479 139.703 115.796V118H140.295V115.624C140.295 115.381 140.265 115.139 140.203 114.896C140.145 114.653 140.049 114.432 139.915 114.232C139.782 114.032 139.605 113.872 139.383 113.752C139.162 113.632 138.889 113.572 138.563 113.572C138.254 113.572 137.974 113.632 137.723 113.752C137.475 113.869 137.271 114.045 137.111 114.28V113.68H136.579V118ZM143.685 118V117.484C143.376 117.535 143.116 117.543 142.905 117.508C142.697 117.473 142.545 117.367 142.449 117.188C142.399 117.095 142.371 116.988 142.365 116.868C142.363 116.745 142.361 116.593 142.361 116.412V114.184H143.685V113.68H142.361V112.48H141.777V113.68H140.853V114.184H141.777V116.436C141.777 116.647 141.78 116.835 141.785 117C141.793 117.165 141.836 117.327 141.913 117.484C142.009 117.676 142.149 117.817 142.333 117.908C142.52 117.999 142.731 118.049 142.965 118.06C143.203 118.071 143.443 118.051 143.685 118ZM146.149 118.116C146.679 118.116 147.095 118 147.397 117.768C147.701 117.533 147.853 117.212 147.853 116.804C147.853 116.58 147.805 116.392 147.709 116.24C147.615 116.088 147.454 115.956 147.225 115.844C146.998 115.732 146.686 115.625 146.289 115.524C145.95 115.439 145.689 115.36 145.505 115.288C145.323 115.216 145.198 115.14 145.129 115.06C145.059 114.977 145.025 114.879 145.025 114.764C145.025 114.559 145.121 114.395 145.313 114.272C145.505 114.149 145.754 114.091 146.061 114.096C146.386 114.101 146.654 114.179 146.865 114.328C147.075 114.475 147.202 114.675 147.245 114.928L147.845 114.82C147.815 114.569 147.722 114.349 147.565 114.16C147.407 113.971 147.199 113.824 146.941 113.72C146.685 113.613 146.394 113.56 146.069 113.56C145.743 113.56 145.457 113.612 145.209 113.716C144.963 113.817 144.771 113.961 144.633 114.148C144.497 114.332 144.429 114.547 144.429 114.792C144.429 114.992 144.474 115.163 144.565 115.304C144.658 115.443 144.817 115.567 145.041 115.676C145.265 115.783 145.571 115.889 145.961 115.996C146.326 116.095 146.599 116.18 146.781 116.252C146.965 116.324 147.087 116.403 147.149 116.488C147.21 116.571 147.241 116.679 147.241 116.812C147.241 117.047 147.146 117.233 146.957 117.372C146.767 117.511 146.509 117.58 146.181 117.58C145.845 117.58 145.562 117.508 145.333 117.364C145.103 117.217 144.958 117.021 144.897 116.776L144.297 116.876C144.371 117.265 144.571 117.569 144.897 117.788C145.225 118.007 145.642 118.116 146.149 118.116ZM151.953 118.116C152.484 118.116 152.9 118 153.201 117.768C153.505 117.533 153.657 117.212 153.657 116.804C153.657 116.58 153.609 116.392 153.513 116.24C153.42 116.088 153.259 115.956 153.029 115.844C152.803 115.732 152.491 115.625 152.093 115.524C151.755 115.439 151.493 115.36 151.309 115.288C151.128 115.216 151.003 115.14 150.933 115.06C150.864 114.977 150.829 114.879 150.829 114.764C150.829 114.559 150.925 114.395 151.117 114.272C151.309 114.149 151.559 114.091 151.865 114.096C152.191 114.101 152.459 114.179 152.669 114.328C152.88 114.475 153.007 114.675 153.049 114.928L153.649 114.82C153.62 114.569 153.527 114.349 153.369 114.16C153.212 113.971 153.004 113.824 152.745 113.72C152.489 113.613 152.199 113.56 151.873 113.56C151.548 113.56 151.261 113.612 151.013 113.716C150.768 113.817 150.576 113.961 150.437 114.148C150.301 114.332 150.233 114.547 150.233 114.792C150.233 114.992 150.279 115.163 150.369 115.304C150.463 115.443 150.621 115.567 150.845 115.676C151.069 115.783 151.376 115.889 151.765 115.996C152.131 116.095 152.404 116.18 152.585 116.252C152.769 116.324 152.892 116.403 152.953 116.488C153.015 116.571 153.045 116.679 153.045 116.812C153.045 117.047 152.951 117.233 152.761 117.372C152.572 117.511 152.313 117.58 151.985 117.58C151.649 117.58 151.367 117.508 151.137 117.364C150.908 117.217 150.763 117.021 150.701 116.776L150.101 116.876C150.176 117.265 150.376 117.569 150.701 117.788C151.029 118.007 151.447 118.116 151.953 118.116ZM156.372 118.12C156.791 118.12 157.166 118.017 157.496 117.812C157.83 117.607 158.082 117.315 158.252 116.936L157.704 116.724C157.43 117.279 156.978 117.556 156.348 117.556C155.916 117.556 155.578 117.421 155.332 117.152C155.09 116.883 154.956 116.5 154.932 116.004H158.336C158.358 115.241 158.191 114.644 157.836 114.212C157.484 113.777 156.988 113.56 156.348 113.56C155.932 113.56 155.571 113.653 155.264 113.84C154.96 114.027 154.724 114.292 154.556 114.636C154.388 114.98 154.304 115.388 154.304 115.86C154.304 116.316 154.388 116.713 154.556 117.052C154.727 117.391 154.967 117.653 155.276 117.84C155.588 118.027 155.954 118.12 156.372 118.12ZM156.364 114.1C157.178 114.1 157.63 114.571 157.72 115.512H154.944C154.99 115.056 155.134 114.707 155.376 114.464C155.619 114.221 155.948 114.1 156.364 114.1ZM159.304 118H159.892V112.12H159.304V118ZM162.919 118.12C163.338 118.12 163.713 118.017 164.043 117.812C164.377 117.607 164.629 117.315 164.799 116.936L164.251 116.724C163.977 117.279 163.525 117.556 162.895 117.556C162.463 117.556 162.125 117.421 161.879 117.152C161.637 116.883 161.503 116.5 161.479 116.004H164.883C164.905 115.241 164.738 114.644 164.383 114.212C164.031 113.777 163.535 113.56 162.895 113.56C162.479 113.56 162.118 113.653 161.811 113.84C161.507 114.027 161.271 114.292 161.103 114.636C160.935 114.98 160.851 115.388 160.851 115.86C160.851 116.316 160.935 116.713 161.103 117.052C161.274 117.391 161.514 117.653 161.823 117.84C162.135 118.027 162.501 118.12 162.919 118.12ZM162.911 114.1C163.725 114.1 164.177 114.571 164.267 115.512H161.491C161.537 115.056 161.681 114.707 161.923 114.464C162.166 114.221 162.495 114.1 162.911 114.1ZM167.563 118.12C167.992 118.12 168.36 118.02 168.667 117.82C168.976 117.617 169.212 117.324 169.375 116.94L168.783 116.764C168.564 117.292 168.158 117.556 167.563 117.556C167.099 117.556 166.75 117.4 166.515 117.088C166.28 116.773 166.16 116.357 166.155 115.84C166.16 115.336 166.276 114.924 166.503 114.604C166.732 114.284 167.086 114.124 167.563 114.124C167.846 114.124 168.096 114.196 168.315 114.34C168.536 114.481 168.698 114.681 168.799 114.94L169.375 114.756C169.255 114.385 169.032 114.093 168.707 113.88C168.384 113.667 168.004 113.56 167.567 113.56C167.138 113.56 166.772 113.656 166.471 113.848C166.17 114.037 165.939 114.304 165.779 114.648C165.619 114.989 165.536 115.387 165.531 115.84C165.536 116.283 165.616 116.676 165.771 117.02C165.928 117.364 166.158 117.633 166.459 117.828C166.76 118.023 167.128 118.12 167.563 118.12ZM172.553 118V117.484C172.243 117.535 171.983 117.543 171.773 117.508C171.565 117.473 171.413 117.367 171.317 117.188C171.266 117.095 171.238 116.988 171.233 116.868C171.23 116.745 171.229 116.593 171.229 116.412V114.184H172.553V113.68H171.229V112.48H170.645V113.68H169.721V114.184H170.645V116.436C170.645 116.647 170.647 116.835 170.653 117C170.661 117.165 170.703 117.327 170.781 117.484C170.877 117.676 171.017 117.817 171.201 117.908C171.387 117.999 171.598 118.049 171.833 118.06C172.07 118.071 172.31 118.051 172.553 118ZM175.076 118.12C175.494 118.12 175.869 118.017 176.2 117.812C176.533 117.607 176.785 117.315 176.956 116.936L176.408 116.724C176.133 117.279 175.681 117.556 175.052 117.556C174.62 117.556 174.281 117.421 174.036 117.152C173.793 116.883 173.66 116.5 173.636 116.004H177.04C177.061 115.241 176.894 114.644 176.54 114.212C176.188 113.777 175.692 113.56 175.052 113.56C174.636 113.56 174.274 113.653 173.968 113.84C173.664 114.027 173.428 114.292 173.26 114.636C173.092 114.98 173.008 115.388 173.008 115.86C173.008 116.316 173.092 116.713 173.26 117.052C173.43 117.391 173.67 117.653 173.98 117.84C174.292 118.027 174.657 118.12 175.076 118.12ZM175.068 114.1C175.881 114.1 176.333 114.571 176.424 115.512H173.648C173.693 115.056 173.837 114.707 174.08 114.464C174.322 114.221 174.652 114.1 175.068 114.1ZM179.603 118.12C179.918 118.12 180.194 118.056 180.431 117.928C180.669 117.797 180.865 117.62 181.019 117.396V118H181.547V112.24H180.955V114.188C180.798 113.991 180.603 113.837 180.371 113.728C180.142 113.616 179.878 113.56 179.579 113.56C179.185 113.56 178.846 113.66 178.563 113.86C178.281 114.06 178.063 114.332 177.911 114.676C177.762 115.02 177.687 115.407 177.687 115.836C177.687 116.268 177.762 116.656 177.911 117C178.063 117.344 178.282 117.617 178.567 117.82C178.855 118.02 179.201 118.12 179.603 118.12ZM179.663 117.572C179.365 117.572 179.114 117.496 178.911 117.344C178.711 117.189 178.561 116.981 178.459 116.72C178.361 116.459 178.311 116.164 178.311 115.836C178.311 115.511 178.361 115.217 178.459 114.956C178.558 114.695 178.707 114.488 178.907 114.336C179.11 114.184 179.366 114.108 179.675 114.108C180.126 114.108 180.462 114.269 180.683 114.592C180.907 114.912 181.019 115.327 181.019 115.836C181.019 116.169 180.97 116.467 180.871 116.728C180.773 116.989 180.623 117.196 180.423 117.348C180.223 117.497 179.97 117.572 179.663 117.572Z" fill="black"/>
<rect x="20.1" y="10.1" width="175.8" height="176.8" rx="3.9" stroke="#E8E8E8" stroke-width="0.2"/>
</g>
<defs>
<filter id="filter0_ddd" x="0" y="0" width="216" height="217" filterUnits="userSpaceOnUse" color-interpolation-filters="sRGB">
<feFlood flood-opacity="0" result="BackgroundImageFix"/>
<feColorMatrix in="SourceAlpha" type="matrix" values="0 0 0 0 0 0 0 0 0 0 0 0 0 0 0 0 0 0 127 0"/>
<feOffset/>
<feGaussianBlur stdDeviation="0.5"/>
<feColorMatrix type="matrix" values="0 0 0 0 0 0 0 0 0 0 0 0 0 0 0 0 0 0 0.04 0"/>
<feBlend mode="normal" in2="BackgroundImageFix" result="effect1_dropShadow"/>
<feColorMatrix in="SourceAlpha" type="matrix" values="0 0 0 0 0 0 0 0 0 0 0 0 0 0 0 0 0 0 127 0"/>
<feOffset dy="2"/>
<feGaussianBlur stdDeviation="3"/>
<feColorMatrix type="matrix" values="0 0 0 0 0 0 0 0 0 0 0 0 0 0 0 0 0 0 0.04 0"/>
<feBlend mode="normal" in2="effect1_dropShadow" result="effect2_dropShadow"/>
<feColorMatrix in="SourceAlpha" type="matrix" values="0 0 0 0 0 0 0 0 0 0 0 0 0 0 0 0 0 0 127 0"/>
<feOffset dy="10"/>
<feGaussianBlur stdDeviation="10"/>
<feColorMatrix type="matrix" values="0 0 0 0 0 0 0 0 0 0 0 0 0 0 0 0 0 0 0.04 0"/>
<feBlend mode="normal" in2="effect2_dropShadow" result="effect3_dropShadow"/>
<feBlend mode="normal" in="SourceGraphic" in2="effect3_dropShadow" result="shape"/>
</filter>
<clipPath id="clip0">
<rect x="34" y="41" width="148" height="21" rx="4" fill="white"/>
</clipPath>
</defs>
</svg>
