<svg width="241" height="219" viewBox="0 0 241 219" fill="none" xmlns="http://www.w3.org/2000/svg">
<circle cx="176.5" cy="154.5" r="64" stroke="#BCBCBC" stroke-miterlimit="3.86874" stroke-dasharray="4 4"/>
<g filter="url(#filter0_ddd)">
<rect x="24" y="8" width="176" height="165" rx="4" fill="white"/>
<rect x="38" y="19" width="148" height="21" rx="4" fill="#464646" fill-opacity="0.06"/>
<path d="M46.56 33H47.148V30.412H49.388V29.828H47.148V27.828H49.868V27.24H46.56V33ZM52.2781 33.12C52.7047 33.12 53.0701 33.024 53.3741 32.832C53.6807 32.64 53.9154 32.3733 54.0781 32.032C54.2434 31.688 54.3261 31.2893 54.3261 30.836C54.3261 30.3907 54.2447 29.9973 54.0821 29.656C53.9221 29.312 53.6887 29.044 53.3821 28.852C53.0781 28.6573 52.7101 28.56 52.2781 28.56C51.8567 28.56 51.4927 28.656 51.1861 28.848C50.8821 29.0373 50.6474 29.3027 50.4821 29.644C50.3167 29.9853 50.2341 30.3827 50.2341 30.836C50.2341 31.2813 50.3141 31.676 50.4741 32.02C50.6367 32.364 50.8701 32.6333 51.1741 32.828C51.4807 33.0227 51.8487 33.12 52.2781 33.12ZM52.2781 32.556C51.8114 32.556 51.4581 32.4 51.2181 32.088C50.9781 31.7733 50.8581 31.356 50.8581 30.836C50.8581 30.332 50.9741 29.9213 51.2061 29.604C51.4381 29.284 51.7954 29.124 52.2781 29.124C52.7554 29.124 53.1114 29.28 53.3461 29.592C53.5834 29.9013 53.7021 30.316 53.7021 30.836C53.7021 31.3453 53.5847 31.76 53.3501 32.08C53.1154 32.3973 52.7581 32.556 52.2781 32.556ZM55.2044 33H55.7964V30.696C55.7964 30.208 55.9058 29.8253 56.1244 29.548C56.3431 29.2707 56.6604 29.132 57.0764 29.132C57.3778 29.132 57.6204 29.2053 57.8044 29.352C57.9884 29.496 58.1218 29.6933 58.2044 29.944C58.2871 30.1947 58.3284 30.4787 58.3284 30.796V33H58.9204V30.624C58.9204 30.3813 58.8898 30.1387 58.8284 29.896C58.7698 29.6533 58.6738 29.432 58.5404 29.232C58.4071 29.032 58.2298 28.872 58.0084 28.752C57.7871 28.632 57.5138 28.572 57.1884 28.572C56.8791 28.572 56.5991 28.632 56.3484 28.752C56.1004 28.8693 55.8964 29.0453 55.7364 29.28V28.68H55.2044V33ZM62.3104 33V32.484C62.0011 32.5347 61.7411 32.5427 61.5304 32.508C61.3224 32.4733 61.1704 32.3667 61.0744 32.188C61.0238 32.0947 60.9958 31.988 60.9904 31.868C60.9878 31.7453 60.9864 31.5933 60.9864 31.412V29.184H62.3104V28.68H60.9864V27.48H60.4024V28.68H59.4784V29.184H60.4024V31.436C60.4024 31.6467 60.4051 31.8347 60.4104 32C60.4184 32.1653 60.4611 32.3267 60.5384 32.484C60.6344 32.676 60.7744 32.8173 60.9584 32.908C61.1451 32.9987 61.3558 33.0493 61.5904 33.06C61.8278 33.0707 62.0678 33.0507 62.3104 33ZM64.7591 33H65.3511V30.696C65.3511 30.208 65.4605 29.8253 65.6791 29.548C65.8978 29.2707 66.2151 29.132 66.6311 29.132C66.9325 29.132 67.1751 29.2053 67.3591 29.352C67.5431 29.496 67.6765 29.6933 67.7591 29.944C67.8418 30.1947 67.8831 30.4787 67.8831 30.796V33H68.4751V30.624C68.4751 30.3813 68.4445 30.1387 68.3831 29.896C68.3245 29.6533 68.2285 29.432 68.0951 29.232C67.9618 29.032 67.7845 28.872 67.5631 28.752C67.3418 28.632 67.0685 28.572 66.7431 28.572C66.4338 28.572 66.1538 28.632 65.9031 28.752C65.6551 28.8693 65.4511 29.0453 65.2911 29.28V28.68H64.7591V33ZM70.7491 33.12C71.5038 33.12 72.0518 32.8413 72.3931 32.284V33H72.9171V30.316C72.9171 30.156 72.9091 29.9987 72.8931 29.844C72.8771 29.6893 72.8425 29.5493 72.7891 29.424C72.6745 29.144 72.4785 28.9307 72.2011 28.784C71.9265 28.6347 71.5918 28.56 71.1971 28.56C70.7225 28.56 70.3358 28.6667 70.0371 28.88C69.7385 29.0933 69.5385 29.3933 69.4371 29.78L70.0091 29.948C70.0918 29.66 70.2345 29.4493 70.4371 29.316C70.6425 29.1827 70.8931 29.116 71.1891 29.116C71.5998 29.116 71.8931 29.212 72.0691 29.404C72.2451 29.5933 72.3358 29.8827 72.3411 30.272C72.1491 30.2987 71.9371 30.3267 71.7051 30.356C71.4758 30.3853 71.2451 30.4187 71.0131 30.456C70.7811 30.4933 70.5678 30.536 70.3731 30.584C70.0505 30.6693 69.7865 30.812 69.5811 31.012C69.3758 31.2093 69.2731 31.4853 69.2731 31.84C69.2731 32.0693 69.3278 32.2813 69.4371 32.476C69.5465 32.6707 69.7105 32.8267 69.9291 32.944C70.1505 33.0613 70.4238 33.12 70.7491 33.12ZM70.8171 32.612C70.5851 32.612 70.3985 32.5747 70.2571 32.5C70.1185 32.4227 70.0171 32.3253 69.9531 32.208C69.8918 32.088 69.8611 31.9653 69.8611 31.84C69.8611 31.6053 69.9398 31.4293 70.0971 31.312C70.2545 31.1947 70.4251 31.1093 70.6091 31.056C70.8465 30.992 71.1225 30.94 71.4371 30.9C71.7518 30.86 72.0505 30.8227 72.3331 30.788C72.3331 30.8867 72.3291 31 72.3211 31.128C72.3158 31.2533 72.3011 31.3693 72.2771 31.476C72.2211 31.8013 72.0665 32.072 71.8131 32.288C71.5625 32.504 71.2305 32.612 70.8171 32.612ZM73.9544 33H74.5464V30.212C74.5464 29.8733 74.6384 29.6027 74.8224 29.4C75.0064 29.1947 75.2478 29.092 75.5464 29.092C75.8451 29.092 76.0851 29.192 76.2664 29.392C76.4504 29.5893 76.5424 29.86 76.5424 30.204L76.5384 33H77.1184L77.1224 30.212C77.1224 29.9427 77.1718 29.7267 77.2704 29.564C77.3718 29.3987 77.4998 29.2787 77.6544 29.204C77.8091 29.1293 77.9678 29.092 78.1304 29.092C78.4158 29.092 78.6504 29.188 78.8344 29.38C79.0211 29.5693 79.1144 29.8307 79.1144 30.164L79.1104 33H79.6984L79.7024 30.052C79.7024 29.596 79.5718 29.2347 79.3104 28.968C79.0518 28.6987 78.7038 28.564 78.2664 28.564C77.9784 28.564 77.7198 28.6293 77.4904 28.76C77.2611 28.888 77.0838 29.0653 76.9584 29.292C76.8411 29.0547 76.6718 28.8747 76.4504 28.752C76.2318 28.6267 75.9811 28.564 75.6984 28.564C75.4424 28.564 75.2091 28.616 74.9984 28.72C74.7878 28.8213 74.6158 28.96 74.4824 29.136V28.68H73.9544V33ZM82.5364 33.12C82.9551 33.12 83.3298 33.0173 83.6604 32.812C83.9938 32.6067 84.2458 32.3147 84.4164 31.936L83.8684 31.724C83.5938 32.2787 83.1418 32.556 82.5124 32.556C82.0804 32.556 81.7418 32.4213 81.4964 32.152C81.2538 31.8827 81.1204 31.5 81.0964 31.004H84.5004C84.5218 30.2413 84.3551 29.644 84.0004 29.212C83.6484 28.7773 83.1524 28.56 82.5124 28.56C82.0964 28.56 81.7351 28.6533 81.4284 28.84C81.1244 29.0267 80.8884 29.292 80.7204 29.636C80.5524 29.98 80.4684 30.388 80.4684 30.86C80.4684 31.316 80.5524 31.7133 80.7204 32.052C80.8911 32.3907 81.1311 32.6533 81.4404 32.84C81.7524 33.0267 82.1178 33.12 82.5364 33.12ZM82.5284 29.1C83.3418 29.1 83.7938 29.5707 83.8844 30.512H81.1084C81.1538 30.056 81.2978 29.7067 81.5404 29.464C81.7831 29.2213 82.1124 29.1 82.5284 29.1Z" fill="#464646" fill-opacity="0.6"/>
<path d="M58.564 62H59.16V56.24H58.564L57.48 56.888V57.548L58.564 56.896V62ZM62.5572 62.12C62.9145 62.12 63.2345 62.0373 63.5172 61.872C63.7999 61.7067 64.0239 61.4827 64.1892 61.2C64.3545 60.9147 64.4372 60.5947 64.4372 60.24V58C64.4372 57.6427 64.3545 57.3227 64.1892 57.04C64.0239 56.7573 63.7999 56.5333 63.5172 56.368C63.2345 56.2027 62.9145 56.12 62.5572 56.12C62.2025 56.12 61.8825 56.2027 61.5972 56.368C61.3145 56.5333 61.0905 56.7573 60.9252 57.04C60.7599 57.3227 60.6772 57.6427 60.6772 58V60.24C60.6772 60.5947 60.7599 60.9147 60.9252 61.2C61.0905 61.4827 61.3145 61.7067 61.5972 61.872C61.8825 62.0373 62.2025 62.12 62.5572 62.12ZM62.5572 61.552C62.3225 61.552 62.1079 61.4947 61.9132 61.38C61.7185 61.2627 61.5625 61.1067 61.4452 60.912C61.3305 60.7173 61.2732 60.5027 61.2732 60.268V57.972C61.2732 57.7347 61.3305 57.5187 61.4452 57.324C61.5625 57.1293 61.7185 56.9747 61.9132 56.86C62.1079 56.7427 62.3225 56.684 62.5572 56.684C62.7945 56.684 63.0092 56.7427 63.2012 56.86C63.3959 56.9747 63.5505 57.1293 63.6652 57.324C63.7825 57.5187 63.8412 57.7347 63.8412 57.972V60.268C63.8412 60.5027 63.7825 60.7173 63.6652 60.912C63.5505 61.1067 63.3959 61.2627 63.2012 61.38C63.0092 61.4947 62.7945 61.552 62.5572 61.552ZM67.44 62.12C67.7973 62.12 68.1173 62.0373 68.4 61.872C68.6827 61.7067 68.9067 61.4827 69.072 61.2C69.2373 60.9147 69.32 60.5947 69.32 60.24V58C69.32 57.6427 69.2373 57.3227 69.072 57.04C68.9067 56.7573 68.6827 56.5333 68.4 56.368C68.1173 56.2027 67.7973 56.12 67.44 56.12C67.0853 56.12 66.7653 56.2027 66.48 56.368C66.1973 56.5333 65.9733 56.7573 65.808 57.04C65.6427 57.3227 65.56 57.6427 65.56 58V60.24C65.56 60.5947 65.6427 60.9147 65.808 61.2C65.9733 61.4827 66.1973 61.7067 66.48 61.872C66.7653 62.0373 67.0853 62.12 67.44 62.12ZM67.44 61.552C67.2053 61.552 66.9907 61.4947 66.796 61.38C66.6013 61.2627 66.4453 61.1067 66.328 60.912C66.2133 60.7173 66.156 60.5027 66.156 60.268V57.972C66.156 57.7347 66.2133 57.5187 66.328 57.324C66.4453 57.1293 66.6013 56.9747 66.796 56.86C66.9907 56.7427 67.2053 56.684 67.44 56.684C67.6773 56.684 67.892 56.7427 68.084 56.86C68.2787 56.9747 68.4333 57.1293 68.548 57.324C68.6653 57.5187 68.724 57.7347 68.724 57.972V60.268C68.724 60.5027 68.6653 60.7173 68.548 60.912C68.4333 61.1067 68.2787 61.2627 68.084 61.38C67.892 61.4947 67.6773 61.552 67.44 61.552ZM70.5548 62H71.2388V61.316H70.5548V62ZM74.8261 62V61.484C74.5167 61.5347 74.2567 61.5427 74.0461 61.508C73.8381 61.4733 73.6861 61.3667 73.5901 61.188C73.5394 61.0947 73.5114 60.988 73.5061 60.868C73.5034 60.7453 73.5021 60.5933 73.5021 60.412V58.184H74.8261V57.68H73.5021V56.48H72.9181V57.68H71.9941V58.184H72.9181V60.436C72.9181 60.6467 72.9207 60.8347 72.9261 61C72.9341 61.1653 72.9767 61.3267 73.0541 61.484C73.1501 61.676 73.2901 61.8173 73.4741 61.908C73.6607 61.9987 73.8714 62.0493 74.1061 62.06C74.3434 62.0707 74.5834 62.0507 74.8261 62ZM77.5501 62V61.484C77.2407 61.5347 76.9807 61.5427 76.7701 61.508C76.5621 61.4733 76.4101 61.3667 76.3141 61.188C76.2634 61.0947 76.2354 60.988 76.2301 60.868C76.2274 60.7453 76.2261 60.5933 76.2261 60.412V58.184H77.5501V57.68H76.2261V56.48H75.6421V57.68H74.7181V58.184H75.6421V60.436C75.6421 60.6467 75.6447 60.8347 75.6501 61C75.6581 61.1653 75.7007 61.3267 75.7781 61.484C75.8741 61.676 76.0141 61.8173 76.1981 61.908C76.3847 61.9987 76.5954 62.0493 76.8301 62.06C77.0674 62.0707 77.3074 62.0507 77.5501 62ZM78.8318 62H79.4198V58.184H80.5998V57.68H79.4198V57.296C79.4198 56.8427 79.6424 56.616 80.0878 56.616H80.5998V56.12H80.0477C79.8824 56.12 79.7158 56.1373 79.5478 56.172C79.3798 56.2067 79.2304 56.2947 79.0998 56.436C78.9824 56.564 78.9078 56.7093 78.8758 56.872C78.8464 57.032 78.8318 57.1947 78.8318 57.36V57.68H78.0838V58.184H78.8318V62Z" fill="black"/>
<path d="M57.4 79.996H61.16V79.432H58.296L60.344 77.584C60.624 77.3333 60.8293 77.0907 60.96 76.856C61.0933 76.6213 61.16 76.3227 61.16 75.96C61.16 75.616 61.0787 75.3053 60.916 75.028C60.756 74.7507 60.536 74.5307 60.256 74.368C59.9787 74.2027 59.6653 74.12 59.316 74.12C58.9613 74.12 58.6413 74.2 58.356 74.36C58.0733 74.5173 57.8493 74.7347 57.684 75.012C57.5187 75.2867 57.436 75.6 57.436 75.952H58.036C58.0333 75.7253 58.0867 75.516 58.196 75.324C58.308 75.132 58.46 74.9773 58.652 74.86C58.844 74.7427 59.0627 74.684 59.308 74.684C59.5453 74.684 59.7587 74.7413 59.948 74.856C60.1373 74.968 60.2867 75.12 60.396 75.312C60.508 75.504 60.564 75.7187 60.564 75.956C60.564 76.156 60.5267 76.348 60.452 76.532C60.3773 76.716 60.2293 76.908 60.008 77.108L57.404 79.46L57.4 79.996ZM64.0025 80.12C64.3598 80.12 64.6798 80.0373 64.9625 79.872C65.2452 79.7067 65.4692 79.4827 65.6345 79.2C65.7998 78.9147 65.8825 78.5947 65.8825 78.24V76C65.8825 75.6427 65.7998 75.3227 65.6345 75.04C65.4692 74.7573 65.2452 74.5333 64.9625 74.368C64.6798 74.2027 64.3598 74.12 64.0025 74.12C63.6478 74.12 63.3278 74.2027 63.0425 74.368C62.7598 74.5333 62.5358 74.7573 62.3705 75.04C62.2052 75.3227 62.1225 75.6427 62.1225 76V78.24C62.1225 78.5947 62.2052 78.9147 62.3705 79.2C62.5358 79.4827 62.7598 79.7067 63.0425 79.872C63.3278 80.0373 63.6478 80.12 64.0025 80.12ZM64.0025 79.552C63.7678 79.552 63.5532 79.4947 63.3585 79.38C63.1638 79.2627 63.0078 79.1067 62.8905 78.912C62.7758 78.7173 62.7185 78.5027 62.7185 78.268V75.972C62.7185 75.7347 62.7758 75.5187 62.8905 75.324C63.0078 75.1293 63.1638 74.9747 63.3585 74.86C63.5532 74.7427 63.7678 74.684 64.0025 74.684C64.2398 74.684 64.4545 74.7427 64.6465 74.86C64.8412 74.9747 64.9958 75.1293 65.1105 75.324C65.2278 75.5187 65.2865 75.7347 65.2865 75.972V78.268C65.2865 78.5027 65.2278 78.7173 65.1105 78.912C64.9958 79.1067 64.8412 79.2627 64.6465 79.38C64.4545 79.4947 64.2398 79.552 64.0025 79.552ZM68.8853 80.12C69.2426 80.12 69.5626 80.0373 69.8453 79.872C70.128 79.7067 70.352 79.4827 70.5173 79.2C70.6826 78.9147 70.7653 78.5947 70.7653 78.24V76C70.7653 75.6427 70.6826 75.3227 70.5173 75.04C70.352 74.7573 70.128 74.5333 69.8453 74.368C69.5626 74.2027 69.2426 74.12 68.8853 74.12C68.5306 74.12 68.2106 74.2027 67.9253 74.368C67.6426 74.5333 67.4186 74.7573 67.2533 75.04C67.088 75.3227 67.0053 75.6427 67.0053 76V78.24C67.0053 78.5947 67.088 78.9147 67.2533 79.2C67.4186 79.4827 67.6426 79.7067 67.9253 79.872C68.2106 80.0373 68.5306 80.12 68.8853 80.12ZM68.8853 79.552C68.6506 79.552 68.436 79.4947 68.2413 79.38C68.0466 79.2627 67.8906 79.1067 67.7733 78.912C67.6586 78.7173 67.6013 78.5027 67.6013 78.268V75.972C67.6013 75.7347 67.6586 75.5187 67.7733 75.324C67.8906 75.1293 68.0466 74.9747 68.2413 74.86C68.436 74.7427 68.6506 74.684 68.8853 74.684C69.1226 74.684 69.3373 74.7427 69.5293 74.86C69.724 74.9747 69.8786 75.1293 69.9933 75.324C70.1106 75.5187 70.1693 75.7347 70.1693 75.972V78.268C70.1693 78.5027 70.1106 78.7173 69.9933 78.912C69.8786 79.1067 69.724 79.2627 69.5293 79.38C69.3373 79.4947 69.1226 79.552 68.8853 79.552ZM72.0001 80H72.6841V79.316H72.0001V80ZM76.2714 80V79.484C75.962 79.5347 75.702 79.5427 75.4914 79.508C75.2834 79.4733 75.1314 79.3667 75.0354 79.188C74.9847 79.0947 74.9567 78.988 74.9514 78.868C74.9487 78.7453 74.9474 78.5933 74.9474 78.412V76.184H76.2714V75.68H74.9474V74.48H74.3634V75.68H73.4394V76.184H74.3634V78.436C74.3634 78.6467 74.366 78.8347 74.3714 79C74.3794 79.1653 74.422 79.3267 74.4994 79.484C74.5954 79.676 74.7354 79.8173 74.9194 79.908C75.106 79.9987 75.3167 80.0493 75.5514 80.06C75.7887 80.0707 76.0287 80.0507 76.2714 80ZM78.9954 80V79.484C78.686 79.5347 78.426 79.5427 78.2154 79.508C78.0074 79.4733 77.8554 79.3667 77.7594 79.188C77.7087 79.0947 77.6807 78.988 77.6754 78.868C77.6727 78.7453 77.6714 78.5933 77.6714 78.412V76.184H78.9954V75.68H77.6714V74.48H77.0874V75.68H76.1634V76.184H77.0874V78.436C77.0874 78.6467 77.09 78.8347 77.0954 79C77.1034 79.1653 77.146 79.3267 77.2234 79.484C77.3194 79.676 77.4594 79.8173 77.6434 79.908C77.83 79.9987 78.0407 80.0493 78.2754 80.06C78.5127 80.0707 78.7527 80.0507 78.9954 80ZM80.2771 80H80.8651V76.184H82.0451V75.68H80.8651V75.296C80.8651 74.8427 81.0877 74.616 81.5331 74.616H82.0451V74.12H81.4931C81.3277 74.12 81.1611 74.1373 80.9931 74.172C80.8251 74.2067 80.6757 74.2947 80.5451 74.436C80.4277 74.564 80.3531 74.7093 80.3211 74.872C80.2917 75.032 80.2771 75.1947 80.2771 75.36V75.68H79.5291V76.184H80.2771V80Z" fill="black"/>
<path d="M57.4 98.996H61.16V98.432H58.296L60.344 96.584C60.624 96.3333 60.8293 96.0907 60.96 95.856C61.0933 95.6213 61.16 95.3227 61.16 94.96C61.16 94.616 61.0787 94.3053 60.916 94.028C60.756 93.7507 60.536 93.5307 60.256 93.368C59.9787 93.2027 59.6653 93.12 59.316 93.12C58.9613 93.12 58.6413 93.2 58.356 93.36C58.0733 93.5173 57.8493 93.7347 57.684 94.012C57.5187 94.2867 57.436 94.6 57.436 94.952H58.036C58.0333 94.7253 58.0867 94.516 58.196 94.324C58.308 94.132 58.46 93.9773 58.652 93.86C58.844 93.7427 59.0627 93.684 59.308 93.684C59.5453 93.684 59.7587 93.7413 59.948 93.856C60.1373 93.968 60.2867 94.12 60.396 94.312C60.508 94.504 60.564 94.7187 60.564 94.956C60.564 95.156 60.5267 95.348 60.452 95.532C60.3773 95.716 60.2293 95.908 60.008 96.108L57.404 98.46L57.4 98.996ZM64.0025 99.12C64.3598 99.12 64.6798 99.0373 64.9625 98.872C65.2452 98.7067 65.4692 98.4827 65.6345 98.2C65.7998 97.9147 65.8825 97.5947 65.8825 97.24V95C65.8825 94.6427 65.7998 94.3227 65.6345 94.04C65.4692 93.7573 65.2452 93.5333 64.9625 93.368C64.6798 93.2027 64.3598 93.12 64.0025 93.12C63.6478 93.12 63.3278 93.2027 63.0425 93.368C62.7598 93.5333 62.5358 93.7573 62.3705 94.04C62.2052 94.3227 62.1225 94.6427 62.1225 95V97.24C62.1225 97.5947 62.2052 97.9147 62.3705 98.2C62.5358 98.4827 62.7598 98.7067 63.0425 98.872C63.3278 99.0373 63.6478 99.12 64.0025 99.12ZM64.0025 98.552C63.7678 98.552 63.5532 98.4947 63.3585 98.38C63.1638 98.2627 63.0078 98.1067 62.8905 97.912C62.7758 97.7173 62.7185 97.5027 62.7185 97.268V94.972C62.7185 94.7347 62.7758 94.5187 62.8905 94.324C63.0078 94.1293 63.1638 93.9747 63.3585 93.86C63.5532 93.7427 63.7678 93.684 64.0025 93.684C64.2398 93.684 64.4545 93.7427 64.6465 93.86C64.8412 93.9747 64.9958 94.1293 65.1105 94.324C65.2278 94.5187 65.2865 94.7347 65.2865 94.972V97.268C65.2865 97.5027 65.2278 97.7173 65.1105 97.912C64.9958 98.1067 64.8412 98.2627 64.6465 98.38C64.4545 98.4947 64.2398 98.552 64.0025 98.552ZM68.8853 99.12C69.2426 99.12 69.5626 99.0373 69.8453 98.872C70.128 98.7067 70.352 98.4827 70.5173 98.2C70.6826 97.9147 70.7653 97.5947 70.7653 97.24V95C70.7653 94.6427 70.6826 94.3227 70.5173 94.04C70.352 93.7573 70.128 93.5333 69.8453 93.368C69.5626 93.2027 69.2426 93.12 68.8853 93.12C68.5306 93.12 68.2106 93.2027 67.9253 93.368C67.6426 93.5333 67.4186 93.7573 67.2533 94.04C67.088 94.3227 67.0053 94.6427 67.0053 95V97.24C67.0053 97.5947 67.088 97.9147 67.2533 98.2C67.4186 98.4827 67.6426 98.7067 67.9253 98.872C68.2106 99.0373 68.5306 99.12 68.8853 99.12ZM68.8853 98.552C68.6506 98.552 68.436 98.4947 68.2413 98.38C68.0466 98.2627 67.8906 98.1067 67.7733 97.912C67.6586 97.7173 67.6013 97.5027 67.6013 97.268V94.972C67.6013 94.7347 67.6586 94.5187 67.7733 94.324C67.8906 94.1293 68.0466 93.9747 68.2413 93.86C68.436 93.7427 68.6506 93.684 68.8853 93.684C69.1226 93.684 69.3373 93.7427 69.5293 93.86C69.724 93.9747 69.8786 94.1293 69.9933 94.324C70.1106 94.5187 70.1693 94.7347 70.1693 94.972V97.268C70.1693 97.5027 70.1106 97.7173 69.9933 97.912C69.8786 98.1067 69.724 98.2627 69.5293 98.38C69.3373 98.4947 69.1226 98.552 68.8853 98.552ZM71.9681 93.86H72.5561V93.2H71.9681V93.86ZM71.9681 99H72.5561V94.68H71.9681V99ZM73.8673 99H74.5513V98.316H73.8673V99ZM78.1386 99V98.484C77.8292 98.5347 77.5692 98.5427 77.3586 98.508C77.1506 98.4733 76.9986 98.3667 76.9026 98.188C76.8519 98.0947 76.8239 97.988 76.8186 97.868C76.8159 97.7453 76.8146 97.5933 76.8146 97.412V95.184H78.1386V94.68H76.8146V93.48H76.2306V94.68H75.3066V95.184H76.2306V97.436C76.2306 97.6467 76.2332 97.8347 76.2386 98C76.2466 98.1653 76.2892 98.3267 76.3666 98.484C76.4626 98.676 76.6026 98.8173 76.7866 98.908C76.9732 98.9987 77.1839 99.0493 77.4186 99.06C77.6559 99.0707 77.8959 99.0507 78.1386 99ZM80.8626 99V98.484C80.5532 98.5347 80.2932 98.5427 80.0826 98.508C79.8746 98.4733 79.7226 98.3667 79.6266 98.188C79.5759 98.0947 79.5479 97.988 79.5426 97.868C79.5399 97.7453 79.5386 97.5933 79.5386 97.412V95.184H80.8626V94.68H79.5386V93.48H78.9546V94.68H78.0306V95.184H78.9546V97.436C78.9546 97.6467 78.9572 97.8347 78.9626 98C78.9706 98.1653 79.0132 98.3267 79.0906 98.484C79.1866 98.676 79.3266 98.8173 79.5106 98.908C79.6972 98.9987 79.9079 99.0493 80.1426 99.06C80.3799 99.0707 80.6199 99.0507 80.8626 99ZM82.1443 99H82.7323V95.184H83.9123V94.68H82.7323V94.296C82.7323 93.8427 82.9549 93.616 83.4003 93.616H83.9123V93.12H83.3602C83.1949 93.12 83.0283 93.1373 82.8603 93.172C82.6923 93.2067 82.5429 93.2947 82.4123 93.436C82.2949 93.564 82.2203 93.7093 82.1883 93.872C82.1589 94.032 82.1443 94.1947 82.1443 94.36V94.68H81.3963V95.184H82.1443V99Z" fill="black"/>
<rect x="142" y="144" width="44" height="18" rx="2" fill="#2453CC"/>
<path d="M157.56 156.12C157.963 156.12 158.321 156.053 158.636 155.92C158.953 155.787 159.204 155.595 159.388 155.344C159.572 155.091 159.664 154.785 159.664 154.428C159.664 154.156 159.613 153.931 159.512 153.752C159.413 153.571 159.288 153.425 159.136 153.316C158.987 153.204 158.833 153.119 158.676 153.06C158.519 152.999 158.381 152.952 158.264 152.92L157.136 152.588C156.987 152.545 156.832 152.491 156.672 152.424C156.515 152.357 156.381 152.265 156.272 152.148C156.165 152.031 156.112 151.875 156.112 151.68C156.112 151.488 156.171 151.317 156.288 151.168C156.405 151.016 156.565 150.897 156.768 150.812C156.971 150.724 157.2 150.681 157.456 150.684C157.859 150.687 158.204 150.8 158.492 151.024C158.783 151.245 158.957 151.543 159.016 151.916L159.632 151.804C159.539 151.287 159.297 150.879 158.908 150.58C158.519 150.279 158.036 150.127 157.46 150.124C157.081 150.121 156.744 150.185 156.448 150.316C156.152 150.444 155.919 150.627 155.748 150.864C155.577 151.099 155.492 151.379 155.492 151.704C155.492 152.091 155.608 152.392 155.84 152.608C156.075 152.821 156.368 152.98 156.72 153.084L158.18 153.52C158.313 153.56 158.448 153.615 158.584 153.684C158.72 153.753 158.833 153.849 158.924 153.972C159.017 154.095 159.064 154.255 159.064 154.452C159.064 154.679 159 154.875 158.872 155.04C158.744 155.205 158.568 155.333 158.344 155.424C158.123 155.512 157.869 155.556 157.584 155.556C157.155 155.556 156.785 155.451 156.476 155.24C156.167 155.027 155.964 154.733 155.868 154.36L155.268 154.46C155.335 154.801 155.472 155.096 155.68 155.344C155.888 155.592 156.152 155.784 156.472 155.92C156.795 156.053 157.157 156.12 157.56 156.12ZM161.726 156.12C162.48 156.12 163.028 155.841 163.37 155.284V156H163.894V153.316C163.894 153.156 163.886 152.999 163.87 152.844C163.854 152.689 163.819 152.549 163.766 152.424C163.651 152.144 163.455 151.931 163.178 151.784C162.903 151.635 162.568 151.56 162.174 151.56C161.699 151.56 161.312 151.667 161.014 151.88C160.715 152.093 160.515 152.393 160.414 152.78L160.986 152.948C161.068 152.66 161.211 152.449 161.414 152.316C161.619 152.183 161.87 152.116 162.166 152.116C162.576 152.116 162.87 152.212 163.046 152.404C163.222 152.593 163.312 152.883 163.318 153.272C163.126 153.299 162.914 153.327 162.682 153.356C162.452 153.385 162.222 153.419 161.99 153.456C161.758 153.493 161.544 153.536 161.35 153.584C161.027 153.669 160.763 153.812 160.558 154.012C160.352 154.209 160.25 154.485 160.25 154.84C160.25 155.069 160.304 155.281 160.414 155.476C160.523 155.671 160.687 155.827 160.906 155.944C161.127 156.061 161.4 156.12 161.726 156.12ZM161.794 155.612C161.562 155.612 161.375 155.575 161.234 155.5C161.095 155.423 160.994 155.325 160.93 155.208C160.868 155.088 160.838 154.965 160.838 154.84C160.838 154.605 160.916 154.429 161.074 154.312C161.231 154.195 161.402 154.109 161.586 154.056C161.823 153.992 162.099 153.94 162.414 153.9C162.728 153.86 163.027 153.823 163.31 153.788C163.31 153.887 163.306 154 163.298 154.128C163.292 154.253 163.278 154.369 163.254 154.476C163.198 154.801 163.043 155.072 162.79 155.288C162.539 155.504 162.207 155.612 161.794 155.612ZM165.947 156H166.555L168.123 151.68H167.519L166.251 155.232L164.975 151.68H164.379L165.947 156ZM170.513 156.12C170.932 156.12 171.306 156.017 171.637 155.812C171.97 155.607 172.222 155.315 172.393 154.936L171.845 154.724C171.57 155.279 171.118 155.556 170.489 155.556C170.057 155.556 169.718 155.421 169.473 155.152C169.23 154.883 169.097 154.5 169.073 154.004H172.477C172.498 153.241 172.332 152.644 171.977 152.212C171.625 151.777 171.129 151.56 170.489 151.56C170.073 151.56 169.712 151.653 169.405 151.84C169.101 152.027 168.865 152.292 168.697 152.636C168.529 152.98 168.445 153.388 168.445 153.86C168.445 154.316 168.529 154.713 168.697 155.052C168.868 155.391 169.108 155.653 169.417 155.84C169.729 156.027 170.094 156.12 170.513 156.12ZM170.505 152.1C171.318 152.1 171.77 152.571 171.861 153.512H169.085C169.13 153.056 169.274 152.707 169.517 152.464C169.76 152.221 170.089 152.1 170.505 152.1Z" fill="white"/>
<rect x="24.1" y="8.1" width="175.8" height="164.8" rx="3.9" stroke="#EDEDED" stroke-width="0.2"/>
</g>
<path d="M46 57L43 60" stroke="#DC2727" stroke-linecap="round" stroke-linejoin="round"/>
<path d="M43 57L46 60" stroke="#DC2727" stroke-linecap="round" stroke-linejoin="round"/>
<path d="M46 75L43 78" stroke="#DC2727" stroke-linecap="round" stroke-linejoin="round"/>
<path d="M43 75L46 78" stroke="#DC2727" stroke-linecap="round" stroke-linejoin="round"/>
<path d="M46 94L43 97" stroke="#DC2727" stroke-linecap="round" stroke-linejoin="round"/>
<path d="M43 94L46 97" stroke="#DC2727" stroke-linecap="round" stroke-linejoin="round"/>
<defs>
<filter id="filter0_ddd" x="0" y="0" width="224" height="213" filterUnits="userSpaceOnUse" color-interpolation-filters="sRGB">
<feFlood flood-opacity="0" result="BackgroundImageFix"/>
<feColorMatrix in="SourceAlpha" type="matrix" values="0 0 0 0 0 0 0 0 0 0 0 0 0 0 0 0 0 0 127 0"/>
<feOffset/>
<feGaussianBlur stdDeviation="0.5"/>
<feColorMatrix type="matrix" values="0 0 0 0 0 0 0 0 0 0 0 0 0 0 0 0 0 0 0.04 0"/>
<feBlend mode="normal" in2="BackgroundImageFix" result="effect1_dropShadow"/>
<feColorMatrix in="SourceAlpha" type="matrix" values="0 0 0 0 0 0 0 0 0 0 0 0 0 0 0 0 0 0 127 0"/>
<feOffset dy="2"/>
<feGaussianBlur stdDeviation="3"/>
<feColorMatrix type="matrix" values="0 0 0 0 0 0 0 0 0 0 0 0 0 0 0 0 0 0 0.04 0"/>
<feBlend mode="normal" in2="effect1_dropShadow" result="effect2_dropShadow"/>
<feColorMatrix in="SourceAlpha" type="matrix" values="0 0 0 0 0 0 0 0 0 0 0 0 0 0 0 0 0 0 127 0"/>
<feOffset dy="16"/>
<feGaussianBlur stdDeviation="12"/>
<feColorMatrix type="matrix" values="0 0 0 0 0 0 0 0 0 0 0 0 0 0 0 0 0 0 0.06 0"/>
<feBlend mode="normal" in2="effect2_dropShadow" result="effect3_dropShadow"/>
<feBlend mode="normal" in="SourceGraphic" in2="effect3_dropShadow" result="shape"/>
</filter>
</defs>
</svg>
